<?xml version="1.0" encoding="UTF-8"?>
<svg xmlns="http://www.w3.org/2000/svg" version="1.1" viewBox="0 0 3975.9 4749.9">
  <defs>
    <style>
      .cls-1 {
        fill: #fff;
      }

      .cls-2 {
        fill: #140e0b;
      }

      .cls-3 {
        fill: #c5a577;
      }
    </style>
  </defs>
  <!-- Generator: Adobe Illustrator 28.7.1, SVG Export Plug-In . SVG Version: 1.2.0 Build 142)  -->
  <g>
    <g id="Calque_2">
      <g>
        <path class="cls-1" d="M1067,285.4v112.2c0,0,55,0,55,0v-112.2c0-9.9-4.6-14.5-14.9-14.5h-25.6c-1.3-.2-2.6-.2-4,0-6.9,1.1-11.7,7.6-10.6,14.5h0ZM3107.9,83.5H869L127.5,1176.9l1860.3,3529.4,1218.4-2311,642.3-1218.4L3107.9,83.5ZM2818.4,421.7l30.2-3c.5-.1,1.1-.1,1.6,0,2.4.4,4.1,2.6,3.7,5v31.4c0,10,5,14.5,14.9,14.5h29c10,0,14.9-4.6,14.9-14.5v-54.3c0-10-5-14.5-14.9-14.5h-35.9c-28.7,0-47-16.1-47-51.2v-49.7c0-34.8,18.3-51.2,47-51.2h42.1c28.6,0,47,16.1,47,51.2v22.9c0,.2,0,.3,0,.4,0,2.9-2.4,5.3-5.4,5.3l-30.2,3.1c-.5.1-1.1.1-1.6,0-2.4-.4-4.1-2.6-3.7-5v-26.7c0-10-5.1-14.5-14.9-14.5h-23.3c-9.9,0-14.9,4.6-14.9,14.5v49.9c0,10,4.9,14.5,14.9,14.5h35.9c28.6,0,47,16.1,47,51.2v54.3c0,34.8-18.3,51.2-47,51.2h-48.1l.3-.4c-28.7,0-47-16.1-47-51.2v-27.5c0-.1,0-.3,0-.4,0-2.9,2.4-5.3,5.4-5.3ZM2993.7,661.2c86,.1,155.6,69.9,155.5,155.9l-.8,895.6c0,86-69.7,155.8-155.8,155.8h-350.7c-85.9-.2-155.4-69.8-155.4-155.7l-.7-896.3v-.4c.2-86,70-155.6,156.1-155.5l351.8.6ZM2448.7,240.5c.4-2.6,2.8-4.4,5.3-4h85.2c3.4-.2,6.7-.1,10,.4,24.3,3.7,41.1,26.5,37.4,50.8v91.8c3.1,20.4-8.7,40.1-28.1,47.1v3.1l33.7,68.7c1.5,3.1.4,6.1-3.4,6.1h-33.2c-3.1.4-6.1-1.5-7-4.6l-30.6-65h-26.4v64.2c0,.4,0,.9,0,1.4-.4,2.6-2.8,4.4-5.3,4h-32.1v-.4c-.6,0-1,0-1.5,0-2.6-.4-4.3-2.8-4-5.3V241.9c0-.4,0-.9,0-1.4ZM2101.9,241c.4-2.6,2.8-4.4,5.3-4h116.9c3.4,0,4.9,1.9,4.6,5.3l-3.4,26.4c-.3,2.9-2.8,5.1-5.8,5h-74.9v76.1h57.7c.5,0,1,0,1.5.1,2.3.6,3.7,2.9,3.1,5.2l-3.4,26.4c-.3,2.9-2.8,5.1-5.8,5h-53.1v80.9h79.5c.5,0,1.1,0,1.6.1,2.3.6,3.6,3,3,5.3l-3.4,26.4c-.3,2.9-2.8,5.1-5.8,5h-112.2c-.5,0-.9,0-1.4,0-2.6-.4-4.3-2.8-4-5.3V242.4c0-.4,0-.9,0-1.4ZM1744.4,275.4c1.8-24.6,23.2-43,47.8-41.2h42.1c3.3-.2,6.7-.1,10,.4,24.3,3.7,41.1,26.5,37.4,50.8v26.7c.1,3.1-2.3,5.6-5.3,5.7l-30.6,3.1c-.5.1-1.1.1-1.6,0-2.4-.4-4.1-2.6-3.7-5v-30.6c.2-1.4.2-2.8,0-4.2-1.2-6.9-7.7-11.5-14.6-10.3h-24.1c-1.4-.2-2.8-.2-4.1,0-6.9,1.1-11.5,7.6-10.4,14.5v169.9c-.2,1.4-.2,2.8,0,4.1,1.1,6.9,7.6,11.5,14.5,10.4h24.1c1.4.2,2.8.2,4.1,0,6.9-1.1,11.5-7.6,10.4-14.5v-51.2h-20.6c-3.4,0-5.7-1.9-5.3-5.3l2.3-24.5c.3-2.9,2.8-5.1,5.8-5h53.9c.4,0,.9,0,1.4,0,2.6.4,4.3,2.8,4,5.3v80.7c.5,3.3.6,6.7.4,10-1.8,24.6-23.2,43-47.8,41.2h-42.1v-.3c-3.3.2-6.7.1-10-.4-24.3-3.7-41.1-26.5-37.4-50.8v-169.7c-.5-3.3-.6-6.7-.4-10ZM1662.5,816.1c0-86,69.7-155.8,155.8-155.8h345.7c89.4,0,161.8,72.5,161.8,161.9v207.8l-188.4-.6v-186.5c0-5.1-4.2-9.3-9.3-9.3h-267.9c-5.1,0-9.3,4.1-9.3,9.3l.7,840.1c0,6.5,5.3,11.9,11.8,11.9h260.9c6.5,0,11.9-5.3,11.9-11.9v-183.2h188.9v212.7c-.3,86-70.2,155.6-156.3,155.3l-350.3-1.1c-85.8-.3-155.3-69.9-155.3-155.8h0s-.6-894.9-.6-894.9h0ZM2045.2,3075c9.5,1.7,18.9,4.1,28.1,7,4.7,1.5,9.4,3.3,14,5.2,4.8,2,9.5,4.4,14,7-4.5,2.6-9.2,5-14,7-4.7,2-9.3,3.6-14,5.2-9.2,2.9-18.6,5.2-28,7-10.8,2-21.6,3.4-32.5,4.3-1.5,2.8-2.8,5.6-3.9,8.5l-5.1,11.7-4.5,12c-4.8,13.9-8.5,28.2-10.9,42.8l-1.1,7.4-1.1-7.4c-2.5-14.6-6.2-28.9-11.1-42.8l-4.3-12-5.1-11.7c-1.3-3-2.7-6-4.3-8.9-9.4-.8-18.8-2.1-28.1-3.9-9.5-1.8-18.8-4.1-28.1-7-4.7-1.5-9.3-3.3-14-5.2-4.8-2-9.5-4.4-14-7,4.5-2.7,9.2-5,14-7,4.7-1.9,9.3-3.5,14-5.1,9.2-2.9,18.6-5.2,28.1-7l3.6-.6c-3.1-4.9-7-10.8-9.5-14-2.5-3.2-4.8-6.9-7.4-10.2l-7.6-10c-2.6-3.4-5.2-6.4-7.9-9.8-2.7-3.4-5.4-6.5-8.1-9.7-5.3-6.4-11.1-12.6-16.6-18.8l-8.6-9.1c-2.8-3.1-5.9-6-8.7-9.1-11.8-11.9-24.1-23.4-36.5-34.4s-25.2-21.8-38.2-32.1c-6.5-5.2-13.1-10.3-19.7-15.1-3.2-2.3-6.6-4.7-9.8-7l-4.8-3.4-2.4-1.6-1.1-.7-.5-.4h-.4l68.4-78.4c2.2,2.2,3.5,3.9,5.2,5.8l4.6,5.4c3.1,3.8,6,7.2,9,10.8,5.9,7.2,11.6,14.4,17,21.6,10.9,14.6,21.8,29.4,32,44.5s19.8,30.4,29,46.1c2.4,3.9,4.8,7.8,7,11.8l6.6,12c4.3,8.1,8.5,16,12.5,24.2,2,4,4,8.2,5.9,12.3,1.9,4.1,3.9,8.2,5.7,12.3l5.3,12.6c1.9,4.1,3.4,8.5,5.1,12.6l2.1,5.7-35.9-236.2c-9.3-61.4,6.6-123.9,44.1-173.4l14.9-19.8,14.9,19.8c37.4,49.5,53.3,112.1,44,173.4l-35.8,236.2,2.1-5.7c1.6-4.2,3.3-8.6,5-12.6l5.4-12.6,5.6-12.3,18.4-36.5,6.6-12c2.4-4,4.8-7.9,7-11.8,9.3-15.6,19-30.9,29.2-46.1s20.8-29.9,31.9-44.5c5.6-7.2,11.2-14.4,17-21.6,3-3.8,6-7.2,9-10.8l4.6-5.4c1.6-2,3.1-3.6,5.2-5.8l68.4,78.4-.6.4-1.1.7-2.3,1.6-5,3.4-9.8,7c-6.7,4.9-13.1,10-19.6,15.1-13,10.2-25.8,20.9-38.3,32.1-12.4,11.1-24.6,22.6-36.3,34.4l-8.8,9.1-8.6,9.1c-5.7,6.2-11.4,12.4-16.8,18.8-2.6,3.2-5.3,6.4-8,9.7s-5.3,6.4-7.9,9.8l-7.6,10-.4.3c-2.5,3.2-4.5,6-7.4,10.2-2.9,4.3-6,8.6-8.8,13l7,1.3ZM1858.2,2453.6v-399.8h260.3v398.9c-35.7-32.1-82.8-48.6-130.7-45.7-47.8-3-94.7,13.9-129.5,46.6ZM1384.9,240.9c.4-2.6,2.8-4.4,5.3-4h25.6c3.5-.2,6.6,2,7.6,5.3l57.7,143.7h2.7v-143.9c0-3.8,1.5-5.3,5-5.3h30.6c3.8,0,5.3,1.5,5.3,5.3v256.8c0,3.8-1.5,5.3-5.3,5.3h-21.8c-3.5.2-6.6-2-7.6-5.3l-61.2-152.1h-2.7v152.1c0,.4,0,.9,0,1.4-.4,2.6-2.8,4.4-5.3,4h-30.6,0c-.4,0-.9,0-1.4,0-2.6-.4-4.3-2.8-4-5.3V242.2c0-.5,0-.9,0-1.4ZM1025.4,275.4c1.8-24.6,23.2-43,47.8-41.2h44.2c3.3-.2,6.7-.1,10,.4,24.3,3.7,41.1,26.5,37.4,50.8v213.5c0,.4,0,.9,0,1.4-.4,2.6-2.8,4.4-5.3,4h-32.1c-.4,0-.9,0-1.4,0-2.6-.4-4.3-2.8-4-5.3v-64.2h-55.1v64.2c0,.4,0,.9,0,1.4-.4,2.6-2.8,4.4-5.3,4h-30.6v-.2c-.4,0-.9,0-1.4,0-2.6-.4-4.3-2.8-4-5.3v-213.3c-.5-3.3-.6-6.7-.4-10ZM827.3,1499.6l188.4.4v185.4c0,5.3,4.3,9.5,9.5,9.5h263.7c5.2,0,9.4-4.2,9.4-9.4v-147.8l-435.5-434.1c-22.3-22.1-34.9-52.1-35.1-83.5v-204.3c0-86,69.7-155.8,155.8-155.8h348c86,0,155.8,69.7,155.8,155.8v214.1l-188.5-.8v-186.2c0-.4,0-.8,0-1.2-.3-4.9-4.5-8.6-9.4-8.2h-263.7c-.3,0-.7,0-1,0-4.9.2-8.8,4.5-8.5,9.4v154.3c0,8,3.4,15.6,9.5,20.7l415.8,414.4c29.3,29.2,45.8,68.9,45.8,110.3v207c0,65.1-52.5,118-117.6,118.5h-386.7c-86,0-155.8-69.7-155.8-155.7v-213.1ZM1989.2,4565.9L252.8,1176.7l497.3-641.2-339.9,641.7,417.5,876.7h248.7v522.6l260.4,547.1v-1069.6h260.5v1616.7l260.3,547.1v-686.9c0-71.9,58.3-130.2,130.2-130.2s130.2,58.3,130.2,130.2v689.1l260.3-547v-1618.9h260.2v1071.8l260.3-547.1v-525.2h250l417.5-876.7-339.9-641.2,497.3,641.4h0s0,0,0,0h0s-1734.6,3389-1734.6,3389ZM2675.5,1683.1c0,6.5,5.3,11.9,11.9,11.9h260.8c6.5,0,11.9-5.3,11.9-11.9l.7-840.2c0-5.1-4.2-9.3-9.3-9.3h-267.4c-5.2,0-9.3,4.2-9.3,9.3h0s.8,840.2.8,840.2ZM2533.6,398.3c6.9-1.1,11.5-7.6,10.4-14.5v-95.5c.2-1.4.2-2.8,0-4.1-1.1-6.9-7.6-11.5-14.5-10.4h-37.8v124.6h37.8c1.4.2,2.8.2,4.1,0Z"/>
        <path class="cls-3" d="M2152.2,2816.4l-4.6,5.4c-3,3.6-6,7-9,10.8-5.8,7.2-11.5,14.4-17,21.6-11.1,14.6-21.7,29.3-31.9,44.5s-19.9,30.4-29.2,46.1c-2.2,3.9-4.6,7.8-7,11.8l-6.6,12-18.4,36.5-5.6,12.3-5.4,12.6c-1.7,4.1-3.4,8.4-5,12.6l-2.1,5.7,35.8-236.2c9.3-61.4-6.5-123.9-44-173.4l-14.9-19.8-14.9,19.8c-37.4,49.5-53.3,112.1-44.1,173.4l35.9,236.2-2.1-5.7c-1.8-4.1-3.2-8.6-5.1-12.6l-5.3-12.6c-1.8-4.1-3.8-8.2-5.7-12.3-1.9-4.1-3.9-8.3-5.9-12.3-3.9-8.2-8.2-16.1-12.5-24.2l-6.6-12c-2.2-4-4.6-7.9-7-11.8-9.3-15.6-18.9-31-29-46.1s-21-29.9-32-44.5c-5.5-7.2-11.2-14.4-17-21.6-2.9-3.6-5.9-7-9-10.8l-4.6-5.4c-1.7-2-3-3.6-5.2-5.8l-68.4,78.4h.4l.5.4,1.1.7,2.4,1.6,4.8,3.4c3.2,2.3,6.6,4.7,9.8,7,6.6,4.8,13.2,10,19.7,15.1,13,10.2,25.8,21,38.2,32.1s24.7,22.6,36.5,34.4c2.8,3,5.9,6,8.7,9.1l8.6,9.1c5.5,6.2,11.3,12.4,16.6,18.8,2.7,3.2,5.5,6.3,8.1,9.7,2.7,3.4,5.3,6.4,7.9,9.8l7.6,10c2.6,3.4,5,7,7.4,10.2,2.4,3.2,6.4,9.1,9.5,14l-3.6.6c-9.5,1.8-18.9,4.1-28.1,7-4.7,1.5-9.3,3.2-14,5.1-4.8,2-9.5,4.3-14,7,4.5,2.6,9.2,5,14,7,4.7,1.9,9.3,3.6,14,5.2,9.2,2.9,18.6,5.2,28.1,7,9.3,1.8,18.6,3.1,28.1,3.9,1.5,2.9,3,5.9,4.3,8.9l5.1,11.7,4.3,12c4.9,13.9,8.6,28.2,11.1,42.8l1.1,7.4,1.1-7.4c2.4-14.5,6.1-28.9,10.9-42.8l4.5-12,5.1-11.7c1.2-2.9,2.5-5.7,3.9-8.5,10.9-.8,21.8-2.2,32.5-4.3,9.5-1.8,18.9-4.1,28-7,4.7-1.5,9.3-3.2,14-5.2,4.8-2.1,9.5-4.4,14-7-4.5-2.7-9.2-5-14-7-4.6-1.9-9.3-3.6-14-5.2-9.2-2.9-18.6-5.3-28.1-7l-7-1.3c2.9-4.4,5.9-8.7,8.8-13,3-4.3,4.9-7,7.4-10.2l.4-.3,7.6-10c2.7-3.4,5.3-6.5,7.9-9.8s5.4-6.5,8-9.7c5.4-6.4,11.1-12.6,16.8-18.8l8.6-9.1,8.8-9.1c11.8-11.9,23.9-23.4,36.3-34.4,12.5-11.1,25.2-21.8,38.3-32.1,6.5-5.2,13-10.2,19.6-15.1l9.8-7,5-3.4,2.3-1.6,1.1-.7.6-.4-68.4-78.4c-2.1,2.2-3.6,3.9-5.2,5.8ZM3149.3,0H827.8L0,1176.8l1987.7,3573.1,1988.2-3573.1L3149.3,0ZM3206.2,2395.3l-1218.4,2311.1h0c0,0-1860.3-3529.5-1860.3-3529.5h0S868.9,83.4,868.9,83.4h2239l740.7,1093.5h0s-642.3,1218.5-642.3,1218.5Z"/>
        <path class="cls-2" d="M1987.8,2407c47.9-2.9,95,13.6,130.7,45.7v-398.9h-260.3v399.8c34.9-32.8,81.8-49.7,129.5-46.6ZM1025.8,498.7c-.4,2.6,1.4,4.9,4,5.3.4,0,.9,0,1.4,0v.2s30.6,0,30.6,0c2.6.4,4.9-1.4,5.3-4,0-.5,0-.9,0-1.4v-64.2h55.1v64.2c-.4,2.6,1.4,4.9,4,5.3.4,0,.9,0,1.4,0h32.1c2.6.4,4.9-1.4,5.3-4,0-.5,0-.9,0-1.4v-213.5c3.7-24.4-13-47.1-37.4-50.8-3.3-.5-6.7-.6-10-.4h-44.2c-24.6-1.8-46,16.6-47.8,41.2-.2,3.4-.1,6.7.4,10v213.3ZM1077.6,270.9c1.3-.2,2.7-.2,4,0h25.6c10.3,0,14.9,4.6,14.9,14.5v112.2h-55.1v-112.2h0c-1.1-6.9,3.6-13.4,10.6-14.5ZM1384.9,498.9c-.4,2.6,1.4,4.9,4,5.3.4,0,.9,0,1.4,0h0s30.6,0,30.6,0c2.6.4,4.9-1.4,5.3-4,0-.5,0-.9,0-1.4v-152.1h2.7l61.2,152.1c1.1,3.3,4.2,5.5,7.6,5.3h21.8c3.9,0,5.3-1.5,5.3-5.3V242c0-3.8-1.5-5.3-5.3-5.3h-30.6c-3.4,0-5,1.5-5,5.3v143.9h-2.7l-57.7-143.7c-1.1-3.3-4.2-5.5-7.6-5.3h-25.6c-2.6-.4-4.9,1.4-5.3,4,0,.4,0,.9,0,1.4v256.6ZM1782.1,505.9c3.3.5,6.7.6,10,.4v.3s42.1,0,42.1,0c24.6,1.8,46-16.6,47.8-41.2.2-3.4.1-6.7-.4-10v-80.7c.4-2.6-1.4-5-4-5.3-.4,0-.9,0-1.4,0h-53.9c-2.9-.2-5.5,2-5.8,5l-2.3,24.5c-.3,3.4,1.9,5.3,5.3,5.3h20.6v51.2c1.1,6.9-3.5,13.4-10.4,14.5-1.4.2-2.8.2-4.1,0h-24.1c-6.9,1.1-13.4-3.5-14.5-10.4-.2-1.4-.2-2.8,0-4.1v-169.9c-1.1-6.9,3.5-13.4,10.4-14.5,1.4-.2,2.8-.2,4.1,0h24.1c6.9-1.2,13.4,3.4,14.6,10.3.2,1.4.2,2.8,0,4.2v30.6c-.4,2.4,1.3,4.7,3.7,5,.5,0,1.1,0,1.6,0l30.6-3.1c3.1-.1,5.4-2.7,5.3-5.7v-26.7c3.7-24.4-13-47.1-37.4-50.8-3.3-.5-6.7-.6-10-.4h-42.1c-24.6-1.8-46,16.6-47.8,41.2-.2,3.3-.1,6.7.4,10v169.7c-3.7,24.4,13,47.1,37.4,50.8ZM2101.9,498.9c-.4,2.6,1.4,5,4,5.3.4,0,.9,0,1.4,0h0s112.2,0,112.2,0c2.9.2,5.5-2,5.8-5l3.4-26.4c.6-2.3-.7-4.6-3-5.3-.5-.1-1.1-.2-1.6-.1h-79.5v-80.9h53.1c2.9.2,5.5-2,5.8-5l3.4-26.4c.6-2.3-.8-4.6-3.1-5.2-.5-.1-1-.2-1.5-.1h-57.7v-76.1h74.9c2.9.2,5.5-2,5.8-5l3.4-26.4c.4-3.4-1.1-5.3-4.6-5.3h-116.9c-2.6-.4-4.9,1.4-5.3,4,0,.5,0,.9,0,1.4v256.5ZM2448.7,498.9c-.4,2.6,1.4,4.9,4,5.3.4,0,.9,0,1.4,0v.4h32.3c2.6.4,4.9-1.4,5.3-4,0-.5,0-.9,0-1.4v-64.2h26.4l30.6,65c.9,3,3.9,4.9,7,4.6h33.2c3.9,0,5-3,3.4-6.1l-33.7-68.7v-3.1c19.4-7,31.1-26.7,28.1-47.1v-91.8c3.7-24.4-13-47.1-37.4-50.8-3.3-.5-6.7-.6-10-.4h-85.2c-2.6-.4-4.9,1.4-5.3,4,0,.4,0,.9,0,1.4v257ZM2491.6,273.7h37.8c6.9-1.1,13.4,3.5,14.5,10.4.2,1.4.2,2.8,0,4.1v95.5c1.1,6.9-3.5,13.4-10.4,14.5-1.4.2-2.8.2-4.1,0h-37.8v-124.6ZM2813,455c0,35.1,18.3,51.2,47,51.2l-.3.4h48.1c28.7,0,47-16.4,47-51.2v-54.3c0-35.1-18.4-51.2-47-51.2h-35.9c-10,0-14.9-4.6-14.9-14.5v-49.9c0-10,5-14.5,14.9-14.5h23.3c9.9,0,14.9,4.6,14.9,14.5v26.7c-.4,2.4,1.3,4.7,3.7,5,.5,0,1.1,0,1.6,0l30.2-3.1c2.9,0,5.3-2.4,5.4-5.3,0-.2,0-.3,0-.4v-22.9c0-35.1-18.4-51.2-47-51.2h-42.1c-28.7,0-47,16.4-47,51.2v49.7c0,35.1,18.3,51.2,47,51.2h35.9c10,0,14.9,4.6,14.9,14.5v54.3c0,10-5,14.5-14.9,14.5h-29c-10,0-14.9-4.6-14.9-14.5v-31.4c.4-2.4-1.3-4.7-3.7-5-.5,0-1.1,0-1.6,0l-30.2,3c-2.9,0-5.3,2.4-5.4,5.3,0,.1,0,.3,0,.4v27.5ZM983.1,1868.4h.5c0,0,386.2,0,386.2,0,65.1-.5,117.6-53.4,117.6-118.5v-207c0-41.4-16.5-81.1-45.8-110.3l-415.8-414.4c-6.1-5.1-9.6-12.7-9.5-20.7v-154.3c-.2-4.9,3.6-9.2,8.5-9.4.3,0,.7,0,1,0h263.7c4.9-.3,9.1,3.4,9.4,8.2,0,.4,0,.8,0,1.2v186.2l188.5.8v-214.1c0-86-69.7-155.8-155.8-155.8h-348c-86,0-155.8,69.7-155.8,155.8v204.3c.2,31.4,12.8,61.4,35.1,83.5l435.5,434.1v147.8c0,5.2-4.2,9.4-9.4,9.4h-263.7c-5.3,0-9.5-4.3-9.5-9.5v-185.4l-188.4-.4v213.1c0,86,69.7,155.8,155.8,155.8ZM2485.8,816v.4l.7,896.3c0,85.9,69.6,155.5,155.4,155.7h0s350.7,0,350.7,0c86,0,155.8-69.7,155.8-155.8l.8-895.6c0-86-69.5-155.8-155.5-155.9l-351.8-.6c-86-.2-155.9,69.5-156.1,155.5ZM2683.9,833.6h267.4c5.1,0,9.3,4.2,9.3,9.3l-.7,840.2c0,6.6-5.3,11.9-11.9,11.9h-260.8c-6.6,0-11.9-5.3-11.9-11.9l-.8-840.1h0c0-5.2,4.2-9.3,9.3-9.3ZM1663.1,1711.1c0,85.8,69.4,155.5,155.3,155.8l350.3,1.1c86,.3,156-69.2,156.3-155.3v-212.7h-188.9v183.2c0,6.6-5.3,11.9-11.9,11.9h-260.9c-6.6,0-11.8-5.3-11.8-11.9l-.7-840.1c0-5.1,4.2-9.3,9.3-9.3h267.9c5.1,0,9.3,4.1,9.3,9.3v186.5l188.4.6v-207.8c0-89.4-72.4-161.9-161.8-161.9h-345.7c-86,0-155.8,69.7-155.8,155.8h0c0,.1.6,895,.6,895h0ZM3566.4,1176.8l-417.5,876.7h-250v525.2l-260.3,547.1v-1071.8h-260.2v1618.9l-260.3,547v-689.1c0-71.9-58.3-130.2-130.2-130.2s-130.2,58.3-130.2,130.2v686.9l-260.3-547.1v-1616.7h-260.5v1069.6l-260.4-547.1v-522.6h-248.7l-417.5-876.7,339.9-641.7-497.3,641.2,1736.4,3389.2,1734.6-3389-497.3-641.4,339.9,641.2ZM3723.8,1176.9h0s0,0,0,0h0Z"/>
      </g>
    </g>
  </g>
</svg>