<?xml version="1.0" encoding="UTF-8"?>
<svg id="Calque_2" data-name="Calque 2" xmlns="http://www.w3.org/2000/svg" viewBox="0 0 2745.52 3524.38">
  <defs>
    <style>
      .cls-1 {
        fill: none;
      }

      .cls-1, .cls-2, .cls-3, .cls-4, .cls-5, .cls-6, .cls-7 {
        stroke-width: 0px;
      }

      .cls-2 {
        fill: #000;
      }

      .cls-3 {
        fill: #006a3f;
      }

      .cls-4 {
        fill: #e8151e;
      }

      .cls-5 {
        fill: #282a6f;
      }

      .cls-6 {
        fill: #7e4f3a;
      }

      .cls-7 {
        fill: #fff;
      }
    </style>
  </defs>
  <g id="Calque_1-2" data-name="Calque 1">
    <path class="cls-7" d="M0,0l.85,2251.28c-.07,70.52,15.79,140.13,46.43,203.65,30.64,63.52,75.21,119.29,130.46,163.15,1.76,1.4,3.45,2.83,5.24,4.2l4.04,3.19,1186.43,898.9,1186.04-900.04c57.66-43.92,104.41-100.51,136.68-165.4,32.27-64.89,49.13-136.35,49.36-208.8V0H0Z"/>
    <path class="cls-1" d="M2745.52,0v2250.14c-.23,72.44-17.09,143.91-49.36,208.8-32.27,64.89-79.02,121.48-136.68,165.4l-1186.04,900.04L187.02,2625.47l-4.04-3.19c-1.79-1.37-3.48-2.8-5.24-4.2-55.25-43.86-99.82-99.63-130.46-163.15-30.64-63.52-46.49-133.13-46.43-203.65L0,0h2745.52Z"/>
    <path class="cls-4" d="M2056.84,697.37l-305.36,312.71v2132.13l305.36-231.77V697.37Z"/>
    <path class="cls-4" d="M2362.75,2678.07l146.93-111.49c96.09-72.89,158.33-181.03,158.28-301.36l-.8-2193.07-304.41,311.71v2294.21Z"/>
    <path class="cls-4" d="M838.7,3024.08v-1079.21l-305.36,312.71v535.13l305.36,231.37Z"/>
    <path class="cls-4" d="M1448.72,3372.03V1320.15l-305.36,312.76v1621.99l230.02,174.33,75.34-57.19Z"/>
    <path class="cls-5" d="M2744.67,0H0l.85,2251.28c-.07,70.52,15.79,140.13,46.43,203.65,30.64,63.52,75.21,119.29,130.46,163.15,1.76,1.4,3.45,2.83,5.24,4.2l4.04,3.19,1186.43,898.9,1186.04-900.04c57.66-43.92,104.41-100.51,136.68-165.4,32.27-64.89,49.13-136.35,49.36-208.8l-.85-2250.14ZM1777.43,397.67L398.55,1810.28l-.55-1411.93,1379.43-.68ZM1751.48,3134.16l-302.76,229.8-75.34,57.17-230.02-174.28-304.65-230.84-305.36-231.39-292.37-221.53,292.37-299.44,305.36-312.72,304.65-311.97,305.36-312.72,302.76-310.09,305.36-312.72,305.92-313.28,299.5-306.73.81,2166.66c-.16,59.78-14.1,118.68-40.7,172.2s-65.15,100.18-112.68,136.42l-146.94,111.51-305.92,232.21-305.36,231.75Z"/>
    <path class="cls-7" d="M168.08,163.99l30.95-95.24,31,95.24,100.14-.05-80.99,58.89,31,95.29-81.09-58.84-80.99,58.89,30.9-95.29-81.04-58.84,100.14-.05Z"/>
    <path class="cls-7" d="M1165.76,163.64l30.9-95.29,31,95.24h100.19l-81.04,58.89,31,95.24-81.04-58.84-80.99,58.89,30.9-95.24-81.04-58.84,100.14-.05Z"/>
    <path class="cls-7" d="M168.83,2173.59l30.95-95.29,31,95.24h100.14l-80.99,58.89,31,95.24-81.09-58.84-80.99,58.89,30.9-95.24-81.04-58.84,100.14-.05Z"/>
    <path class="cls-7" d="M168.48,1171.56l30.9-95.29,31,95.24,100.19-.05-81.04,58.94,31,95.24-81.04-58.84-81.04,58.89,30.95-95.29-81.04-58.84h100.14Z"/>
    <path class="cls-7" d="M866.74,1534.07l30.95-95.29,31,95.24h100.14l-80.99,58.89,31,95.24-81.09-58.84-80.99,58.89,30.9-95.24-81.04-58.84,100.14-.05Z"/>
    <path class="cls-7" d="M1537.76,862.1l30.9-95.24,31,95.24,100.14-.05-80.99,58.89,31,95.29-81.04-58.84-81.04,58.89,30.9-95.29-81.04-58.84,100.19-.05Z"/>
    <path class="cls-7" d="M2163.38,163.24l30.95-95.24,31,95.24,100.14-.05-80.99,58.89,31,95.29-81.09-58.84-80.99,58.89,30.9-95.29-81.04-58.84,100.14-.05Z"/>
    <path class="cls-2" d="M946.08,1102.72c-.98-7.07-2.9-13.97-5.63-20.54-21.26-48.74-43.92-39.56-57.37-106.04-2.21-12.37-5.11-24.61-8.73-36.63-2.47-7-7.26-21.16-6.06-32.4,2.44-23.44,10-50.01,13.45-73.81v-.85c3.81-.98,7.26-3,10.03-5.83,2.73-2.83,4.66-6.38,5.5-10.22,1.01-7.49-1.04-10.39-18.72-14.98l-.62-.72c-10.55-19.21-27.94-25.85-47.44-29.63-6.54-1.01-13.22-.72-19.63.88-5.76.75-11.62-.29-16.77-3.03-10-5.57-31.65-26.93-37.9-17.45-3.94,6.12-6.38,13.09-7.03,20.35-.68,7.26.39,14.59,3.13,21.33,10.03,23.7,25.75,30.02,9.15,57.69-10,16.54-29.99,41.09-34.67,62.9-13.51-8.63-25.17-19.89-34.25-33.11-3.06-7.91-7.2-15.4-12.34-22.17-.49-.65-.98-1.3-1.5-1.95v71.04c.49.62.98,1.27,1.5,1.92,8.46,10.81,18.07,22.69,26.8,33.08-8.53-5.63-18.3-12.4-26.8-18.36-.49-.36-1.01-.68-1.5-1.04v57.79c.49.36.98.68,1.5,1.04,7.03,4.79,16.64,10.42,23.47,13.93,6.74,4,13.9,7.23,21.36,9.6,3.29,40.37,20.87,78.27,49.59,106.86-4.69,19.05-9.34,42.23-6.64,52.52,9.15,34.77,40.01,62.22,42.68,82.7,1.27,9.15-8.76,13.54-16.21,19.57l-.03.03-3.32,2.21,109.98,2.15,1.63-2.21s.03-.07.03-.1c1.69-3.13,2.12-6.8,1.14-10.26-8.73-54.54-9.57-62.45,20.58-95.27,9.51-10.78,16.15-23.74,19.41-37.7,1.89-.07,3.71-.52,5.44-1.3,1.69-.78,3.22-1.92,4.46-3.32,1.24-1.43,2.18-3.06,2.8-4.85.59-1.76.81-3.65.65-5.53-1.89-10.03-5.63-19.63-11.1-28.29ZM839.39,1214.26c.72-5.99,20.97,43.6,19.31,52.94-1.24,6.93-5.31,10.65-10.84,16.44,2.21-10.52,2.12-21.42-.29-31.91-1.86-8.82-8.73-32.59-8.17-37.47Z"/>
    <path class="cls-6" d="M715.91,1285.65c-4.69.04-9.34-.85-13.68-2.62-4.34-1.77-8.29-4.38-11.61-7.69-3.32-3.31-5.96-7.24-7.75-11.57-1.79-4.33-2.71-8.97-2.7-13.66v-459.44c0-6.94,1.6-13.79,4.7-20l6.6-10c-26.6,2.7-53.41,2.6-79.99-.3l5.95,10c3.24,6.31,4.95,13.3,5,20.4v459.14c.02,4.67-.88,9.31-2.66,13.63-1.78,4.32-4.39,8.25-7.7,11.56-3.3,3.31-7.23,5.93-11.55,7.71-4.32,1.78-8.95,2.7-13.63,2.68l-99.49,3.95c-1.46,0-2.86.58-3.89,1.61s-1.61,2.43-1.61,3.89.58,2.86,1.61,3.89,2.43,1.61,3.89,1.61l409.55-1.1,10-10-191.03-3.7Z"/>
    <path class="cls-3" d="M651.82,764.12c118.53,0,214.62-73.08,214.62-163.23s-96.09-163.23-214.62-163.23-214.62,73.08-214.62,163.23,96.09,163.23,214.62,163.23Z"/>
    <path class="cls-4" d="M586.38,660.43c-1.9-.75-3.93-1.12-5.97-1.07-2.04.05-4.06.49-5.92,1.32-3.83,1.73-6.83,4.89-8.36,8.8-1.53,3.91-1.47,8.27.16,12.14.82,1.88,2.01,3.57,3.5,4.99,1.48,1.41,3.23,2.52,5.15,3.26,1.8.67,3.72,1.01,5.65,1,2.33,0,4.63-.49,6.75-1.45,2.83-1.28,5.21-3.37,6.85-6.01,1.64-2.64,2.46-5.7,2.36-8.81-.1-3.1-1.12-6.1-2.93-8.63-1.81-2.52-4.32-4.45-7.23-5.55Z"/>
    <path class="cls-4" d="M677.32,643.83c1.99.76,4.11,1.11,6.24,1.04,2.13-.08,4.22-.58,6.15-1.49,1.93-.82,3.67-2.01,5.13-3.52,1.45-1.5,2.6-3.28,3.36-5.23.76-1.95,1.13-4.03,1.08-6.13-.05-2.09-.52-4.16-1.38-6.07-.84-1.86-2.04-3.54-3.53-4.94s-3.25-2.49-5.16-3.2c-4-1.51-8.44-1.39-12.35.35-3.86,1.7-6.88,4.85-8.42,8.78-1.53,3.92-1.45,8.3.22,12.16.82,1.88,2,3.58,3.49,5,1.48,1.41,3.24,2.52,5.16,3.25Z"/>
    <path class="cls-4" d="M780.21,597.99c1.99.76,4.11,1.11,6.24,1.04,2.13-.08,4.22-.58,6.15-1.49,3.79-1.71,6.74-4.86,8.22-8.75,1.47-3.89,1.33-8.2-.37-12-1.79-3.92-5.06-6.98-9.1-8.5-1.86-.79-3.85-1.2-5.87-1.2s-4.01.41-5.87,1.2c-3.84,1.8-6.84,5.04-8.34,9.02-1.5,3.97-1.4,8.38.29,12.28.81,1.9,1.99,3.62,3.48,5.07,1.48,1.44,3.24,2.57,5.17,3.33Z"/>
    <path class="cls-4" d="M522.09,596.24c-1.9-.75-3.93-1.12-5.97-1.07-2.04.05-4.06.49-5.92,1.32-3.83,1.73-6.83,4.89-8.36,8.8-1.53,3.91-1.47,8.27.16,12.14.82,1.88,2.01,3.57,3.5,4.99,1.48,1.41,3.23,2.52,5.15,3.26,1.81.66,3.72.99,5.65,1,2.33,0,4.63-.49,6.75-1.45,2.83-1.28,5.21-3.37,6.86-6.01,1.64-2.64,2.46-5.7,2.36-8.8-.1-3.1-1.12-6.11-2.93-8.63-1.81-2.52-4.32-4.45-7.23-5.55Z"/>
    <path class="cls-4" d="M633.67,558.34c-.83-1.87-2.03-3.55-3.52-4.95-1.49-1.4-3.25-2.48-5.17-3.19-4-1.51-8.44-1.39-12.35.35-3.86,1.7-6.88,4.85-8.42,8.78-1.53,3.92-1.45,8.3.23,12.16.82,1.88,2.01,3.57,3.5,4.99,1.48,1.41,3.23,2.52,5.15,3.26,1.99.76,4.11,1.11,6.24,1.04,2.13-.08,4.22-.58,6.15-1.49,1.93-.82,3.67-2.01,5.13-3.52,1.45-1.5,2.6-3.28,3.36-5.23.76-1.95,1.13-4.03,1.08-6.13-.05-2.09-.52-4.16-1.38-6.07Z"/>
    <path class="cls-4" d="M741.61,708.02c1.78.69,3.68,1.05,5.6,1.05,2.33,0,4.63-.51,6.75-1.5,1.93-.82,3.67-2.01,5.13-3.52,1.46-1.5,2.6-3.28,3.37-5.23.76-1.95,1.13-4.03,1.08-6.13-.05-2.09-.52-4.16-1.38-6.07-.83-1.86-2.03-3.54-3.53-4.93-1.49-1.39-3.25-2.46-5.17-3.16-2.94-1.13-6.15-1.38-9.23-.7-3.07.68-5.89,2.25-8.08,4.51-2.19,2.27-3.67,5.13-4.24,8.23-.57,3.1-.22,6.3,1.01,9.2.82,1.89,2.01,3.59,3.51,5.01,1.49,1.41,3.26,2.52,5.19,3.24Z"/>
  </g>
</svg>