<?xml version="1.0" encoding="UTF-8"?>
<svg xmlns="http://www.w3.org/2000/svg" version="1.1" xmlns:cc="http://creativecommons.org/ns#" xmlns:dc="http://purl.org/dc/elements/1.1/" xmlns:inkscape="http://www.inkscape.org/namespaces/inkscape" xmlns:rdf="http://www.w3.org/1999/02/22-rdf-syntax-ns#" xmlns:sodipodi="http://sodipodi.sourceforge.net/DTD/sodipodi-0.dtd" xmlns:svg="http://www.w3.org/2000/svg" viewBox="0 0 657.9 830.5">
  <defs>
    <style>
      .cls-1 {
        fill: #004ea2;
      }

      .cls-2 {
        fill: #fff;
      }
    </style>
  </defs>
  <!-- Generator: Adobe Illustrator 28.7.1, SVG Export Plug-In . SVG Version: 1.2.0 Build 142)  -->
  <g>
    <g id="svg2">
      <g id="_x3C_defs">
        <inkscape:perspective id="perspective2450" inkscape:persp3d-origin="372.04724 : 350.78739 : 1" inkscape:vp_x="0 : 526.18109 : 1" inkscape:vp_y="0 : 1000 : 0" inkscape:vp_z="744.09448 : 526.18109 : 1" sodipodi:type="inkscape:persp3d"/>
      </g>
      <sodipodi:namedview id="base" bordercolor="#666666" borderopacity="1.0" fit-margin-bottom="5" fit-margin-left="5" fit-margin-right="5" fit-margin-top="5" inkscape:current-layer="g26777" inkscape:cx="360.85803" inkscape:cy="446.38911" inkscape:document-rotation="0" inkscape:document-units="px" inkscape:guide-bbox="true" inkscape:pageopacity="0.0" inkscape:pageshadow="2" inkscape:window-height="1001" inkscape:window-maximized="1" inkscape:window-width="1920" inkscape:window-x="-9" inkscape:window-y="-9" inkscape:zoom="0.71799648" pagecolor="#ffffff" showgrid="false" showguides="true"/>
      <g>
        <path class="cls-2" d="M645.6,651h0s0-638.8,0-638.8H12.2v638.8s0,0,0,0c-.3,3.6-1.3,35.1,47.2,47.2,6.5,1.6,14.2,3.4,22.9,5.4,65.3,15.1,187,43.3,243.2,106l3.5,3.8,3-3.3c56-63.1,178.1-91.4,243.6-106.5,8.7-2,16.4-3.8,22.9-5.4,48.5-12.1,47.5-43.6,47.2-47.2ZM596.5,690.4c-6.4,1.6-14.1,3.4-22.7,5.4-65.3,15.1-185.9,43-244.8,105.7-58.9-62.7-179.6-90.6-244.8-105.7-8.6-2-16.3-3.8-22.7-5.4-41.1-10.3-41.4-34.7-41.1-38.5v-.8c0,0,0-630.8,0-630.8h617.2v631.6c0,0,0,0,0,0,.2,3.8,0,28.2-41.1,38.5ZM328.9,264.2l-98-62.1,56.6,121.2c12.6-5.9,26.6-9.2,41.4-9.2s28.8,3.3,41.4,9.2l56.6-121.2-98,62.1ZM328.9,295.3l-45.6-46.6,45.6,25.9,45.6-25.9-45.6,46.6ZM328.9,509.9c-14.8,0-28.8-3.3-41.4-9.2l-56.6,121.2,98-62.1,98,62.1-56.6-121.2c-12.6,5.9-26.6,9.2-41.4,9.2ZM328.9,549.4l-45.6,25.9,45.6-46.6,45.6,46.6-45.6-25.9ZM240.2,453.4c-5.9-12.6-9.2-26.6-9.2-41.4s3.3-28.8,9.2-41.4l-121.2-56.6,62.1,98-62.1,98,121.2-56.6ZM165.6,366.4l46.6,45.6-46.6,45.6,25.9-45.6-25.9-45.6ZM417.6,370.6c5.9,12.6,9.2,26.6,9.2,41.4s-3.3,28.8-9.2,41.4l121.2,56.6-62.1-98,62.1-98-121.2,56.6ZM492.2,457.6l-46.6-45.6,46.6-45.6-25.9,45.6,25.9,45.6ZM362.8,339.5c-10.3-4.8-21.8-7.5-33.9-7.5s-23.6,2.7-33.9,7.5c-17,7.9-30.7,21.7-38.7,38.7-4.8,10.3-7.5,21.7-7.5,33.8s2.7,23.6,7.5,33.9c7.9,17,21.7,30.7,38.7,38.7,10.3,4.8,21.7,7.5,33.9,7.5s23.6-2.7,33.9-7.5c17-7.9,30.7-21.7,38.7-38.7,4.8-10.3,7.5-21.8,7.5-33.9s-2.7-23.6-7.5-33.8c-7.9-17-21.7-30.7-38.7-38.7ZM403,412c0,11.2-2.5,21.8-7,31.3-7.4,15.7-20.1,28.4-35.8,35.8-9.5,4.5-20.1,7-31.3,7s-21.8-2.5-31.3-7c-15.7-7.4-28.4-20.1-35.8-35.8-4.5-9.5-7-20.1-7-31.3s2.5-21.8,7-31.3c7.4-15.7,20.1-28.4,35.8-35.8,9.5-4.5,20.1-7,31.3-7s21.8,2.5,31.3,7c15.7,7.4,28.4,20.1,35.8,35.8,4.5,9.5,7,20.1,7,31.3ZM287.7,354.6c-5,3.6-9.5,7.8-13.4,12.6l10.3-1.4,3.1-11.1ZM309.5,399.4l-24.2-12.3-2.5,3.4-17.9,24.4,10.6,22,4.3,9,30.1-8.4v-16.6c-.1,0-.3-18-.3-18v-3.6ZM328.9,463.7l18.7,5.8,4.2-8.5,5.9-11.9-13.3-4.9v-20h-27.8v19.4l-2.9.9-11.6,3.6,3.9,12.9,2.9,9.4,20-6.8ZM348.6,369l-15.5,4.9-15.8-5.8-5.3,7.7-8.6,12.4,12.9,6.8.2,11.4v5.8h30.2v-14.9l14.5-6.5-12.4-21.3-.2-.3ZM352.5,438.8l27.2,8.4,5.4-9,9.8-16.2-14.9-31-27.5,11.3v36.5ZM399.5,411.7c0-3.3-.3-6.5-.7-9.6l-2.4,5.1,3.1,4.5ZM387.7,372.9c-1.6-2.4-3.4-4.8-5.3-7l.2,6,5.1,1ZM376.8,375.8l-3.9-17.5-3.6-1v3.9l-9.4,4.2,12.6,19.7,10-3.2,2.3,3.9,4.5,7.7,4.1-10.2c0,0,0-.2-.1-.2l-1.4-.6-15.3-6.7ZM262.6,388.7l-.8,1.2c-2.3,6.9-3.5,14.3-3.5,22l7.6-9.6-3.2-13.6ZM259.1,416.2l-.6,1.2c.4,5.6,1.5,11,3.1,16.2l3.3-4.8-5.8-12.6ZM276.5,453.1l-6.8-12-2.9,4.6c6.9,12.7,17.7,23.1,30.6,29.5l1.7-1.5-7.4-23-15.2,2.3ZM306.1,478.9c7.2,2.4,14.8,3.8,22.8,3.8s15.2-1.3,22.2-3.6l-21.2-8.9-23.8,8.6ZM353.3,359.6l6.3-2.3-2.2-6.4-1.5-4.3c-8.3-3.4-17.4-5.3-27-5.3s-11.5.7-17,2.1l-6,12,27.8,11.3,19.6-7.1ZM381.6,456.3l-12.9-3.2-10.9,20.8v.2c-.1,0,.2.2.2.2l1.7,1.3c13.2-6.4,24.1-16.8,31.2-29.7l-1.2-1.6-8.1,12ZM273.9,390.3l2.5-2.9,7.6-8.8,10.3,4.2,12.6-18.1h0s0,0,0,0l-9.3-5.8,1.6-5.2-4.9-1.3-5.5,18.7-19.4,3.6,3.2,10.9,1.4,4.6ZM350.9,364.9l-17.7,5.2-16.8-6.9-6.2,8.6-12.1,16.9,14.6,8.6.2,7.2.4,12.8h35.8l.9-15.2v-1.9c.1,0,17.6-8.3,17.6-8.3l-16.3-27.2h-.4ZM348.5,399.2l-.2,3.8-.7,12.8h-32.7l-.3-10.4-.3-8.9-13.8-8.2,10.6-14.7,6-8.3,16.1,6.7,16.9-4.9.5-.2,14.7,24.6-16.8,7.9ZM292.5,352.1l-.7-.2c-.4.2-.8.5-1.1.7l-4.7,15.3-13.7,1.8c-.4.6-.9,1.2-1.3,1.8l16.2-2.2,5.3-17.3ZM293.5,446.3l-14,3.3-6.8-11.3-1.8-3-5.6,6.5-.3.3c.3.5.5,1.1.8,1.6l3.1-3.6,1.8-2.1.6,1,7.5,12.5,13.8-3.2,8.2,24.2,1.1,3.3-.5,1.4c.5.2,1,.4,1.5.6l.7-2-1.9-5.5-8.2-23.9ZM377.5,360.7c-.5-.5-1-.9-1.5-1.4h-.4c0,0,2.3,15.4,2.3,15.4l14.1,5.6c-.4-.7-.7-1.5-1.1-2.2l-11.5-4.5-2-12.9ZM329.9,467.2l19.2,7,4.6-9.1,8.7-17.2-14.2-5.6v-21.2h0c0,0-.2,0-.2,0h-35l-.3,19-14.7,5.6,6.1,20,2.8,9,23.2-7.3ZM299.8,446.4l14.4-5.4.3-18.5h32v20.8l13.6,5.4-7.3,14.5-4.5,9-18.3-6.6-22.1,7-2.8-9.2-5.1-16.8ZM262.2,415.3l7.7-11.2-4.6-20.4-1.3.3c0,.1-.1.3-.2.4l4.4,19.3-7.8,11.4,7.1,15.5-4.3,6.4,1.3.9,4.8-7.2-7.1-15.5ZM272.7,398.4l7.5-9.2,4.7-5.7,11,4.2,12.9-18.9,3.8-5.6-8.8-4.9-1.8-1,.5-1.8,1.2-4.5-3.7-.9-3.4-.8c-.7.4-1.4.7-2.1,1.1l6.4,1.6.9.2-.3,1.1-1.3,4.9,4.8,2.7,5.3,3-2.3,3.4-12.7,18.6-10.9-4.2-5.7,6.9-5.4,6.6-3.8-10.9-2.3-6.6c-.4.6-.7,1.3-1,1.9l1.3,3.7,5.3,15.2ZM383.4,386.6l-.7-1.4-10.7,3.9-15.3-24.9,9.5-4.4-1.2-3.9,6.6-.2c-.7-.5-1.4-1-2.1-1.6l-6.6.2,1.4,4.5-9.9,4.6,17,27.5,10.6-3.9h0c0,.1,8.1,16,8.1,16l6.1-13c-.2-.7-.5-1.5-.8-2.2l-5.4,11.5-6.6-12.9ZM398.5,422l-11,17.4-7.9,12.5-13-2.9-11.1,20.3-3.1,5.7,2.7,2.7c.5-.2,1.1-.4,1.6-.7l-2.3-2.3,2-3.6,11-20.2,12.9,2.9,8.6-13.6,9.3-14.8c.3-1.8.6-3.7.8-5.5l-5.6-11,4.6-11.1c-.2-.9-.4-1.8-.6-2.7l-5.8,13.8,6.7,13.2ZM538.8,77c0-7.5-5.5-8.7-11.9-8.4v17.6c6.7.5,11.9-1.7,11.9-9.2ZM240.3,79.1l-8.3,15.4h16.7l-8.3-15.4ZM483.3,77c0-7.5-5.5-8.7-11.9-8.4v17.6c6.7.5,11.9-1.7,11.9-9.2ZM74.3,79.1l-8.3,15.4h16.7l-8.3-15.4ZM29.2,141.4h597.5V30.1H29.2v111.2ZM568.3,55.2h35.5l2.7,13.3h-22.7v10.9h16.2v13.3h-16.2v12.1h24.6l-3.8,13.3h-36.4v-62.9ZM511.3,55.2h17.7c14.7,0,25.4,5.1,25.4,19.4s-3.8,13.6-10.2,15.9l16.9,23.9-15.8,5-18.3-29.7h-.2v27.5l-15.6,1.5v-63.6ZM455.8,55.2h17.7c14.7,0,25.4,5.1,25.4,19.4s-3.8,13.6-10.2,15.9l16.9,23.9-15.8,5-18.3-29.7h-.2v27.5l-15.6,1.5v-63.6ZM406.8,55.2h35.5l2.7,13.3h-22.7v10.9h16.2v13.3h-16.2v12.1h24.6l-3.8,13.3h-36.4v-62.9ZM341.4,58.3l15.4-4.6,12.8,19.4,12.6-19.4,14.9,5.1-18.6,26.3,20.1,29.2-15.8,5.1-13.5-21.3-14.1,21.3-14.9-5.5,20.1-28.6-18.9-27.1ZM280.2,55.2l15.6-1.5v39.2c0,6.7,1.9,12.3,9.7,12.3s11.3-7,11.3-15.7v-34.4l15.6-1.5v42.5c0,14.7-11.4,23.3-27.2,23.3s-24.9-6.9-24.9-22.2v-42.2ZM240.3,53.8h.2l33.9,62.6-15.8,3.2-6.4-13.5h-23.9l-6.3,13.5-15.1-3.2,33.5-62.6ZM192.7,98.3l10.7,10.5-10.7,10.5-10.7-10.5,10.7-10.5ZM145.5,104.4c7.8,0,9.4-4,9.4-11.5v-37.7l15.6-1.5v42.2c0,14.2-7.7,23.6-22.3,23.6s-3.9,0-5.8-.6l-3.8-15.6c2.1.8,4.5,1.1,6.8,1.1ZM122.4,98.3l10.7,10.5-10.7,10.5-10.7-10.5,10.7-10.5ZM74.3,53.8h.2l33.9,62.6-15.8,3.2-6.4-13.5h-23.9l-6.3,13.5-15.1-3.2,33.5-62.6Z"/>
        <path class="cls-1" d="M637.6,651.8v-1c0,0,0-630.6,0-630.6H20.3v631.6c-.3,3.8,0,28.2,41.1,38.5,6.4,1.6,14.1,3.4,22.7,5.4,65.3,15.1,185.9,43,244.8,105.7,58.9-62.7,179.5-90.6,244.8-105.7,8.6-2,16.3-3.8,22.7-5.4,41.1-10.3,41.4-34.8,41.1-38.5h0ZM119.1,314l121.2,56.6c-5.9,12.6-9.2,26.6-9.2,41.4s3.3,28.8,9.2,41.4l-121.2,56.6,62.1-98-62.1-98ZM370.3,323.3c-12.6-5.9-26.6-9.2-41.4-9.2s-28.8,3.3-41.4,9.2l-56.6-121.2,98,62.1,98-62.1-56.6,121.2ZM408.9,412c0,12.1-2.7,23.6-7.5,33.9-7.9,17-21.7,30.7-38.7,38.7-10.3,4.8-21.7,7.5-33.9,7.5s-23.6-2.7-33.9-7.5c-17-7.9-30.7-21.7-38.7-38.7-4.8-10.3-7.5-21.8-7.5-33.9s2.7-23.6,7.5-33.8c7.9-17,21.7-30.7,38.7-38.7,10.3-4.8,21.8-7.5,33.9-7.5s23.6,2.7,33.9,7.5c17,7.9,30.7,21.7,38.7,38.7,4.8,10.3,7.5,21.7,7.5,33.8ZM328.9,559.8l-98,62.1,56.6-121.2c12.6,5.9,26.6,9.2,41.4,9.2s28.8-3.3,41.4-9.2l56.6,121.2-98-62.1ZM538.7,510l-121.2-56.6c5.9-12.6,9.2-26.6,9.2-41.4s-3.3-28.8-9.2-41.4l121.2-56.6-62.1,98,62.1,98ZM626.7,141.4H29.2V30.1h597.5v111.2ZM652.9,650.3V4.9H4.9v645.4s-4.2,40.7,52.7,55c56.9,14.2,215.7,42.7,271.3,120.3,55.6-77.6,214.4-106,271.3-120.3,56.9-14.2,52.7-55,52.7-55ZM598.4,698.2c-6.5,1.6-14.2,3.4-22.9,5.4-65.6,15.2-187.6,43.4-243.6,106.5l-3,3.3-3.5-3.8c-56.2-62.8-177.8-90.9-243.2-106-8.7-2-16.4-3.8-22.9-5.4-48.5-12.1-47.5-43.6-47.2-47.2h0s0-.7,0-.7V12.2h633.4v638.8s0,0,0,0c.3,3.6,1.3,35.1-47.2,47.2ZM328.9,274.6l-45.6-25.9,45.6,46.6,45.6-46.6-45.6,25.9ZM283.3,575.3l45.6-25.9,45.6,25.9-45.6-46.6-45.6,46.6ZM212.2,412l-46.6-45.6,25.9,45.6-25.9,45.6,46.6-45.6ZM445.6,412l46.6,45.6-25.9-45.6,25.9-45.6-46.6,45.6ZM350,366.9l-16.9,4.9-16.1-6.7-6,8.3-10.6,14.7,13.8,8.2.3,8.9.3,10.4h32.7l.7-12.8.2-3.8,16.8-7.9-14.7-24.6-.5.2ZM346.7,397.1v14.9h-30.1v-5.8c-.1,0-.3-11.4-.3-11.4l-12.9-6.8,8.6-12.4,5.3-7.7,15.8,5.8,15.5-4.9.2.3,12.4,21.3-14.5,6.5ZM329.9,465.5l18.3,6.6,4.5-9,7.3-14.5-13.6-5.4v-20.8h-32l-.3,18.5-14.4,5.4,5.1,16.8,2.8,9.2,22.1-7ZM302.1,448.2l11.6-3.6,2.9-.9v-19.4h27.8v20l13.3,4.9-5.9,11.9-4.2,8.5-18.7-5.8-20,6.8-2.9-9.4-3.9-12.9ZM360.2,344.9c-9.5-4.5-20.1-7-31.3-7s-21.8,2.5-31.3,7c-15.7,7.4-28.4,20.1-35.8,35.8-4.5,9.5-7,20.1-7,31.3s2.5,21.8,7,31.3c7.4,15.7,20.1,28.4,35.8,35.8,9.5,4.5,20.1,7,31.3,7s21.8-2.5,31.3-7c15.7-7.4,28.4-20.1,35.8-35.8,4.5-9.5,7-20.1,7-31.3s-2.5-21.8-7-31.3c-7.4-15.7-20.1-28.4-35.8-35.8ZM311.9,343.4c5.4-1.3,11.1-2.1,17-2.1,9.6,0,18.7,1.9,27,5.3l1.5,4.3,2.2,6.4-6.3,2.3-19.6,7.1-27.8-11.3,6-12ZM350,400.2v1.9c-.1,0-1,15.2-1,15.2h-35.8l-.4-12.8-.2-7.2-14.6-8.6,12.1-16.9,6.2-8.6,16.8,6.9,17.7-5.2h.4c0-.1,16.3,27.1,16.3,27.1l-17.5,8.3ZM380,391l14.9,31-9.8,16.2-5.4,9-27.2-8.4v-36.5l27.5-11.3ZM309.8,437.5l-30.1,8.4-4.3-9-10.6-22,17.9-24.4,2.5-3.4,24.2,12.3v3.6s.2,18,.2,18v16.6ZM287.7,354.6l-3.1,11.1-10.3,1.4c3.9-4.8,8.4-9,13.4-12.6ZM272.2,369.8l13.7-1.8,4.7-15.3c.4-.2.8-.5,1.1-.7l.7.2-5.3,17.3-16.2,2.2c.4-.6.8-1.2,1.3-1.8ZM288.8,371.3l5.5-18.7,4.9,1.3-1.6,5.2,9.3,5.8h0s0,0,0,0l-12.6,18.1-10.3-4.2-7.6,8.8-2.5,2.9-1.4-4.6-3.2-10.9,19.4-3.6ZM267.1,377.7l2.3,6.6,3.8,10.9,5.4-6.6,5.7-6.9,10.9,4.2,12.7-18.6,2.3-3.4-5.3-3-4.8-2.7,1.3-4.9.3-1.1-.9-.2-6.4-1.6c.7-.4,1.4-.8,2.1-1.1l3.4.8,3.7.9-1.2,4.5-.5,1.8,1.8,1,8.8,4.9-3.8,5.6-12.9,18.9-11-4.2-4.7,5.7-7.5,9.2-5.3-15.2-1.3-3.7c.3-.7.7-1.3,1-1.9ZM261.8,389.9l.8-1.2,3.2,13.6-7.6,9.6c0-7.7,1.3-15.1,3.5-22ZM261.6,433.6c-1.7-5.2-2.7-10.6-3.1-16.2l.6-1.2,5.8,12.6-3.3,4.8ZM263.2,437.1l4.3-6.4-7.1-15.5,7.8-11.4-4.4-19.3c0-.1.1-.3.2-.4l1.3-.3,4.6,20.4-7.7,11.2,7.1,15.5-4.8,7.2-1.3-.9ZM297.4,475.3c-13-6.5-23.7-16.8-30.6-29.5l2.9-4.6,6.8,12,15.2-2.3,7.4,23-1.7,1.5ZM302.8,477.7c-.5-.2-1-.4-1.5-.6l.5-1.4-1.1-3.3-8.2-24.2-13.8,3.2-7.5-12.5-.6-1-1.8,2.1-3.1,3.6c-.3-.5-.5-1-.8-1.6l.3-.3,5.6-6.5,1.8,3,6.8,11.3,14-3.3,8.2,23.9,1.9,5.5-.7,2ZM297.8,445.5l14.7-5.6.3-19h35.2v21.3l14.2,5.6-8.7,17.2-4.6,9.1-19.2-7-23.2,7.3-2.8-9-6.1-20ZM328.9,482.6c-8,0-15.7-1.3-22.8-3.8l23.8-8.6,21.2,8.9c-7,2.3-14.4,3.6-22.2,3.6ZM359.7,475.6l-1.7-1.3-.3-.2v-.2c.1,0,11-20.8,11-20.8l12.9,3.2,8.1-12,1.2,1.6c-7,12.8-18,23.3-31.2,29.7ZM399.5,411.7l-3.1-4.5,2.4-5.1c.4,3.1.7,6.4.7,9.6ZM398.1,397.7l-4.6,11.1,5.6,11c-.2,1.9-.5,3.7-.8,5.5l-9.3,14.8-8.6,13.6-12.9-2.9-11,20.2-2,3.6,2.3,2.3c-.5.2-1.1.4-1.6.7l-2.7-2.7,3.1-5.7,11.1-20.3,13,2.9,7.9-12.5,11-17.4-6.7-13.2,5.8-13.8c.2.9.4,1.8.6,2.7ZM396.1,390.2l-6.1,13-8.1-15.9h0c0-.1-10.6,3.8-10.6,3.8l-17-27.5,9.9-4.6-1.4-4.5,6.6-.2c.7.5,1.4,1,2.1,1.6l-6.6.2,1.2,3.9-9.5,4.4,15.3,24.9,10.7-3.9.7,1.4,6.6,12.9,5.4-11.5c.3.7.5,1.5.8,2.2ZM393.5,383.4l-4.1,10.2-4.5-7.7-2.3-3.9-10,3.2-12.6-19.7,9.4-4.2v-3.9l3.6,1,3.9,17.5,15.3,6.7,1.4.6c0,0,0,.2.1.2ZM392,380.3l-14.1-5.6-2.3-15.3h.4c.5.4,1,.8,1.5,1.3l2,12.9,11.5,4.5c.4.7.8,1.5,1.1,2.2ZM387.7,372.9l-5.1-1-.2-6c1.9,2.2,3.7,4.6,5.3,7ZM62.2,106.1h23.9l6.4,13.5,15.8-3.2-33.9-62.6h-.2l-33.5,62.6,15.1,3.2,6.3-13.5ZM74.3,79.1l8.3,15.4h-16.7l8.3-15.4ZM133.1,108.8l-10.7-10.5-10.7,10.5,10.7,10.5,10.7-10.5ZM148.2,119.6c14.6,0,22.3-9.4,22.3-23.6v-42.2l-15.6,1.5v37.7c0,7.5-1.7,11.5-9.4,11.5s-4.7-.3-6.8-1.1l3.8,15.6c1.8.6,3.8.6,5.8.6ZM203.4,108.8l-10.7-10.5-10.7,10.5,10.7,10.5,10.7-10.5ZM228.2,106.1h23.9l6.4,13.5,15.8-3.2-33.9-62.6h-.2l-33.5,62.6,15.1,3.2,6.3-13.5ZM240.3,79.1l8.3,15.4h-16.7l8.3-15.4ZM305.1,119.6c15.8,0,27.2-8.6,27.2-23.3v-42.5l-15.6,1.5v34.4c0,8.6-1.2,15.7-11.3,15.7s-9.7-5.6-9.7-12.3v-39.2l-15.6,1.5v42.2c0,15.3,10.3,22.2,24.9,22.2ZM355.1,119.6l14.1-21.3,13.5,21.3,15.8-5.1-20.1-29.2,18.6-26.3-14.9-5.1-12.6,19.4-12.8-19.4-15.4,4.6,18.9,27.1-20.1,28.6,14.9,5.5ZM447,104.8h-24.6v-12.1h16.2v-13.3h-16.2v-10.9h22.7l-2.7-13.3h-35.5v62.9h36.4l3.8-13.3ZM471.4,89.9h.2l18.3,29.7,15.8-5-16.9-23.9c6.4-2.4,10.2-9.4,10.2-15.9,0-14.3-10.7-19.4-25.4-19.4h-17.7v63.6l15.6-1.5v-27.5ZM471.4,68.5c6.4-.3,11.9.9,11.9,8.4s-5.2,9.6-11.9,9.2v-17.6ZM526.9,89.9h.2l18.3,29.7,15.8-5-16.9-23.9c6.4-2.4,10.2-9.4,10.2-15.9,0-14.3-10.7-19.4-25.4-19.4h-17.7v63.6l15.6-1.5v-27.5ZM526.9,68.5c6.4-.3,11.9.9,11.9,8.4s-5.2,9.6-11.9,9.2v-17.6ZM608.5,104.8h-24.6v-12.1h16.2v-13.3h-16.2v-10.9h22.7l-2.7-13.3h-35.5v62.9h36.4l3.8-13.3Z"/>
      </g>
    </g>
  </g>
</svg>