<?xml version="1.0" encoding="utf-8"?>
<!-- Generator: Adobe Illustrator 28.3.0, SVG Export Plug-In . SVG Version: 6.00 Build 0)  -->
<svg version="1.1" id="Calque_1" xmlns="http://www.w3.org/2000/svg" xmlns:xlink="http://www.w3.org/1999/xlink" x="0px" y="0px"
	 viewBox="0 0 566.9 566.9" style="enable-background:new 0 0 566.9 566.9;" xml:space="preserve">
<style type="text/css">
	.st0{fill:#0066B2;}
	.st1{fill:#FFFFFF;}
	.st2{fill:#DC052D;}
</style>
<g id="Ringe">
	<path class="st0" d="M283.5,0C126.9,0,0,126.9,0,283.5s126.9,283.5,283.5,283.5S566.9,440,566.9,283.5S440,0,283.5,0z"/>
	<path class="st1" d="M283.5,14.2c-148.7,0-269.3,120.6-269.3,269.3s120.6,269.3,269.3,269.3s269.3-120.6,269.3-269.3
		S432.2,14.2,283.5,14.2z"/>
	<path class="st2" d="M283.5,26.9c-141.7,0-256.5,114.9-256.5,256.5S141.8,540,283.5,540S540,425.1,540,283.5S425.1,26.9,283.5,26.9
		z M283.5,443.6c-88.5,0-160.2-71.7-160.2-160.2S195,123.3,283.5,123.3S443.6,195,443.6,283.5C443.6,371.9,371.9,443.6,283.5,443.6
		C283.5,443.6,283.5,443.6,283.5,443.6z"/>
</g>
<g>
	<path id="Rapport" class="st0" d="M142.6,327c6.5,21,17.6,40.3,32.5,56.4V317l-37.6-54.9C134.4,283.9,136.1,306,142.6,327
		 M218.5,379.6v-76.1l-43-62.8v-57.6c-7.9,8.6-14.8,18-20.5,28.2l20.2,29.5V317l43,62.8v35.8c10.5,5.2,21.5,9.1,32.9,11.7
		L218.5,379.6z M261.8,290.1l43,62.8V429l-43-62.8V290.1l-43-62.8v-76.1l43,62.8V290.1z M305.1,276.7l-43-62.8v-76.1l43,62.8V276.7
		l43,62.9v76.1l-43-62.8V276.7z M239.9,142.6c-21.2,6.5-40.7,17.8-56.9,32.9l35.5,51.9v76.1l43,62.8v62.9
		c44.5,6.7,89.6-7.3,122.5-37.9l-35.5-51.9v-76.1l-43-62.8v-62.9C283.5,134.4,261.1,136.1,239.9,142.6 M391.8,326.1v-76.1l-43-62.8
		v-35.8c-10.5-5.2-21.5-9.1-32.9-11.7l32.5,47.5v76.1l43,62.8v57.6c7.9-8.6,14.8-18,20.5-28.2L391.8,326.1z M424.3,239.9
		c-6.5-21-17.6-40.3-32.5-56.4V250l37.5,54.9C432.6,283.1,430.8,260.9,424.3,239.9"/>
</g>
<path id="Schrift" class="st1" d="M112,336.5l7.3,15.5l-11.8,22.4c-1.8,3.3-3.3,6-3.3,6l0.2,0.3c0,0,3.1,0.2,6.9,0.5l25.2,2.3
	l9,14.5l-54.5,31.8l-8.7-14l22.8-13.3c5.3-3.1,9.3-5.2,9.3-5.2l-0.2-0.3c0,0-2.8-0.2-8.5-1l-23.2-3.5l-0.2-0.3l9.7-21.4
	c2.4-5.3,3.8-7.7,3.8-7.7l-0.2-0.3c0,0-4,2.2-9.5,5l-23.6,11.8l-7-14.9L112,336.5z M153.7,405.2l12.6,11.2l-25.2,30
	c-4.1,5-3.9,10.2,2.3,15.1s11.4,3.9,15.3-1.3l23.3-31.5l13.8,9.6l-23.9,32.3c-10.9,14.8-25.1,11.9-37.4,2.3s-18.4-22.8-6.6-36.9
	L153.7,405.2z M178.9,425.7l-15.5,10.8l-0.3-0.2l6.9-17.6L178.9,425.7z M205.4,443.8l16.4,6l9.3,31.7c2,6.9,2.8,10.5,2.8,10.5
	l0.5,0.1c0,0,1.1-4.7,2.6-10.5l6.7-25.2l16,3.8l-16.3,61l-17-4.1L215.9,484c-2-6.4-2.9-10.5-2.9-10.5l-0.5-0.1c0,0-1.4,5-3.2,10.3
	l-8.6,25.7l-15.4-5.7L205.4,443.8z M328.2,498.4c0.4,15-9,25.2-26.9,26.5c-16.7,1.2-32.4-6.5-33.3-30.8c-0.9-24.7,12.8-34,28.8-35.1
	c17.4-1.2,27.5,8.5,29.2,21.7l-16.9,1.1c-1.5-5.7-4.6-9.1-12.1-8.6c-7,0.5-11.9,6.9-11.3,19.6c0.6,13.3,6.1,18.4,13.9,17.9
	s11.2-4.2,11.6-11.1L328.2,498.4z M332,454.8l15.7-6l8.9,21.2l19.6-8.9l-10.2-20.7l14.9-7.9l28,56.6l-14.9,7.9l-11.1-22.5l-20.5,9.3
	L372,507l-15.7,6L332,454.8L332,454.8z M390.6,425.2l30.2-29l9.7,9.5l-18.9,18.1l7.2,8l18.3-17.6l9.5,9.3l-19,18.2l7.9,8.8
	l21.3-20.5l9.7,9.5l-33.8,32.4L390.6,425.2z M428.4,387.3l8.6-15.1l32.8-3.8c7.1-0.8,10.8-1,10.8-1l0.2-0.5c0,0-4.4-1.9-9.8-4.4
	l-23.7-10.9l6.4-15.1l57.2,26.4l-6.9,16l-34.4,4.8c-6.7,0.9-10.8,1.1-10.8,1.1l-0.2,0.5c0,0,4.6,2.2,9.6,4.9l23.8,12.8l-8.2,14.3
	L428.4,387.3z M67.4,178.4l12.7,5l-10.1,28l11.8,3.9l9.5-26.2l12.3,4.9l-9.2,25.4l22.1,7.2l-4.8,16.1L51.3,223L67.4,178.4z
	 M144.8,136.7c10.9,9.9,12.8,23.4,1.9,37.2c-10,12.6-25.3,18.7-45.2,3.9c-19.6-14.5-17-31.7-6.6-44.9c11-13.9,25.1-15.1,36-7.3
	l-10.5,13.3c-5.1-2.9-9.9-2.6-14.7,3.5s-3.7,13.6,6.9,21.5c10.2,7.6,18.1,7.3,22.5,1.7c4.7-6,3.8-10.9-0.8-15.6L144.8,136.7z
	 M186.2,65.2c11.1-5.2,22.1-6.3,26.9,5.1c3.9,9.3,1.4,13.4-3.4,17.5l0.2,0.4c5.2-1.2,12.2-1,16.6,9.4c5.3,12.5-2.8,19.8-14,24.9
	l-23.6,10.9l-28.3-56.4L186.2,65.2z M195.7,88.1c4.4-2,5.6-4.1,3.9-8.3c-1.7-4.1-4.6-4.4-8.8-2.4l-9.4,4.3l5.3,10.5L195.7,88.1z
	 M206.4,111.2c4.8-2.2,6.1-4.1,4.1-8.9c-1.9-4.5-5.2-4.6-10.1-2.4l-8.1,3.8L198,115L206.4,111.2z M301.1,106.7h-17.9L278,95.4
	l-21.7,1.9l-3.1,12l-17.6,3.1l17.5-66l19.5-1.7L301.1,106.7z M273.1,83.2l-5.4-12.3c-1.9-4.2-3.3-7.9-3.3-7.9h-0.3
	c0,0-0.8,3.9-1.9,8.3l-3.2,13L273.1,83.2z M317,88.2l-14.7-44.8l18.9,3.6l5.7,19c1.1,3.6,2,7.5,2,7.5l0.3,0.1c0,0,2.5-3.1,5-6
	l13.1-14.9l18.7,4.6l-31.9,34.7l-4.9,20.9l-16.5-3.6L317,88.2z M378.7,62.7l39.7,21.8l-6.9,11.7L387,82.8l-4.9,9.6l22.6,12.4
	l-6.8,11.4l-21.9-12l-5.4,10.5l23.9,13.1l-6.9,11.7l-37.5-20.6L378.7,62.7z M440.4,101.6l19.3,20.6c9.9,10.5,12.2,20.7,0.5,31
	c-7.5,6.6-13,8.4-19.6,5.8l-10.1,25.4l-11.9-14.6l9.2-20.8l-5.5-5.9L407.5,158l-12.2-11.6L440.4,101.6z M431.7,133.9l6.5,7
	c3.6,3.9,6.7,4,10.7,0.4s3.9-6.9,0.3-10.7l-6.9-7.3L431.7,133.9z M456.3,242.6l-5.8-16.5l18.6-27.2c4-5.8,6.3-8.8,6.3-8.8l-0.2-0.5
	c0,0-4.3,2.1-9.8,4.6l-23.8,10.8l-7.2-14.8l57.5-26l7.6,15.7L480.7,209c-3.6,5.6-6.3,8.9-6.3,8.9l0.2,0.5c0,0,4.7-2,10-4.1l25.3-9.6
	l5.4,15.6L456.3,242.6z"/>
</svg>
