<?xml version="1.0" encoding="UTF-8"?>
<svg id="Calque_2" data-name="Calque 2" xmlns="http://www.w3.org/2000/svg" xmlns:xlink="http://www.w3.org/1999/xlink" viewBox="0 0 3493.62 3493.79">
  <defs>
    <style>
      .cls-1 {
        mask: url(#mask);
      }

      .cls-2, .cls-3 {
        fill-rule: evenodd;
      }

      .cls-2, .cls-4 {
        fill: #fff;
      }

      .cls-3 {
        fill: #00a851;
      }
    </style>
    <mask id="mask" x="0" y="0" width="3493.63" height="3493.79" maskUnits="userSpaceOnUse">
      <g id="celtic-b">
        <polygon id="celtic-a" class="cls-2" points="0 0 3493.61 0 3493.61 3493.79 0 3493.79 0 0"/>
      </g>
    </mask>
  </defs>
  <g id="Calque_1-2" data-name="Calque 1">
    <g>
      <circle class="cls-4" cx="1753.14" cy="1740.65" r="1733.67"/>
      <polygon class="cls-3" points="2357.61 1108.89 2363.14 1108.89 2363.14 1079.57 2357.61 1079.57 2357.61 1108.89"/>
      <path class="cls-3" d="M2654.89,1867.51c-135.69-109.85-347.68-52.3-494.55,3.7-55.71,14.83-133.97,51.76-176.49-9.49-16.93-27.73-13.02-57.64-3.86-87.34,20.58-48.11,65.24-51.93,109.89-57.52,193.09,29.7,433.05,50.24,563.15-105.91,59.45-70.87,79.99-174.89,59.45-267.77-26-96.5-124.44-165.44-200.77-212.07-117.21-38.7-135.78-182.08-237.87-247.27-100.4-63.06-238.07-68.57-340.32-7.23-152.37,105.95-89.15,308.57-87.14,468.34-2.01,63.35,7.35,139.6-37.3,187.83-16.76,11.17-37.14-1.89-42.85-16.84-70.62-161.49,16.8-388.31-87.38-535.22-33.36-74.52-74.11-146.87-145.02-197.11-135.53-40.84-262.06,46.55-336.42,141.32-81.75,185.9-371.75,148.59-416.37,373.64-18.61,89.23,0,182.16,61.38,245.38,170.98,182.32,444.22,42.64,665.61,80.07,18.49,8.91,46.34,31.47,40.71,59.2-3.7,31.76-22.23,54.02-44.66,70.95-213.63,117.04-509.34-100.53-669.1,107.55-44.74,59.57-70.66,134.05-53.94,210.09,18.61,150.61,193.33,193.58,275.13,297.56,40.88,70.66,87.3,154.18,141.24,204.51,85.62,74.4,215.76,109.48,330.92,74.4,154.35-108,102.21-360.87,70.62-518.91-9.28-27.61-1.93-61.05,18.77-77.93,24.12-14.87,59.24-16.64,74.19,13.02,31.55,133.76,0,282.48-13.06,416.49-23.99,77.93-37.01,176.49-113.26,219.17,74.28,9.53,161.66,13.19,230.27,11.34-53.65-195.3-14.71-420.23-7.19-622.89,11.01-18.45,25.92-46.34,53.98-29.74,31.51,14.83,35.08,46.46,36.85,76.33-14.54,124.48-59.4,262.14-12.86,384.82,46.46,107.68,161.78,154.18,277.02,146.75,109.69,5.63,174.85-70.66,225.01-159.97,79.95-130.11,256.48-135.49,330.88-284.33,35.21-105.87,55.79-275.21-44.66-354.91h0ZM2662.32,2021.77c-187.62,20.46-369.99,70.5-535.42,150.44-12.98-11.09-38.99-25.8-50.12-46.34,180.31-76.33,364.4-141.36,572.48-150.52l13.06,46.42ZM2628.8,1934.23c-200.77,24.2-395.78,78.14-576.22,161.99l-42.68-44.78c120.66-53.86,258.45-85.49,388.43-122.55l176.57-40.92c20.46,9.2,37.18,33.32,53.9,46.26h0ZM2110.3,1937.93c133.76-33.28,263.87-113.18,408.89-76.21-174.68,35.45-358.85,96.71-535.34,152.62-26.09-27.89-42.68-59.57-57.76-93.05,63.39-9.24,117.17,46.5,184.21,16.64h0ZM2039.52,1670.48c11.05-16.84,39.11-33.61,57.68-50.2,113.43,31.55,237.82,35.21,360.54,46.3-116.88,91.08-276.89-1.89-418.22,3.9h0ZM2511.71,1644.43c-78.01-20.42-167.2-14.91-247.27-31.59l-128.26-22.35,31.72-28.02c128.09,24.12,267.77,22.31,403.51,31.84-13.23,23.83-37.43,31.55-59.69,50.12h0ZM2608.46,1562.48c-137.71-3.66-273.44-14.87-405.27-33.52,39.15-61.29,118.93-5.46,178.38-22.06,100.4,7.23,189.84-13.11,284.45-20.5-9.45,29.54-33.4,55.67-57.56,76.08h0ZM2679,1443.5c-130.11,24.16-275.17,35.49-410.66,22.39,7.11-74.4,96.38-24.07,143.05-42.73,91.2-9.37,167.16-22.43,254.63-40.88,9.16,18.45,9.16,40.88,12.98,61.21h0ZM2653.04,1344.95c-104.14,29.78-215.64,40.88-328.99,44.7l29.83-57.8c90.83,0,187.7,2.01,267.53-29.54,16.84,5.79,24.32,27.89,31.63,42.64h0ZM2402.03,1110.82l102.21,70.7c-29.54,16.6-65.12,24.16-102.21,20.5v-91.2ZM2532.13,1205.68c29.95,12.86,50.2,37.1,70.62,66.76-70.62,22.39-150.52,26.13-228.58,20.54l16.68-48.23c48.27-7.52,104.23-5.63,141.28-39.07h0ZM2348.17,1081.03h3.78v-20.46h-3.78v20.46ZM2264.44,943.57c80.07,40.92,24.12,143.13,59.61,204.42-11.34,27.77-22.43,61.34-42.89,78.14-37.1-85.66-16.72-185.73-16.72-282.56h0ZM2167.9,897.11l59.4,20.38c0,113.51-20.5,243.49,29.78,342.13,0,22.23-22.18,40.71-33.48,55.63-48.56-122.51-57.84-269.5-55.71-418.13h0ZM2086.15,883.84l44.41,3.82c0,163.59,9.45,323.52,63.35,464.8-18.86,20.5-28.14,39.03-50.24,50.12-74.36-150.4-66.88-342.01-57.51-518.74h0ZM2047.04,883.84c-7.52,184.17-12.98,386.79,70.5,543.06-7.23,16.6-33.32,42.81-53.86,52.09-57.64-98.56-68.73-221.35-77.93-344.06l-5.75-224.8c20.58-15,41.04-24.32,67.05-26.29h0ZM1939.24,950.85c11.09,191.65,11.09,395.99,91.08,559.58l-44.57,26.33c-46.5-74.52-96.71-152.58-89.35-251.3-20.34-109.69-40.96-250.85,42.85-334.61h0ZM1952.18,1557.01l-68.85,39.03c-3.82-39.03,16.84-81.92,18.53-126.33l50.33,87.3ZM1695.62,1292.98c.53,4.19.53,8.59.37,12.9l3.45,171.07c-76.21-39.81-7.19-110.47-3.45-171.07l-.37-12.9ZM1617.73,993.78c29.58,57.47,44.45,120.82,61.13,181.99-22.23,67-22.23,143.25-40.88,213.87l-46.42-46.46,26.17-349.4ZM1584.04,934.21c-12.94,115.24-10.97,241.56-25.96,364.36l-53.98-50.2c3.94-144.98-3.66-278.78-5.38-418.22,42.81,14.87,70.46,66.96,85.33,104.06h0ZM1454.14,824.6c14.75,124.44,14.75,256.48,12.94,386.58-14.91-9.16-42.85-26-50.12-46.59,1.81-107.68-9.45-219.26-18.65-327.05,16.68-9.2,37.06-11.34,55.83-12.94h0ZM1361.13,850.73c9.33,96.42,20.34,200.52,20.34,293.49l-50.08-26.05-24.32-241.56c13.11-13.02,35.37-18.53,54.06-25.88h0ZM1269.88,904.59c13.15,57.56,16.76,126.41,24.24,189.63-83.64,16.6-50.04-72.8-77.97-117.41l53.74-72.22ZM1189.9,1027.13c3.98,14.87,5.87,29.78,7.52,44.49h-40.88l33.36-44.49ZM1082.22,1125.77l-173.08,72.35c48.31-44.62,115.4-48.35,173.08-72.35h0ZM888.89,1252.18c81.96-41,163.67-81.92,254.59-104.18,20.58,0,37.18,11.22,50.41,20.38-117.25,50.16-234.41,96.67-345.91,159.93-5.55-26.01,5.59-68.69,40.92-76.13h0ZM842.43,1378.39c122.63-81.75,258.41-131.71,394.26-183.88,22.1,9.2,35.08,18.69,53.78,33.44-152.5,59.45-301.26,135.74-438.76,228.95-11.17-22.76-9.28-54.31-9.28-78.51h0ZM868.39,1495.64c130.23-105.99,293.86-180.39,455.48-234.25,20.46,5.46,44.66,29.66,57.6,48.35-178.38,27.81-342.17,109.57-479.43,219.21l-33.65-33.32ZM929.64,1557.01c143.29-115.19,299.57-191.61,485.34-213.83,20.38,5.59,29.87,24.2,46.42,42.64-161.78,29.95-308.61,102.34-431.28,208.49-35.37-9.53-72.67-15.08-100.49-37.3h0ZM1080.37,1599.74c113.51-87.38,254.75-165.6,414.56-172.83l38.9,50.04v5.63c-115.07,9.53-223.08,50.2-314.07,113.47l-139.39,3.7ZM1316.51,1583.14c70.46-44.82,163.67-67.21,250.93-56l33.4,63.35v5.55c-87.46-28.02-187.66-20.46-284.33-12.9h0ZM1437.25,1830.04c-22.27,11.38-35.33,50.28-59.4,28.14l-27.81-20.54c27.81-7.6,61.25,0,87.22-7.6h0ZM1247.7,1828.36c14.87,42.85,79.86,24.24,109.69,59.61h3.74c-39.23,70.46-113.43-14.95-174.85-9.45-81.75-14.71-163.59-27.89-250.93-27.89,85.49-57.76,211.94-46.55,312.35-22.27h0ZM881.45,1887.97c143.09-5.67,284.45,14.83,412.67,59.24,1.97,11.22-11.09,16.76-16.68,24.2-135.65-24.2-291.97-38.86-431.28-12.98,0-27.81,20.25-53.78,35.29-70.46h0ZM926.11,1984.51c105.83-9.16,213.59,1.93,314.11,16.8,3.86,13.02-14.91,29.66-26.05,40.92-118.81-18.73-251.01-22.27-371.75-11.26-13.02-50.12,51.97-40.88,83.68-46.46h0ZM847.97,2071.81c107.8-14.83,234.25-16.64,338.31,3.66-5.63,59.69-51.97,18.69-89.23,22.43-81.71-9.33-165.44-1.68-232.32,33.61-9.33-16.88-18.57-35.29-16.76-59.69h0ZM1097.05,2335.93c-11.26,1.77-24.12-20.54-33.4-25.84,7.31-11.54,18.57-7.64,29.62-13.31,14.91,9.2,0,26.05,3.78,39.15h0ZM1031.94,2285.69c-21.94-9.28-25.88-28.02-50.12-37.14,35.13-16.8,76.25-22.31,120.95-18.57,22.27,51.93-55.99,18.57-70.83,55.71h0ZM946.69,2222.42l-57.8-53.78c66.88-44.74,169.18-42.77,250.81-26.17,7.6,18.65-14.67,31.51-16.72,50.28-59.32-3.7-126.2,0-176.28,29.66h0ZM1152.84,2402.97h3.7v-20.58h-3.7v20.58ZM1236.69,2527.33c-28.1-20.58-40.92-42.64-54.19-70.83,9.24-42.64,13.27-100.16-1.85-141.12l29.83-59.36c33.61,76.25,31.55,178.34,26.21,271.31h0ZM1310.76,2586.86c-83.44-18.69-9.24-104.14-37.01-159.97,0-77.97-7.48-143.13-33.52-211.98l37.22-52.01c40.96,126.45,46.42,288.4,33.32,423.97h0ZM1420.45,2610.97c-24.07,7.44-50,0-72.35-7.39,11.26-143.29,11.26-330.88-41.04-472.07l33.44-42.93,13.11,13.19c35.21,165.31,74.36,327.1,66.84,509.21h0ZM1457.67,2599.92c-1.77-189.63-26.09-373.68-83.56-541.09l37.18-37.06c57.6,174.64,79.86,364.32,96.75,555.76-14.91,11.3-29.83,26.05-50.37,22.39h0ZM1545.05,2536.49c-29.78-178.42-46.34-369.94-100.2-540.72l50.08-41c35.25,57.6,35.25,117.04,42.68,187.7,20.46,124.6,83.64,275.17,7.44,394.02h0ZM1554.38,2004.97c3.7-31.59-51.97-67.05-3.66-87.3,14.87-11.3,33.32-16.84,50.12-22.39,5.42,44.53-16.8,85.57-46.46,109.69h0ZM1939.24,2527.33c-102.17-104.06-3.66-243.58-5.71-364.44l18.65,18.61c-18.65,117.04-3.66,232.36-12.94,345.83h0ZM1979.99,2570.14c1.85-126.45-5.46-228.7,5.75-355.24l53.78,50.49c-5.46,115.03-3.74,232.4,11.05,341.76-29.54,1.93-46.22-22.14-70.58-37.01h0ZM2086.15,2623.91c-13.31-105.95-13.31-217.61-13.31-327.14,20.66,14.99,54.06,20.46,63.35,46.63,1.85,94.78,9.28,185.73,31.72,271.35-27.89,3.66-55.79,18.61-81.75,9.16h0ZM2201.26,2597.87c-24.12-74.32-26.21-161.53-24.12-241.52l74.48,33.52c-1.93,48.31-3.9,98.27,25.8,133.68-16.68,26.25-42.52,65.28-76.17,74.32h0ZM2303.63,2490.11c-20.66-14.87-15.08-65.07-16.76-92.8l83.56,1.73-66.8,91.08ZM1905.63,2088.57c-59.24-85.57-122.59-170.9-170.9-271.63-275.17,67.05-496.31,295.83-604.32,546.76-27.65-185.81,106.28-316.13,226.98-434.81,96.75-82.21,204.42-150.65,314.07-204.59-61.09-267.4-295.67-514.96-548.49-619.07,130.31-25.92,241.85,59.36,334.7,133.89l143.17,154.14c65.07,81.96,118.97,169.22,165.4,264.12,238.11-44.53,412.75-221.31,540.97-414.6,20.58-44.66,52.09-83.56,61.46-131.96,20.25,72.47-7.6,154.22-40.88,217.49-109.65,189.68-310.5,332.72-494.67,429.35,78.06,286.22,291.93,500.01,552.23,611.71-213.71,29.66-356.92-148.84-479.72-280.8h0ZM2452.23,2356.35c-33.36-5.46-66.88-11.05-94.74-25.96,66.84-57.68,161.7-72.72,250.97-87.38-42.81,46.34-102.21,81.59-156.24,113.35h0ZM2638.25,2202c-113.43,11.17-230.64,37.22-319.74,108.09-24.2-9.61-48.48-22.68-66.88-41.04,124.31-65.2,262.02-100.4,406.96-120.74,0,22.06-9.33,36.85-20.34,53.69h0ZM2666.02,2112.77c-159.77,20.58-312.14,55.87-447.88,133.8-18.73-12.98-52.38-29.74-57.8-50.16,156.24-74.36,325.29-115.28,505.68-133.89v50.24Z"/>
      <g class="cls-1">
        <path class="cls-3" d="M1746.73,0C783.52,0,0,783.76,0,1746.89s783.52,1746.89,1746.73,1746.89,1746.89-783.72,1746.89-1746.89S2709.98,0,1746.73,0M1746.73,3417.66c-921.31,0-1670.6-749.5-1670.6-1670.77S825.42,76.17,1746.73,76.17s1670.81,749.5,1670.81,1670.73-749.54,1670.77-1670.81,1670.77"/>
      </g>
      <path class="cls-3" d="M1746.73,138.57c-883.92,0-1603.06,719.06-1603.06,1603.06s719.14,1602.98,1603.06,1602.98,1602.86-719.31,1602.86-1602.98S2630.77,138.57,1746.73,138.57M1746.73,3328.48c-875.01,0-1586.76-711.99-1586.76-1586.84S871.72,154.68,1746.73,154.68s1587.08,711.91,1587.08,1586.96-712.28,1586.84-1587.08,1586.84"/>
      <path class="cls-3" d="M2962.66,1741.66c0-670.62-545.37-1216.11-1215.91-1216.11S530.76,1071.03,530.76,1741.66s545.57,1215.91,1215.99,1215.91,1215.91-545.41,1215.91-1215.91M1746.75,2941.7c-661.63,0-1199.64-538.42-1199.64-1200.05S1085.13,541.61,1746.75,541.61s1200.09,538.3,1200.09,1200.05-538.38,1200.05-1200.09,1200.05"/>
      <path class="cls-3" d="M1746.73,602.17c-628.27,0-1139.37,511.27-1139.37,1139.49s511.1,1139.21,1139.37,1139.21,1139.41-510.94,1139.41-1139.21-511.1-1139.49-1139.41-1139.49M1746.73,2842.95c-607.19,0-1101.37-494.01-1101.37-1101.29s494.18-1101.41,1101.37-1101.41,1101.33,494.22,1101.33,1101.41-493.93,1101.29-1101.33,1101.29M1441.04,3002.61l-6.86,32.25,43.38-17.91-43.79,216.01,33.52,6.7,51.02-252.74-28.72-5.92c-11.79,6.41-39.56,19.6-48.56,21.61M1702.02,3068.52c3.25-40.26-20.25-66.59-60.64-69.88-40.34-3.25-67.91,18.73-71.28,59.12-2.18,29.33,10.07,55.71,40.01,64.09v.21c-38.08.7-50.2,29.62-52.87,62.9-4.03,46.42,17.54,76.78,62.24,80.44,44.86,3.74,70.95-22.88,74.85-69.18,2.63-33.28-4.64-63.96-42.03-70.58v-.45c30.85-3.33,47.37-27.4,49.71-56.65M1659.87,3193.94c-1.6,22.02-12.49,45.03-38.04,42.77-25.35-1.93-32.41-26.21-30.77-48.81,1.93-22.6,7.07-52.22,39.03-49.63,31.67,2.88,31.88,32.45,29.78,55.67M1632.38,3108.9c-25.76-2.3-29.54-30.44-28.18-49.5,1.81-19.23,13.52-37.67,35.21-35.99,21.73,1.81,30.11,21.98,28.59,41.29-1.6,18.86-10.19,46.18-35.62,44.2M1844.96,3125.61v-.45c29.99-7.6,43.01-33.85,41.29-62.98-2.01-40.47-28.96-63.35-69.43-61.09-40.55,2.38-64.79,27.73-62.53,68.2,1.52,29.33,17.34,53.69,48.19,57.97v.53c-37.67,5.59-45.48,36.03-44,69.39,2.51,46.46,27.77,73.82,73.04,71.24,44.49-2.55,66.92-32.21,64.33-78.8-1.68-33.36-12.98-62.61-50.9-64.01M1788.23,3066.16c-.82-19.27,7.85-38.99,30.03-40.34,21.86-1.11,32.95,17.67,33.97,37.01.99,18.73-3.82,47.04-29.5,48.44-25.43,1.56-33.56-26-34.51-45.11M1829.88,3239.9c-25.88,1.31-35.86-21.86-37.22-44.25-1.23-22.97-.08-52.95,31.72-54.52,31.88-1.68,36.07,27.73,37.59,50.9,1.07,22.27-6.53,46.34-32.09,47.86M2036.15,3098.75v-.49c28.59-11.67,38.08-39.4,32.33-68.2-7.76-39.73-37.55-58.25-77.28-50.74-39.73,7.93-60.31,36.44-52.54,76.33,5.63,28.76,24.85,50.7,56.04,50.7v.45c-36.56,10.97-40.47,42.03-33.77,74.77,8.83,45.6,37.63,69.1,81.79,60.43,44-8.63,61.87-41.29,52.95-86.85-6.53-32.74-21.49-60.06-59.53-56.41M1971.98,3047.89c-3.66-18.94,2.51-39.89,23.99-44.2,21.57-4.23,35.17,13.06,38.9,31.96,3.53,18.65,2.79,46.96-22.39,52.13-25.27,4.77-36.77-21.28-40.51-39.89M2037.18,3213.94c-25.1,4.89-38.45-16.6-42.77-38.45-4.68-22.76-7.6-52.5,23.62-58.46,31.55-6.2,39.73,22.39,44.2,44.98,4.23,21.9,0,46.92-25.06,51.93"/>
      <polygon class="cls-3" points="242.44 1603.57 212.69 1602.54 206.95 1778.01 236.65 1779.12 238.95 1708.37 477.51 1716.01 478.62 1682.03 240.14 1674.14 242.44 1603.57"/>
      <polygon class="cls-3" points="244.44 1408.17 358.65 1429.7 341.16 1522.13 227.18 1500.68 220.78 1534.2 484.53 1583.99 490.9 1550.31 370.16 1527.64 387.69 1435.25 508.16 1457.96 514.6 1424.36 251.01 1374.69 244.44 1408.17"/>
      <polygon class="cls-3" points="576.92 1242.27 548.89 1232.04 513.06 1332.28 425.64 1301.23 458.05 1210.22 430.08 1200.13 397.63 1291.04 316.42 1262.19 351.4 1164.17 323.28 1154.02 276.93 1284.42 529.7 1374.36 576.92 1242.27"/>
      <path class="cls-3" d="M474.85,1049.28l64.7,39.73c88.57,54.39,117.21,11.87,134.91-16.51,9.04-14.87,40.67-65.98-32.45-109.11l-18.61,29.99c44.74,27.94,31.22,56.86,25.59,65.81-13.72,22.27-31.59,36.6-87.75,2.14l-61.09-37.75c-39.19-24.07-41.58-33.4-43.55-35.82-2.34-2.79-11.13-21.36,3.57-45.23,3.82-6.24,14.67-18.32,25.68-19.72,10.97-1.68,24.69,5.51,37.26,13.72l18.61-29.99c-42.52-30.11-76.78-27.24-104.51,17.99-27.73,45.19-26.83,84.96,37.63,124.77"/>
      <polygon class="cls-3" points="824.31 866.39 801.42 847.34 733.18 928.59 661.91 868.75 723.85 794.75 701.26 775.85 639.06 849.64 572.85 794.3 639.93 714.55 617.16 695.28 528.32 801.45 733.84 973.92 824.31 866.39"/>
      <polygon class="cls-3" points="948.66 751.42 928.44 729.67 855.84 795.93 694.98 620.09 669.43 643.14 850.68 840.99 948.66 751.42"/>
      <polygon class="cls-3" points="835.31 540.11 977.51 731.63 1005.08 711.3 862.6 519.64 919.66 477.5 901.76 453.72 760.84 558.27 778.51 582.05 835.31 540.11"/>
      <polygon class="cls-3" points="1120.53 637.06 984.66 405.39 955.38 422.61 1091.08 654.47 1120.53 637.06"/>
      <path class="cls-3" d="M1126.71,517.1c41.78,95.35,89.68,76.62,120.33,63.35,15.98-6.86,70.74-31.18,35.37-108.29l-32.33,14.3c20.91,48.31-6.74,64.29-16.27,68.57-24.07,10.68-46.96,12.04-73.58-48.19l-28.84-65.65c-18.53-42.31-15.16-51.15-15.16-54.35-.37-3.62,2.92-23.87,28.76-35.13,6.29-2.96,22.35-6.57,32-1.56,10.23,4.89,17.3,18.45,22.96,32.45l32.41-14.34c-17.91-48.81-47.66-65.81-96.26-44.29-48.56,21.16-70.33,54.31-39.85,123.9l30.44,69.22Z"/>
      <polygon class="cls-3" points="1458.87 504.89 1432.86 384.96 1524.4 365.36 1518.28 336.28 1426.63 355.87 1408.59 271.67 1505.21 250.96 1498.92 221.88 1368.85 249.67 1425.23 512.08 1458.87 504.89"/>
      <path class="cls-3" d="M1663.4,480.57c56.82-3.82,82.45-34.84,77.56-108.91l-5.67-88.04c-3.53-53.37-33.24-85.82-89.93-82.12-56.9,3.66-81.88,39.56-78.67,93.05l5.79,87.96c4.85,74.15,34.1,101.68,90.91,98.06M1647.21,230.13c10.89-.66,49.3-1.52,53.16,54.64l5.79,90.34c3.7,58.95-12.32,74.65-44.62,76.7-32.33,2.26-50.41-11.34-54.06-70.13l-5.83-90.46c-3.66-56.04,34.76-60.39,45.56-61.09M1878.12,484.58c56.65,6.04,87.05-20.29,94.74-94.49l9-87.67c5.34-53.2-18.36-90.05-74.81-96.17-56.53-5.67-87.59,25.59-93.01,78.8l-9.12,87.71c-7.56,73.78,16.6,105.99,73.21,111.83M1839.42,377.89l9.45-90.42c5.55-55.63,44.45-53.65,55.17-52.59,10.8,1.23,49.09,7.03,43.22,62.81l-9.41,90.26c-5.96,58.42-24.73,71.48-56.61,68.28-32.25-3.37-47.66-19.97-41.82-78.34"/>
      <polygon class="cls-3" points="2041.34 506.45 2074.65 514.71 2132.58 283.37 2201.27 300.79 2208.63 271.7 2038.42 228.97 2031.23 257.7 2099.68 275.15 2041.34 506.45"/>
      <path class="cls-3" d="M2249.44,575.65c28.02,11.83,76.78,25.39,103.61-37.92,14.46-33.97,8.01-61.75-25.27-80.77l.53-1.81c35.04,6.37,54.23-9.45,67.33-40.38,2.14-4.85,7.07-20.05,3.82-37.06-3.04-17.67-9.9-34.06-44.12-48.56l-80.32-34.14-105.01,246.7,79.41,33.93ZM2294.8,335.61l44.66,18.86c26.25,11.13,30.81,32.99,21.98,53.57-10.19,23.7-28.63,33.81-53.32,23.62l-45.89-19.47,32.58-76.58ZM2284.16,453.92c32.13,13.6,53.45,30.65,36.73,70.04-7.52,18.12-29.83,37.1-63.31,22.84l-44.29-18.9,37.22-88.33,33.65,14.34ZM2372.06,634.25l51.76-42.68,86.85,56.04-18.45,64.05,32.29,20.99,71.89-272.99-36.48-23.42-216.63,179.28,28.76,18.73ZM2559.73,473.66l.74.21-41.41,143.79-72.22-46.42,112.89-97.57Z"/>
      <polygon class="cls-3" points="2642.61 839 2662.29 816.15 2587.97 751.66 2745.31 572.04 2719.44 549.58 2542.78 751.44 2642.61 839"/>
      <polygon class="cls-3" points="2751.5 961.63 2773.73 941.97 2708.65 868.36 2887.24 710.07 2864.72 684.18 2663.57 862.24 2751.5 961.63"/>
      <path class="cls-3" d="M2846.46,1118.44c8.87,14.95,38.7,66.72,111.33,23.29l-17.62-30.77c-45.52,25.92-64.42.58-69.8-8.55-13.15-22.84-17.25-45.4,39.73-78.18l62.08-36.03c40.01-23.01,49.3-20.62,52.22-20.91,3.86-.94,24.07,0,38.29,24.53,3.66,6.24,8.96,21.36,4.97,31.72-3.82,10.52-16.43,19.19-29.87,26.37l17.87,30.77c46.59-23.17,60.27-54.84,33.65-100.77-26.37-45.77-61.87-63.8-127.48-26.29l-65.57,38.21c-90.13,51.93-66.35,97.57-49.79,126.62"/>
      <polygon class="cls-3" points="2954.32 1340.93 2982 1329.79 2944.91 1238.43 3166.22 1149.23 3153.29 1117.56 2904.53 1218.13 2954.32 1340.93"/>
      <path class="cls-3" d="M3096.02,1502.59l165.48-39.89-7.97-33.03-166.92,40.22c-57.31,13.56-75.76-.21-83.36-31.76-7.6-31.47,2.63-52.34,60.02-66.1l166.75-39.89-7.97-33.4-165.52,39.73c-72.3,17.46-94.28,51.11-81.05,106.28,13.19,55.21,48.23,75.1,120.53,57.84M3275.73,1558.41l-267.65,18.08,5.79,85.86c1.81,30.52,11.91,80.19,80.4,75.55,36.85-2.34,58.67-20.46,60.51-59.03l1.77-.29c10.35,33.97,33.28,44.08,66.8,41.78,5.09-.29,20.95-2.79,34.55-13.23,14.46-10.85,26.33-24.4,23.62-61.29l-5.79-87.42ZM3092.05,1703.02c-19.6,1.44-46.55-9.9-48.85-46.18l-3.2-48.44,95.56-6.24,2.55,36.4c2.3,34.88-3.2,61.79-46.05,64.46h0ZM3213.98,1686.71c-26.05,1.93-43.18-10.07-45.48-36.85l-3.08-49.59,83.03-5.51,3.08,48.23c1.97,28.43-15.24,42.19-37.55,43.71h0ZM1248.81,3002.99c-19.6,0-76.21-2.42-117.41-10.93-28.26-53.32-30.24-119.96-70.99-152.7-46.22-37.06-89.93,4.44-121.81-22.51-41.74-35.41,3.66-75.39-23.01-97.53-26.79-22.43-58.17,29.21-100.24-5.51-32.25-26.33.9-76.78-43.88-115.93-39.52-34.26-105.25-24.36-163.1-42.6-15.73-39.07-27.85-94-31.43-113.67-3.33-19.35-30.28-51.23-58.34-48.56,21.08,69.02,43.14,142.68,20.83,202.9-11.95,32.29-16.6,45.72-11.95,49.5,4.85,3.82,130.35-38.37,190.91,12.45,37.18,31.39,34.02,77.11,23.79,91.12-10.27,14.21-36.89,42.36-22.55,54.11,25.35,20.83,33.19-10.39,92.72,39.6,59.73,49.71,30.44,63.06,55.34,84.22,14.26,11.95,37.18-19.35,49.26-31.72,12-12.78,56.53-24.28,93.75,6.94,60.92,50.53,41.86,181.58,46.34,185.81,4.56,3.98,16.93-2.88,46.3-20.46,55.75-32.87,131.91-24.12,203.69-15.98-2.46-27.73-38.41-48.97-58.21-48.56M2909.12,2448.14c-3.49,19.51-16.15,74.65-32.5,113.47-57.84,17.95-123.45,7.31-163.26,41.12-45.11,38.62-12.45,89.31-44.9,115.65-42.56,34.3-73.21-17.79-100.28,4.31-26.79,22.23,18.24,62.57-23.87,97.45-32.04,26.7-75.51-15.41-122.1,21.36-41,32.45-43.55,98.84-72.3,152.17-41.37,8.22-97.69,9.94-117.49,9.82-19.97-.21-55.95,20.34-58.79,47.98,71.89-7.48,148.35-15.41,203.32,17.79,29.46,17.95,41.74,24.98,46.26,20.99,4.64-3.98-13.15-135.41,48.15-185.36,37.71-30.81,81.88-19.02,93.91-6.24,12,12.61,34.63,43.96,48.81,32.09,25.1-20.54-4.15-34.26,56.28-83.6,60.19-49.63,67.66-18.16,93.01-38.7,14.54-11.75-11.87-40.1-22.1-53.94-10.19-14.58-12.98-60.31,24.53-91.41,60.92-50,186.31-6.98,191.16-10.6,4.89-3.86.12-17.09-11.54-49.54-21.77-60.64.86-133.93,22.27-202.95-27.61-2.71-54.89,28.63-58.54,48.15"/>
    </g>
  </g>
</svg>