<?xml version="1.0" encoding="UTF-8"?>
<svg id="Calque_2" data-name="Calque 2" xmlns="http://www.w3.org/2000/svg" xmlns:xlink="http://www.w3.org/1999/xlink" viewBox="0 0 736.83 736.83">
  <defs>
    <style>
      .cls-1 {
        fill: #b90e1d;
      }

      .cls-1, .cls-2, .cls-3, .cls-4 {
        stroke-width: 0px;
      }

      .cls-2 {
        fill: #004a99;
      }

      .cls-3 {
        fill: url(#Dégradé_sans_nom);
        fill-rule: evenodd;
      }

      .cls-4 {
        fill: #fff;
      }
    </style>
    <linearGradient id="Dégradé_sans_nom" data-name="Dégradé sans nom" x1="54.18" y1="319.39" x2="669.24" y2="788.72" gradientTransform="translate(0 927.55) scale(1 -1)" gradientUnits="userSpaceOnUse">
      <stop offset="0" stop-color="#d8c893"/>
      <stop offset=".25" stop-color="#8e8562"/>
      <stop offset=".56" stop-color="#aca077"/>
      <stop offset="1" stop-color="#d8c893"/>
    </linearGradient>
  </defs>
  <g id="Calque_1-2" data-name="Calque 1">
    <path class="cls-3" d="M736.32,349.48l-1.4-18.62-2.36-18.42-3.25-18.11-4.14-17.79-4.97-17.47-5.8-17.08-6.63-16.7-7.4-16.32-8.16-15.87-8.92-15.43-9.56-14.98-10.33-14.41-10.9-13.96-11.6-13.39-12.24-12.75-12.81-12.24-13.39-11.6-13.9-10.97-14.47-10.26-14.92-9.63-15.43-8.86-15.87-8.16-16.32-7.4-16.7-6.63-17.15-5.8-17.4-4.97-17.85-4.14-18.11-3.25-18.36-2.36-18.68-1.4-18.87-.51-18.87.51-18.68,1.4-18.42,2.36-18.11,3.25-17.79,4.14-17.47,4.97-17.08,5.8-16.7,6.63-16.32,7.4-15.87,8.16-15.43,8.86-14.98,9.63-14.41,10.26-13.96,10.97-13.39,11.6-12.75,12.24-12.24,12.75-11.6,13.39-10.97,13.96-10.26,14.41-9.63,14.98-8.86,15.43-8.16,15.87-7.4,16.32-6.63,16.7-5.8,17.08-4.97,17.47-4.14,17.79-3.25,18.11-2.36,18.42-1.47,18.62-.45,18.93.45,18.87,1.47,18.68,2.36,18.36,3.25,18.11,4.14,17.85,4.97,17.4,5.8,17.15,6.63,16.7,7.4,16.32,8.16,15.87,8.86,15.43,9.63,14.92,10.26,14.47,10.97,13.9,11.6,13.39,12.24,12.81,12.75,12.18,13.39,11.6,13.96,10.96,14.41,10.33,14.98,9.56,15.43,8.92,15.87,8.16,16.32,7.4,16.7,6.63,17.08,5.8,17.47,4.97,17.79,4.14,18.11,3.25,18.42,2.36,18.62,1.4,18.93.51,18.87-.51,18.68-1.4,18.36-2.36,18.11-3.25,17.85-4.14,17.4-4.97,17.15-5.8,16.7-6.63,16.32-7.4,15.87-8.16,15.43-8.92,14.92-9.56,14.47-10.33,13.9-10.96,13.39-11.54,12.81-12.24,12.24-12.81,11.6-13.39,10.9-13.9,10.33-14.47,9.56-14.92,8.92-15.43,8.16-15.87,7.4-16.32,6.63-16.7,5.8-17.15,4.97-17.4,4.14-17.85,3.25-18.11,2.36-18.36,1.4-18.68.51-18.87-.51-18.93Z"/>
    <path class="cls-2" d="M505.92,512.3l-.77-2.81-.89-2.68-1.02-2.68-1.15-2.55-1.28-2.55-1.4-2.42-1.53-2.36-1.59-2.3-1.72-2.17-1.78-2.1-1.91-2.04-1.98-1.91-2.1-1.85-2.17-1.72-2.3-1.59-2.29-1.53-2.42-1.4-2.42-1.28-2.55-1.15-2.61-1.02-2.61-.89-2.74-.83-2.74-.64-2.81-.51-2.81-.32-2.87-.25-2.93-.06-3,.06-3,.25-2.93.32-2.87.51-2.81.64-2.74.83-2.74.89-2.61,1.02-2.61,1.15-2.49,1.34-2.42,1.34-2.36,1.53-2.3,1.66-2.17,1.72-2.1,1.79-2.04,1.91-1.91,2.04-1.85,2.1-1.72,2.23-1.59,2.3-1.53,2.3-1.4,2.49-1.27,2.49-1.15,2.55-1.08,2.68-.89,2.68-.77,2.81-.64,2.81-.51,2.87-.38,2.93-.26,2.93-.06,3,.06,2.93.26,2.87.38,2.87.51,2.81.64,2.74.77,2.68.89,2.68,1.02,2.61,1.21,2.49,1.27,2.49,1.4,2.42,1.47,2.3,1.66,2.23,1.72,2.17,1.78,2.1,1.98,1.98,1.98,1.91,2.1,1.85,2.23,1.72,2.3,1.59,2.36,1.47,2.42,1.4,2.49,1.27,2.61,1.15,2.61,1.08,2.74.89,2.74.77,2.81.64,2.87.51,2.93.38,3,.26,3,.06,2.93-.06,2.87-.26,2.81-.38,2.81-.51,2.74-.64,2.74-.77,2.61-.89,2.61-1.02,2.55-1.21,2.49-1.27,2.36-1.34,2.36-1.53,2.23-1.59,2.17-1.72,2.1-1.78,1.98-1.91,1.91-2.04,1.78-2.04,1.72-2.17,1.66-2.3,1.47-2.3,1.4-2.42,1.28-2.49,1.15-2.49,1.02-2.61.89-2.68.83-2.68.64-2.74.51-2.81.32-2.87.25-2.87.06-2.93-.06-3-.25-2.93-.32-2.93-.51-2.87-.7-2.81Z"/>
    <path class="cls-2" d="M719.1,350.88l-1.34-17.72-2.23-17.53-3.12-17.21-3.95-16.96-4.72-16.64-5.55-16.26-6.31-15.94-7.01-15.49-7.78-15.11-8.48-14.73-9.12-14.22-9.82-13.77-10.45-13.26-11.03-12.75-7.2-7.59-21.23,21.23-21.8,21.8-65.98,65.98h62.48v329.4h29.26v64.77l.64-.57,12.18-11.6,11.67-12.24,11.03-12.75,10.45-13.26,9.82-13.71,9.12-14.28,8.48-14.66,7.78-15.17,7.01-15.49,6.31-15.94,5.55-16.26,4.72-16.64,3.95-16.89,3.12-17.28,2.23-17.47,1.34-17.79.45-17.98-.45-18.04Z"/>
    <path class="cls-2" d="M510.96,631.89l-1.59.89-1.85,1.02-1.91.96-1.91.96-1.91.96-1.98.83-1.98.89-1.98.83-1.98.76-2.04.77-2.04.7-2.04.7-2.1.64-2.1.64-2.1.57-2.1.51-2.1.51-2.17.51-2.17.38-2.17.38-2.23.38-2.17.32-2.23.26-2.23.25-2.23.19-2.3.13-2.23.13-2.3.06h-2.36l-6.18-.13-6.12-.51-6.06-.77-5.99-1.08-5.87-1.4-5.74-1.66-5.61-1.91-5.55-2.17-5.35-2.42-5.29-2.74-5.04-2.93-4.97-3.19-4.78-3.38-4.59-3.63-4.4-3.83-4.21-4.02-4.08-4.27-3.83-4.4-3.63-4.59-3.38-4.78-3.19-4.91-2.93-5.1-2.68-5.23-2.49-5.42-2.17-5.48-1.91-5.67-1.66-5.74-1.4-5.86-1.08-5.99-.77-6.06-.45-6.12-.19-6.25.19-6.18.45-6.18.77-6.06,1.08-5.93,1.4-5.87,1.66-5.8,1.91-5.61,2.17-5.55,2.49-5.36,2.68-5.23,2.93-5.1,3.19-4.91,3.38-4.78,3.63-4.65,3.83-4.4,4.08-4.21,4.21-4.02,4.4-3.83,4.59-3.63,4.78-3.44,4.97-3.12,5.04-3,5.29-2.68,5.35-2.42,5.55-2.23,5.61-1.91,5.74-1.66,5.87-1.34,5.99-1.08,6.06-.83,6.12-.45,6.18-.13h2.36l2.23.06,2.3.06,2.23.19,2.23.13,2.23.26,2.23.25,2.23.25,2.17.38,2.17.32,2.17.45,2.17.45,2.1.45,2.1.51,2.1.57,2.1.57,2.1.64,2.04.7,2.04.64,2.04.77,1.98.77,1.98.83,1.98.83,1.98.89,1.91.89,1.91.89,1.34.7v-115.45h-62.99l-131.71,131.71-21.87,21.8-121.7,121.76-21.87,21.8-21.17,21.23,7.52,7.2,12.75,11.09,13.26,10.39,13.77,9.82,14.28,9.18,14.66,8.41,15.11,7.78,15.56,7.08,15.87,6.31,16.32,5.48,16.64,4.78,16.89,3.89,17.28,3.12,17.47,2.23,17.79,1.34,17.98.51,18.04-.51,17.72-1.34,17.53-2.23,17.21-3.12,16.96-3.89,16.64-4.78,16.26-5.48,15.94-6.31,15.49-7.08,15.11-7.78,14.73-8.41,14.22-9.18,13.77-9.82,13.26-10.39,8.29-7.2h-87.27l-1.66-.32Z"/>
    <path class="cls-1" d="M604.23,109.4l-12.75-11.03-.89-.7v40.16l21.23-21.23-7.59-7.2Z"/>
    <path class="cls-1" d="M404.37,19.83l-17.72-1.34-18.04-.45-17.98.45-17.79,1.34-17.47,2.23-12.37,2.23v122.59h131.26V24.29l-12.37-2.23-17.53-2.23Z"/>
    <path class="cls-1" d="M132.98,109.4l-12.18,11.6-11.67,12.24-11.03,12.75-.7.89h49.21v-49.21l-.89.7-12.75,11.03Z"/>
    <path class="cls-1" d="M290.19,159.63h-130.75v130.75h130.75v-130.75Z"/>
    <path class="cls-1" d="M447.02,234.66h46.73l75.03-75.03h-121.76v75.03Z"/>
    <path class="cls-1" d="M303.01,425.41l122.21-122.21h-122.21v122.21Z"/>
    <path class="cls-1" d="M21.87,315.57l-2.23,17.53-1.34,17.72-.51,18.04.51,17.98,1.34,17.79,2.23,17.47,2.23,12.37h122.53v-131.26H24.1l-2.23,12.37Z"/>
    <path class="cls-1" d="M159.44,568.97l121.76-121.7h-121.76v121.7Z"/>
    <path class="cls-1" d="M98.11,591.67l11.03,12.75,7.27,7.59,21.23-21.17h-40.23l.7.83Z"/>
    <path class="cls-4" d="M577.77,87.78l-13.32-9.5-14.28-9.18-14.66-8.48-15.11-7.78-15.55-7.01-15.87-6.31-16.32-5.55-16.58-4.72-9.05-2.1v119.85h130.75v-59.22Z"/>
    <path class="cls-4" d="M28.88,456.45l4.72,16.57,5.55,16.32,6.31,15.87,7.01,15.56,7.78,15.11,8.48,14.73,9.12,14.22,9.56,13.32h59.22v-130.75H26.77l2.1,9.05Z"/>
    <path class="cls-4" d="M290.19,303.39h-130.75v131.26h130.75v-131.26Z"/>
    <path class="cls-4" d="M434.2,247.61v-87.78h-131.2v130.75h131.2v-42.97Z"/>
    <path class="cls-4" d="M77.84,173.15l-9.12,14.22-8.48,14.73-7.78,15.11-7.01,15.55-6.31,15.87-5.55,16.32-4.72,16.58-2.1,9.05h119.85v-130.75h-59.22l-9.56,13.32Z"/>
    <path class="cls-4" d="M264.56,33.98l-16.32,5.55-15.87,6.31-15.56,7.01-15.11,7.78-14.73,8.48-14.22,9.18-13.32,9.5v59.22h130.75V27.16l-9.05,2.1-16.58,4.72Z"/>
    <path class="cls-4" d="M562.6,574.13V246.3h-115.58v44.27h69.23v145.73l-8.22-5.16-13.77-7.2-14.79-5.23-15.75-3.12-14.41-.89-5.74.13-5.61.45-5.55.7-5.42.96-10.58,2.74-5.16,1.78-9.95,4.21-9.44,5.16-8.86,5.99-8.22,6.82-7.52,7.59-6.82,8.22-5.99,8.86-5.16,9.44-4.21,9.95-3.25,10.39-1.27,5.36-.96,5.42-.7,5.55-.45,5.61-.13,5.67.13,5.67.45,5.61.7,5.48.96,5.42,1.27,5.36,1.53,5.23,3.76,10.2,4.72,9.69,5.61,9.18,6.44,8.54,7.2,7.91,7.9,7.2,8.54,6.44,9.18,5.61,9.69,4.72,10.2,3.76,5.23,1.53,5.36,1.21,5.42.96,5.55.7,5.61.45,5.67.13,14.34-.96,15.75-3.25,14.79-5.36,21.99-12.43v6.18h75.61v-46.79h-29.26l-.06.06ZM516.82,533.08l-1.02,6.69-1.72,6.5-2.3,6.25-2.87,5.93-3.44,5.61-3.89,5.23-4.4,4.84-4.84,4.4-5.23,3.95-5.61,3.44-5.93,2.87-6.25,2.3-6.5,1.72-6.69,1.02-6.89.38-7.08-.32-6.82-1.02-6.63-1.66-6.31-2.3-6.06-2.87-5.67-3.38-5.29-3.89-4.91-4.4-4.46-4.84-3.95-5.23-3.44-5.61-2.87-5.93-2.3-6.25-1.72-6.5-1.02-6.69-.38-6.89.32-7.08,1.02-6.82,1.66-6.63,2.3-6.31,2.87-5.99,3.44-5.67,3.95-5.29,4.46-4.91,4.84-4.46,5.29-3.95,5.67-3.44,5.99-2.87,6.31-2.3,6.63-1.72,6.82-1.02,7.08-.38,6.89.38,6.69,1.02,6.5,1.66,6.25,2.3,5.93,2.87,5.61,3.44,5.23,3.95,4.84,4.46,4.4,4.84,3.95,5.29,3.44,5.67,2.87,5.99,2.3,6.31,1.72,6.63,1.02,6.82.38,7.08-.32,6.88.13-.13Z"/>
  </g>
</svg>