<?xml version="1.0" encoding="UTF-8"?>
<svg id="Calque_2" data-name="Calque 2" xmlns="http://www.w3.org/2000/svg" viewBox="0 0 632.79 991.99">
  <defs>
    <style>
      .cls-1 {
        fill: #db9e4d;
      }

      .cls-1, .cls-2, .cls-3, .cls-4 {
        stroke-width: 0px;
      }

      .cls-2, .cls-4 {
        fill: red;
      }

      .cls-3 {
        fill: #fff;
      }

      .cls-4 {
        fill-rule: evenodd;
      }
    </style>
  </defs>
  <g id="Calque_1-2" data-name="Calque 1">
    <g>
      <path class="cls-1" d="M0,246.92h632.79v254.2c-1.17,47.66-7.68,95.5-20.95,141.38-26.92,93.62-83.01,174.33-153.49,240.46-43.66,41.15-92.33,75.47-141.94,109.02-49.61-33.56-98.29-67.87-141.96-109.02-70.45-66.13-126.57-146.84-153.49-240.46C7.68,596.63,1.18,548.78,0,501.13v-254.21Z"/>
      <path class="cls-1" d="M316.45,113.45l46.35,34.45-17.35-56.25,45.88-35.06-56.94-.34L316.45,0l-18.05,56.25-56.92.34,45.87,35.06-17.25,56.25,46.35-34.45Z"/>
      <path class="cls-1" d="M162.4,188.46l-46.34,34.45,17.35-56.24-45.87-35.05,56.94-.35,17.92-56.26,18.04,56.26,56.96.35-45.85,35.05,17.21,56.24-46.35-34.45Z"/>
      <path class="cls-1" d="M516.74,222.91l-46.35-34.45-46.35,34.45,17.25-56.24-45.86-35.05,56.91-.35,18.05-56.26,17.94,56.26,56.95.35-45.88,35.05,17.34,56.24Z"/>
      <path class="cls-3" d="M18.19,265.16h596.47v235.51c-1.18,46.11-7.48,92.33-20.29,136.81-26.08,90.73-80.22,168.17-148.48,232.34-39.94,37.62-84.07,69.53-129.47,100.15-45.42-30.62-89.56-62.53-129.51-100.15-68.22-64.17-122.39-141.62-148.48-232.34-12.78-44.48-19.1-90.69-20.25-136.81v-235.51Z"/>
      <path class="cls-4" d="M596.33,283.36H36.46v216.85c1.15,47.5,7.79,91.64,19.57,132.38,25.27,87.94,77.07,161.64,143.35,223.97,36.19,34.13,75.81,63.69,117.03,91.51,41.2-27.82,80.79-57.39,117.02-91.51,66.26-62.33,118.08-136.03,143.34-223.97,11.78-40.74,18.4-84.88,19.56-132.38v-216.85ZM54.59,499.89v-198.25h523.45l-202.74,157.1,184.82,1.29-148.84,113.39,56.61,184.04-151.5-112.61-151.52,112.61,56.6-184.04-132.39,98.68c-5.93-14.47-11.2-29.26-15.64-44.49-11.26-39.27-17.69-81.87-18.86-127.72Z"/>
      <path class="cls-2" d="M122.51,407.64v-34.25c-6.63,0-11.42,1.52-14.34,4.64-2.92,3.05-4.41,7.1-4.41,13.32,0,11.62,6.28,16.3,18.75,16.3ZM137.89,407.64c4.06,0,7.68-.7,10.59-2.12,2.9-1.38,5.02-3.36,6.28-5.81,1.27-2.32,1.87-4.79,1.87-9.44,0-11.64-6.29-16.88-18.74-16.88v34.25ZM137.89,422.42v9.41h-15.38v-9.41c-11.65-.48-20.72-4.09-27.03-10.5-10.72-10.94-9.9-32.49,1.07-43.54,5.44-5.48,14.07-8.61,25.96-9.09v-8.01h15.38v8.01c12.32.47,20.95,3.72,26.19,9.44,10.12,10.69,11.41,30.17,2.32,41.33-6.18,7.69-15.83,11.88-28.51,12.36Z"/>
      <path class="cls-2" d="M186.57,431.83v-75.56h15.25v30.38l29.34-30.38h21.09l-32.02,31.8,32.25,43.76h-20.29l-23.18-33.15-7.19,7.09v26.07h-15.25Z"/>
      <path class="cls-2" d="M316.4,625.28l-122.39,90.93,45.75-148.58-120.97-92.27,150.19-1.03,47.43-148.23,47.4,148.23,150.19,1.03-120.97,92.27,45.79,148.58-122.41-90.93Z"/>
    </g>
  </g>
</svg>