<?xml version="1.0" encoding="utf-8"?>
<!-- Generator: Adobe Illustrator 28.2.0, SVG Export Plug-In . SVG Version: 6.00 Build 0)  -->
<svg version="1.1" id="svg28696" xmlns:svg="http://www.w3.org/2000/svg"
	 xmlns="http://www.w3.org/2000/svg" xmlns:xlink="http://www.w3.org/1999/xlink" x="0px" y="0px" viewBox="0 0 690.8 877.7"
	 style="enable-background:new 0 0 690.8 877.7;" xml:space="preserve">
<style type="text/css">
	.st0{fill:#BA8C58;}
	.st1{fill:#009DDC;}
</style>
<g id="g28705" transform="matrix(1.25,0,0,-1.25,-0.2974505,1049.086)">
	<g id="g29203" transform="matrix(10.468844,0,0,10.468844,-3382.0173,-6326.1103)">
		<g>
			<g id="g29205">
				<g>
					<g id="g29211">
						<g>
							<g id="g29217">
								<path id="path29223" class="st0" d="M350.2,679.2h3.5l-2.8-2l1.1-3.3l-2.8,2l-2.8-2l1,3.3l-2.8,2h3.5l1.1,3.3L350.2,679.2"
									/>
								<path id="path29225" class="st1" d="M334,625.8c-1.3,0.2-3.2,0.8-8.9,0l-0.3,0.6c1.3,0.9,3.7,3,5.4,6.6
									c2.1,5.8,9,23.1,9,30.1c0,0.1,0,0.1,0,0.2c-0.1,1.9-1,4.7-1.9,6.4c-0.3,0.4-0.6,0.9-0.9,1.3c0,0-0.1,0.1-0.1,0.1l0,0
									c-0.5,0.6-1,1-1.4,1.3l0.3,0.8c1.6-0.7,4.9-2.3,6.9-4.1c1,0.9,2.8,1.8,4.2,2.3l0.3-0.6c-0.2-0.2-0.2-0.2-0.3-0.4l0,0l0,0
									c-1.2-1.7-1.6-3.3-1.6-4.9c0-1.5,0.3-2.9,0.6-4.2c0,0,0.3-1.1,0.3-1.2c0,0,3.2-12.9,3.7-15c0.5,2,3.7,14.9,3.7,15
									c0,0,0.3,1.2,0.3,1.2c0.3,1.3,0.6,2.7,0.6,4.2c0,1.6-0.4,3.3-1.6,4.9l0,0l0,0c-0.1,0.2-0.1,0.2-0.3,0.4l0.3,0.6
									c1.4-0.4,3.2-1.4,4.2-2.3c2,1.8,5.3,3.4,6.9,4.1l0.3-0.8c-0.4-0.3-0.9-0.7-1.4-1.3l0,0c0,0-0.1-0.1-0.1-0.1
									c-0.3-0.4-0.6-0.8-0.9-1.3c-1-1.7-1.8-4.5-1.9-6.4c0-0.1,0-0.1,0-0.2c0-7,7-24.4,9.1-30.1c1.7-3.7,4.1-5.7,5.4-6.6l-0.3-0.6
									c-5.7,0.8-7.7,0.2-8.9,0L356,650c-0.5-2-1.7-6.3-1.7-6.2l-0.2-1.1c-0.2-1.1-0.4-1.9-0.4-2.7c0-1.2,0.4-2.2,1.8-3.7l-0.2-0.7
									c-0.7-0.4-2-0.8-2.9-0.9c-0.3-1.4-1.9-3.6-3.1-4.5c-1.2,1-2.8,3.1-3.1,4.5c-0.9,0-2.2,0.4-2.9,0.9l-0.2,0.7
									c1.4,1.4,1.8,2.5,1.8,3.7c0,0.8-0.2,1.7-0.4,2.7l-0.2,1.1c0,0-1.1,4.2-1.7,6.2L334,625.8"/>
								<path id="path29227" class="st1" d="M349.2,667.5c-13,0-23.6-9.2-23.6-20.5c0-11.3,10.6-20.5,23.6-20.5
									c13,0,23.6,9.2,23.6,20.5C372.8,658.3,362.2,667.5,349.2,667.5z M349.2,628.5c-9.8,0-17.8,8.3-17.8,18.5s8,18.5,17.8,18.5
									c9.8,0,17.8-8.3,17.8-18.5S359,628.5,349.2,628.5"/>
								<path id="path29229" class="st0" d="M327.3,620.5c0-1-0.3-1.2-0.7-1.2h-0.5v2.2h0.4C327,621.5,327.3,621.4,327.3,620.5z
									 M328.9,620.5c0,0.8-0.3,1.3-0.9,1.6c-0.5,0.2-1,0.2-1.4,0.2h-2v-3.8h2.1c0.8,0,1.2,0.2,1.6,0.5
									C328.8,619.4,328.9,619.9,328.9,620.5"/>
								<path id="path29231" class="st0" d="M331.5,621.5c0.5,0,0.7-0.1,0.7-0.4c0-0.3-0.2-0.4-0.7-0.4h-0.4v0.8H331.5z
									 M334.1,618.5c-0.2,0.3-0.7,1-0.9,1.2c-0.1,0.2-0.4,0.4-0.6,0.4c0.7,0.1,1.2,0.4,1.2,1.1c0,0.6-0.5,1.1-2.2,1.1h-2v-3.8h1.5
									v1.5c0.3,0,0.4,0,0.7-0.4l0.6-1.1H334.1"/>
								<path id="path29233" class="st0" d="M336.8,619.2c-0.6,0-1,0.2-1,1.2c0,0.7,0.3,1.2,0.9,1.2c0.6,0,0.9-0.2,0.9-1.2
									C337.7,619.4,337.4,619.2,336.8,619.2z M336.8,618.4c2,0,2.5,1,2.5,2.1c0,0.8-0.6,1.8-2.5,1.8c-1.5,0-2.6-0.7-2.6-2
									C334.2,619.2,335.1,618.4,336.8,618.4"/>
								<path id="path29235" class="st0" d="M340.1,622.3h1.5v-3.8h-1.5V622.3z"/>
								<path id="path29237" class="st0" d="M346.2,621.5h-1.3v-3h-1.5v3h-1.3v0.8h4.3L346.2,621.5"/>
								<path id="path29239" class="st0" d="M350.7,620H350l0.2,0.6c0.1,0.3,0.1,0.5,0.2,0.6c0-0.1,0-0.4,0.1-0.5L350.7,620z
									 M352.9,618.5l-1.7,3.8h-1.5l-1.8-3.8h1.5l0.3,0.7h1.3l0.3-0.7H352.9"/>
								<path id="path29241" class="st0" d="M357.4,619.7c0-0.3,0-0.5-0.1-0.6c-0.2-0.3-0.9-0.6-2-0.6c-0.9,0-1.5,0.2-1.9,0.5
									c-0.2,0.2-0.3,0.3-0.3,0.8v2.6h1.5v-2.5c0-0.3,0.2-0.6,0.7-0.6c0.5,0,0.7,0.2,0.7,0.6v2.5h1.5V619.7"/>
								<path id="path29243" class="st0" d="M362.2,621.5c0.3,0,0.5-0.1,0.5-0.3c0-0.2-0.1-0.4-0.5-0.4h-0.6v0.7H362.2z
									 M364.4,619.7c0,0.5-0.5,0.7-1,0.8c0.6,0.1,0.8,0.5,0.8,0.8c0,0.7-0.7,0.9-1.5,0.9h-2.5v-3.8h2.3
									C363.8,618.5,364.4,619,364.4,619.7z M362.7,619.7c0-0.2-0.2-0.4-0.5-0.4h-0.6v0.7h0.5C362.6,620.1,362.7,619.9,362.7,619.7
									"/>
								<path id="path29245" class="st0" d="M369.3,619.7c0-0.3,0-0.5-0.1-0.6c-0.2-0.3-0.9-0.6-2-0.6c-0.9,0-1.5,0.2-1.9,0.5
									c-0.2,0.2-0.3,0.3-0.3,0.8v2.6h1.5v-2.5c0-0.3,0.2-0.6,0.7-0.6c0.5,0,0.7,0.2,0.7,0.6v2.5h1.5V619.7"/>
								<path id="path29247" class="st0" d="M374,621.5h-1.3v-3h-1.5v3h-1.3v0.8h4.3L374,621.5"/>
							</g>
						</g>
					</g>
				</g>
			</g>
		</g>
	</g>
</g>
</svg>
