<?xml version="1.0" encoding="utf-8"?>
<!-- Generator: Adobe Illustrator 28.3.0, SVG Export Plug-In . SVG Version: 6.00 Build 0)  -->
<svg version="1.1"
	 id="svg3725" xmlns:dc="http://purl.org/dc/elements/1.1/" xmlns:cc="http://creativecommons.org/ns#" xmlns:rdf="http://www.w3.org/1999/02/22-rdf-syntax-ns#" xmlns:svg="http://www.w3.org/2000/svg"
	 xmlns="http://www.w3.org/2000/svg" xmlns:xlink="http://www.w3.org/1999/xlink" x="0px" y="0px" viewBox="0 0 600 600"
	 style="enable-background:new 0 0 600 600;" xml:space="preserve">
<style type="text/css">
	.st0{fill:url(#path620_00000013912479623582292330000009183525624813445291_);}
	.st1{fill:#FFFFFF;}
	.st2{fill:#C2A24E;}
	.st3{fill:url(#path636_00000179630605269284270180000007620076357059930762_);}
</style>
<radialGradient id="path620_00000158004324145488166110000000801280516741963656_" cx="-76.7486" cy="905.176" r="300" gradientTransform="matrix(1.1354 1.1268 1.0165 -1.0243 -666.7941 1165.9994)" gradientUnits="userSpaceOnUse">
	<stop  offset="0" style="stop-color:#2277B6"/>
	<stop  offset="0.1045" style="stop-color:#4086C2"/>
	<stop  offset="0.2238" style="stop-color:#1B73B3"/>
	<stop  offset="0.5395" style="stop-color:#124783"/>
	<stop  offset="0.7836" style="stop-color:#003E73"/>
	<stop  offset="1" style="stop-color:#002448"/>
</radialGradient>
<path id="path620" style="fill:url(#path620_00000158004324145488166110000000801280516741963656_);" d="M300,0
	C134.6,0,0,134.6,0,300c0,165.4,134.6,300,300,300s300-134.6,300-300C600,134.6,465.4,0,300,0"/>
<g id="g4046">
	<g id="g2166">
		<path id="path624" class="st1" d="M401.4,72.4c-4.4-2-8.7-3.7-13.2-5.5l-26.5,63.6c4.5,1.7,8.9,3.5,13.2,5.5L401.4,72.4z"/>
		<path id="path626" class="st1" d="M298.7,63.5h25.6c6.3,0,11.4,5.1,11.4,11.4c0,6.3-5.1,11.4-11.4,11.4h-25.6V63.5z M298.7,98.4
			h17.5l15,23.8c6,1.1,11.8,2.5,17.6,4.1l-18.1-28.8c10.4-2.8,18.9-11.9,18.9-22.7c0-13-12.3-23.6-25.3-23.6h-39.6v68.6
			c4.6-0.4,9.2-0.6,13.9-0.6h0L298.7,98.4z"/>
		<path id="path628" class="st1" d="M132.7,131l18.8-20.6c4.2-4.6,11.5-5,16.1-0.7c4.6,4.2,5,11.4,0.7,16l-18.8,20.6L132.7,131z
			 M174.1,168.7l-15.6-14.2l19.3-21.3c8.8-9.6,8.8-25-0.9-33.8c-9.6-8.8-25.2-7.5-34,2l-28.7,31.6l50,45.6
			C167.4,175.2,170.7,171.9,174.1,168.7"/>
		<path id="path630" class="st1" d="M435.3,111c10.3-2.4,29.3,16.4,32.9,29.2c3-2.3,9.7-7.2,9.7-7.2c-8-22.8-39.9-45.6-55.1-31.3
			c-9,8.5-3.9,21.6,4,29.8l7.6,8c7.8,8.2,14.5,16.3,8.3,21.5c-6.6,5.5-25.3-8.3-36.5-32l-10,7.6c2.4,6.2,7.8,15.2,15,22.9
			c8.2,8.6,17.2,14.3,25.2,15.9c6.3,1.2,12.6,0.3,16.7-3.5c10.3-9.6,6.6-23.6-9.7-40.6l-6.7-7.1C429.3,116.1,432.4,111.7,435.3,111"
			/>
		<path id="path632" class="st1" d="M220.6,77.9l19.4,22.2c-7,2-13.9,4.5-20.6,7.2 M223.5,62.7c-4.9,1.5-9.7,3.3-14.5,5.1l-5.2,78.1
			c4.6-2.8,9.4-5.5,14.3-7.9l0.7-18.2c9.4-4.2,19.2-7.6,29.4-10.3l12,13.8c5.3-1.1,10.6-2,16.1-2.7L223.5,62.7z"/>
	</g>
	<g id="g1655" transform="matrix(0.54747258,0,0,0.54747191,-344.1913,-9.7906825)">
		<g>
			<path id="path468" class="st1" d="M882.6,867.9l5.5,5.2l16.2-7.9l16.3,14.2l-5.2,17.6l6.2,4.8l14.8-51.9l-5.8-5.1L882.6,867.9z
				 M911.3,861.9l16.6-8.1l-5.1,18.1L911.3,861.9z"/>
		</g>
		<g>
			<path id="path490" class="st1" d="M936.4,912.5l5.8,3.9l26.9-41.8l-5.8-3.9L936.4,912.5z"/>
		</g>
		<g>
			<path id="path512" class="st1" d="M961.6,928.9l5.9,3.5l17.2-33.6l0.1,0.1l8.4,47.2l6.1,2.8l22.3-43.6l-6.1-3.3l-17,33.1
				l-0.1-0.1l-8.3-46.7l-6.1-3.3L961.6,928.9z"/>
		</g>
		<g>
			<path id="path534" class="st1" d="M1032.5,917.8l15.9,5.7l-13.6,40.1l6.5,2.3l13.7-40.2l15.9,5.7l2.3-6.7l-38.3-13.7
				L1032.5,917.8z"/>
		</g>
		<g>
			<path id="path556" class="st1" d="M1153,963.2c-0.3,16.7,13,25.9,25.8,26.2c12,0.2,21.6-5.6,21.7-14.4l0.2-13.1l-22-0.4l-0.1,7.1
				l15.1,0.2l-0.1,5.5c-0.1,4.2-6.1,8-14.4,7.9c-12.2-0.2-19.5-9-19.3-18.6c0.2-10.3,7.7-18.7,20.4-18.5c8.7,0.2,12.3,4.7,14.7,7.1
				l4.9-5c-2.8-2.8-8.7-9.1-20.1-9.3c-0.2,0-0.3,0-0.5,0C1164.1,938,1153.2,949.3,1153,963.2"/>
		</g>
		<g>
			<path id="path578" class="st1" d="M1214.6,937.5l6.8,48.7l40.1-5.9l-1-7l-33.3,4.9l-2.1-14.9l16.2-2.4l-1-7l-16.2,2.4l-1.8-12.8
				l32.1-4.7l-1-7L1214.6,937.5z"/>
		</g>
		<g>
			<path id="path600" class="st1" d="M1297.1,919.3l-27.1,8.4l13.8,47.1l6.6-1.9l-5.8-19.8l17.1-5.3l14.9,16.8l7.2-2.7l-15-16.6
				c3.8-1.5,9.5-6.8,6.5-17c-2.1-7.2-7.2-9.9-12.7-9.9C1300.9,918.4,1299,918.8,1297.1,919.3 M1278.6,932.4l20.5-6.3
				c3.8-1.2,8.2-1.1,9.8,4.3c1.3,4.6-0.7,8.1-5.7,9.6l-20.5,6.3L1278.6,932.4z"/>
		</g>
		<g>
			<path id="path622-9" class="st1" d="M1394.7,868.2l10.1,52.9l6.2-4l-3.4-17.8l17.5-12.7l14.9,9.3l6-4.9l-45-27.3L1394.7,868.2z
				 M1402.7,873.2l15.8,9.5l-12.3,9L1402.7,873.2z"/>
		</g>
		<g>
			<path id="path644-5" class="st1" d="M1426,844l32.7,36l5.2-4.7l-32.8-36.1L1426,844z"/>
		</g>
		<g>
			<path id="path666-2" class="st1" d="M1469.2,798.1l27.1,25l-0.1,0.1l-46.2-3.3l-4.6,5.3l35.8,33l4.9-5.1l-27.5-25.3l0.1-0.1
				l46.7,3.3l4.1-5.3l-35.7-32.9L1469.2,798.1z"/>
		</g>
		<g>
			<path id="path688" class="st1" d="M1362.6,889.3l-1,34.9l-28.2-19.6l-6.2,3.2l21,44.3l6.3-2.9l-14.5-31.5l0.1-0.1l27.9,19.4
				l1.1-34.5l0.1-0.1l16.3,30.6l6-3.5l-22.7-43.5L1362.6,889.3z"/>
		</g>
		<g>
			<path id="path710" class="st1" d="M866.8,795.1c-2.3,1.7-3.6,4-4,6.8c-0.6,4.4,1.1,9.9,4.6,14.8l5.1,7c4,5.4,7.8,11.1,7,15.6
				c-0.3,1.8-1.3,3.3-3,4.3c-0.9,0.6-1.9,0.9-3.1,0.9c-6.9,0-18.7-12.7-24.5-30.9l-0.1-0.3l-5.1,4.9l-0.1,0.1l0,0.1
				c1.1,4.5,4.1,11.9,9.2,18.9c5.3,7.3,11.4,12.4,17.1,14.2c1.8,0.6,3.6,0.9,5.4,0.9c2.5,0,4.7-0.7,6.4-1.9c2.8-2.1,4.4-4.7,4.9-7.9
				c0.9-5.8-2.2-13.5-8.9-22.8l-4.5-6.2c-3.6-4.9-3.5-8.2-2.7-10c0.7-1.6,2.1-2.7,3.8-2.9c0.3,0,0.5,0,0.8,0
				c8.2,0,19.9,14,22.9,24.9l0.1,0.3l0.2-0.1c1.7-1,3.7-2.2,4.9-2.9l0.2-0.1l0-0.2c-3.9-15-18.8-29.7-30-29.7
				C871,792.9,868.7,793.6,866.8,795.1"/>
		</g>
		<g>
			<path id="path732" class="st1" d="M1097.4,959.7l17.1,3.9l1.5-7l-17.1-3.9L1097.4,959.7z"/>
		</g>
	</g>
</g>
<path id="path2403" class="st1" d="M300,21.4C146.2,21.4,21.4,146.2,21.4,300c0,0,0,0,0,0c0,153.8,124.7,278.6,278.5,278.6
	c0,0,0,0,0,0c153.8,0,278.6-124.7,278.6-278.5c0,0,0,0,0,0C578.6,146.2,453.8,21.4,300,21.4C300,21.4,300,21.4,300,21.4z M300,32.5
	c147.7,0,267.5,119.8,267.5,267.5c0,0,0,0,0,0c0,147.8-119.8,267.5-267.5,267.5c0,0,0,0,0,0C152.3,567.5,32.5,447.8,32.5,300
	c0,0,0,0,0,0C32.5,152.3,152.2,32.5,300,32.5C300,32.5,300,32.5,300,32.5z"/>
<g id="g4055" transform="matrix(0.9999969,0,0,1.0000028,0.21088935,-1.0106078)">
	<g id="g2178" transform="translate(0.39761279)">
		<path id="path642" class="st2" d="M305.2,429.7l-5.5-6.3l-5.5,6.3l-0.2,0.6c1.1,2.2,2.9,4.8,5.2,6.6l0.5,0.3l0.5-0.3
			c2.3-1.8,4.1-4.5,5.2-6.6L305.2,429.7"/>
		<path id="path644" class="st2" d="M310.5,395.3c0-6.3-8.2-25.8-10.7-25.8l-0.6,0.3c-3,2.4-10,19.7-10,25.5c0,4.7,9.4,17,9.4,23.7
			l0,0l1.2,1.2l1.2-1.2v0C301.1,412.2,310.5,400,310.5,395.3"/>
		<path id="path646" class="st2" d="M294.5,418.4c-4.4-11.7-12-18-20-18c-6,0-10.9,4.9-10.9,10.9s5.8,9.9,10.9,10.9
			c1.6,0.3,3.5-0.7,4.6-1.9c0.9-1,1.8-2.7,1.1-3.9c-0.2-0.4-1,0-1.4-0.3c-1.5-0.8-3.6-1.9-3.6-3.6c0-1.7,1.9-3.5,3.6-3.6
			c5.7-0.3,9.9,3.4,13.3,10.7v0l0,0l1.2,0.7l1.3-1.4L294.5,418.4"/>
		<path id="path648" class="st2" d="M324.7,400.3c-7.9,0-15.6,6.4-20,18l-0.1,0.5l1.3,1.4l1.2-0.7l0,0l0,0
			c3.4-7.3,7.6-11.1,13.3-10.8c1.7,0.1,3.6,1.9,3.6,3.6c0,1.7-2.1,2.8-3.6,3.6c-0.4,0.2-1.2-0.1-1.4,0.3c-0.7,1.2,0.2,2.9,1.1,3.9
			c1.1,1.2,3,2.2,4.6,1.9c5-1,10.9-4.9,10.9-10.9S330.7,400.3,324.7,400.3"/>
	</g>
	<path id="path2691" class="st1" d="M299.8,136.7c-90.7,0-164.3,73.5-164.3,164.3c0,0,0,0,0,0c0,90.7,73.5,164.3,164.3,164.3
		c0,0,0,0,0,0c90.7,0,164.3-73.5,164.3-164.3C464.1,210.3,390.5,136.7,299.8,136.7z M278.1,149.3c-7,97.7-47.9,169.9-115,220.3
		c-10.8-21.3-16.5-44.8-16.6-68.6C146.6,224.8,202.6,160.1,278.1,149.3z M321.5,149.3C397,160.1,453,224.8,453,301
		c-0.1,23.9-5.8,47.4-16.6,68.6C369.4,319.3,328.5,247,321.5,149.3z M299.8,349.9c35.8,0,64.8,27.9,64.8,62.2
		c0,9.6-2.3,21.1-6.3,30.2c-18.5,7.8-38.4,11.8-58.5,11.9c-20.1-0.1-40-4.1-58.5-11.9c-4.1-9.1-6.4-20.6-6.4-30.2
		C235,377.7,264,349.9,299.8,349.9z"/>
	
		<linearGradient id="path636_00000109723317337334392890000017622101844691819938_" gradientUnits="userSpaceOnUse" x1="35.5411" y1="718.5406" x2="145.4585" y2="916.2146" gradientTransform="matrix(1.25 0 0 1.25 165.0374 -691.5129)">
		<stop  offset="0" style="stop-color:#DD4B44"/>
		<stop  offset="0.2033" style="stop-color:#DE5448"/>
		<stop  offset="0.3452" style="stop-color:#DB3D39"/>
		<stop  offset="0.4852" style="stop-color:#CC2C2E"/>
		<stop  offset="0.7492" style="stop-color:#AE2826"/>
		<stop  offset="1" style="stop-color:#8A211B"/>
	</linearGradient>
	<path id="path636" style="fill:url(#path636_00000109723317337334392890000017622101844691819938_);" d="M299.8,147.8
		c-4.7,0.1-9.4,0.4-14,0.9c-1.2,57.7-15.3,107.6-39.2,149.4h53.2H353c-23.8-41.8-38-91.7-39.2-149.4
		C309.2,148.2,304.5,147.9,299.8,147.8z M243.1,304.1c-18.6,30.8-43.3,57.9-71.2,80.7c12.2,18.7,28.3,34.5,47.3,46.2
		c-0.7-4-1.1-8-1.1-12.1c0-42.2,36.6-76.4,81.8-76.4s81.8,34.2,81.8,76.4c0,4.1-0.4,8.2-1.1,12.1c18.9-11.8,35-27.6,47.2-46.2
		c-27.9-22.7-52.7-49.9-71.2-80.7h-56.7H243.1z"/>
</g>
</svg>
