<?xml version="1.0" encoding="UTF-8"?>
<svg id="Calque_2" data-name="Calque 2" xmlns="http://www.w3.org/2000/svg" viewBox="0 0 13155.36 10733.42">
  <defs>
    <style>
      .cls-1 {
        fill: none;
      }

      .cls-2 {
        fill: #ed1c24;
      }

      .cls-3 {
        fill: #bb9753;
      }

      .cls-4 {
        fill: #fff;
      }
    </style>
  </defs>
  <g id="Calque_1-2" data-name="Calque 1">
    <rect class="cls-1" width="13155.36" height="10733.42"/>
    <g>
      <path class="cls-4" d="M6576.44,10733.42C2950.1,10733.42,0,8676.26,0,6147.65S2950.28,1561.71,6576.61,1561.71s6578.75,2057.16,6578.75,4585.76-2951.34,4585.94-6578.93,4585.94Z"/>
      <path class="cls-2" d="M6578.21,2763.8c-1127.6,0-2174.31,217.59-3039.87,589.13h6081.7c-865.56-371.54-1912.81-589.13-3041.83-589.13ZM6578.21,9529.73c1148.4,0,2212.17-225.06,3086.27-608.33H3493.72c874.1,383.45,1937.52,608.51,3084.49,608.33ZM2205.95,8125.7h91.73l15.47,29.69,42.31-29.69h8597.15c279.63-242.83,508.96-509.67,678.73-794.99H1526.87c169.95,285.14,399.45,552.15,679.08,794.99ZM11931.95,5739.67H1226.26c-25.6,133.68-39.11,269.86-39.11,407.98,0,130.84,12.27,259.9,35.38,387.01h10712.97c23.11-127.11,35.38-256.17,35.38-387.18,0-137.95-13.51-274.12-39.11-407.81h.18ZM10929.85,4148.63H2228.71c-283.37,242.48-516.42,509.49-689.75,794.99h10080.47c-173.15-285.5-406.2-552.51-689.39-794.99h-.18Z"/>
      <path class="cls-3" d="M196.97,6147.65c0-2424.79,2856.59-4390.22,6380.89-4390.22s6383.2,1965.25,6383.2,4390.04-2859.26,4390.39-6383.38,4390.39S196.97,8570.84,196.97,6147.65ZM6577.68,9529.73c2970.9,0,5374.53-1515.14,5374.53-3382.26s-2403.81-3383.5-5374.35-3383.5S1204.57,4278.93,1204.57,6147.65s2406.3,3382.26,5373.29,3382.08h-.18Z"/>
      <path class="cls-4" d="M2321.33,8175.66c777.57-553.93,1311.06-1365.28,1549.62-2542.12,244.61-1206.7,115.2-2369.86,44.26-2832.77l8884.07,3123.42L2360.79,8168.55"/>
      <path class="cls-4" d="M12284.64,5208.67c-56.35,20.98-102.93,62.57-131.37,116.8-25.95,49.95-32.53,107.02-18.67,164.97l18.84,69.51c10.31,31.82,17.95,73.24,26.31,117.15,2.31,11.91,4.44,23.82,6.93,35.73,1.78,10.49,3.91,20.8,6.04,31.11,3.56,17.78,6.93,34.67,9.24,51.02l16.71,144.17c5.51,35.2,35.55,60.98,71.64,60.98h4.8c20.44-1.24,40.18-11.2,52.8-26.84,11.38-13.87,16.18-30.75,13.87-47.46l-8.53-74.84c-2.31-19.55-4.8-41.95-7.65-65.95l-1.24-10.84c-2.49-18.13-6.22-37.33-9.96-55.64-2.13-10.49-4.27-21.15-6.04-31.82l-6.93-36.09c-9.07-47.29-17.42-91.91-28.44-126.39l-19.73-72.71c-5.69-21.15-2.49-44.09,9.07-64.89,10.49-20.27,28.44-35.2,50.13-42.13,21.87-7.11,46.58-4.8,66.84,5.69,20.09,11.2,34.67,30.22,41.06,53.86l21.15,78.4c11.73,37.33,20.98,85.86,30.75,137.42l6.93,35.55c1.96,11.38,4.27,22.58,6.4,33.78,4.09,20.62,8,40.18,10.49,59.2l18.84,163.19c6.04,41.24,38.4,71.11,76.97,68.44,19.2-1.07,37.51-10.67,50.13-26.13,12.98-15.82,18.67-35.55,15.82-55.64l-19.73-170.84c-2.67-20.8-7.11-42.66-11.2-63.64-2.31-11.38-4.62-22.93-6.58-34.67l-6.58-33.78c-10.67-55.64-20.62-108.26-33.07-148.62l-22.04-81.42c-15.11-62.04-57.78-115.2-116.97-145.77-55.11-28.62-118.57-32.35-176.7-10.49l-.36-.36ZM4898.11,2508.52l-9.96,1.07s-31.29,4.98-76.09,15.64l-165.68,37.15c-51.38,10.84-102.57,24.18-143.64,35.02l-96.35,25.24c-6.93,1.78-14.22,2.67-21.51,2.67-39.29,0-74.31-26.67-85.15-64.71-6.22-22.04-3.38-44.98,8-64.89,11.55-20.27,30.58-34.84,53.51-40.89l100.08-26.13c41.6-10.84,93.33-24.53,145.06-35.38,61.69-13.87,123.37-27.73,169.77-38.04,45.33-10.67,76.62-15.82,77.15-15.82,39.11-7.47,64.89-45.15,57.6-84.09-6.4-33.78-36.62-58.13-71.82-58.13-4.62,0-9.24.36-13.69,1.24-.36,0-32.53,5.33-79.11,16.18l-172.26,38.75c-53.69,11.2-107.2,25.24-150.04,36.62l-99.55,26.13c-60.62,14.93-111.11,53.33-142.04,107.91-30.75,54.22-38.22,119.11-20.27,177.77,30.4,99.73,120.53,166.57,224.52,166.57,19.02,0,38.04-2.31,56.71-6.93l96.53-25.24c39.82-10.49,89.24-23.47,139.02-33.78l163.19-36.62c43.55-10.31,73.42-15.11,74.13-15.11,37.87-7.29,62.58-44.8,55.11-83.55-6.76-34.84-38.04-59.91-73.06-58.49l-.18-.18ZM1382.88,7576.39l-39.29-61.86c-25.95-38.4-57.06-93.33-81.42-137.42-23.82-39.64-44.62-82.13-61.33-116.08l-35.55-71.82c-5.33-10.31-7.64-16.71-8-17.6-10.31-24-34.67-39.29-62.4-39.29-10.13,0-20.27,2.13-29.69,6.04-36.27,15.47-53.69,56.89-38.93,91.91,0,.36,2.84,7.82,8.89,19.91l36.27,73.24c17.78,36.27,40,81.42,65.24,123.91,25.24,45.69,57.78,103.11,85.33,143.99l40.71,64c25.6,40.71,15.64,92.08-23.11,119.64-14.4,10.13-31.47,15.64-49.42,15.64-29.69,0-56.53-14.58-72-39.11l-43.38-68.09c-29.51-43.91-65.42-107.55-89.95-151.82-27.02-45.51-50.66-93.86-69.86-132.62l-11.73-24c-10.84-21.69-46.93-91.37-46.93-91.37-20.62-32.71-56.35-31.47-82.84-20.27-17.78,7.47-31.29,22.04-38.04,40.71-6.76,18.49-6.04,39.11,1.78,57.42,0,0,3.02,8.36,9.96,21.87l39.47,80.17c19.91,40.53,44.62,90.84,72.71,137.95,40,72.17,69.86,122.48,93.86,158.39l44.98,70.4c44.98,66.31,117.51,105.95,193.59,105.95,48.18,0,93.86-15.64,131.91-45.33,98.66-76.44,125.15-217.95,58.84-314.83l.36.36ZM838.9,6991.35c55.82-18.67,103.82-58.31,135.28-111.82,28.62-48,37.33-104.88,24.89-164.26l-15.82-70.22c-7.82-29.33-13.69-66.66-19.91-106.31-2.49-15.64-4.98-31.82-7.82-48-6.93-35.73-9.96-72.53-12.62-105.06-1.6-18.31-3.02-35.55-4.98-50.66-4.98-41.42-4.44-69.86-4.44-70.22l-.89-8.89c-5.33-32-35.2-56-72.89-56-19.55.36-37.69,8.18-50.84,22.22-12.8,13.33-19.38,30.75-18.84,48.53,0,1.24-.53,31.29,4.8,76.26,1.96,15.64,3.56,33.42,5.16,52.26,2.84,34.67,6.22,73.95,13.51,112.71,2.84,16.36,5.33,32.71,7.82,48.71,6.76,42.67,12.98,82.84,21.51,114.84l16.53,73.24c9.42,47.64-16.71,91.73-62.22,104.88-7.47,2.13-15.11,3.2-22.93,3.2-40.53,0-75.55-27.91-83.55-66.49l-17.95-79.29c-9.07-34.84-16.18-79.29-23.64-126.57-2.49-15.82-4.98-31.82-7.82-48-7.82-41.6-11.38-84.09-14.58-121.59-1.78-19.73-3.38-38.22-5.33-54.75-5.51-47.11-5.16-79.29-5.16-80.17-1.42-40.35-33.42-72-74.13-72-18.13.36-35.2,8-48.18,21.51-14.22,14.93-21.87,35.73-21.33,56.89,0,1.42-.36,35.02,5.51,85.69,1.96,16.89,3.73,35.73,5.33,55.64,3.56,40,7.47,85.33,15.64,129.95,2.67,16.18,5.16,32.18,7.64,48,8,50.49,15.64,98.31,25.24,135.82l18.67,82.49c12.98,61.15,53.69,115.91,111.28,150.04,31.82,18.84,68.44,28.62,105.77,28.62,23.64,0,47.46-3.91,70.4-11.55l.89.36ZM3709.36,9295.26c-1.07-.36-114.48-43.02-223.99-91.02-57.42-23.47-113.95-49.6-151.46-67.2l-68.62-31.64c-9.07-4.09-18.67-6.04-28.62-6.04-27.55,0-53.15,16.18-65.24,41.06-8.71,17.78-9.78,37.69-3.2,56,4.98,13.69,13.87,25.24,25.42,33.24l-.71.71,81.06,37.33c38.04,17.78,95.64,44.44,155.02,68.8,111.82,48.89,227.72,92.62,228.79,92.97,43.91,16.89,66.13,67.37,49.6,112.35-12.27,33.24-44.44,55.46-80.35,55.46-10.84,0-21.69-1.96-32-6.04-1.24-.53-119.82-45.15-234.66-95.29-60.26-24.71-119.64-52.09-159.1-70.57l-72-33.24c-9.78-4.44-20.27-6.58-31.11-6.58-28.27,0-53.51,15.47-65.6,40.18-8.36,17.24-9.42,36.8-2.84,55.11,6.58,18.49,20.27,33.07,38.22,41.24l73.24,33.95c62.22,29.15,115.55,52.8,162.66,72.17,117.15,51.2,238.21,96.89,239.28,97.24,27.38,10.84,55.82,16.35,84.8,16.35,97.06,0,183.28-60.98,214.57-151.99,40.89-118.75-17.6-248.17-133.33-294.57h.18ZM4659.89,9588.75l-235.37-59.55-160.7-45.69c-43.2-11.73-72-21.33-72.53-21.51-6.58-2.13-13.51-3.02-20.44-3.02-30.93,0-58.13,20.26-67.73,50.49-8.53,26.67-9.42,69.15,17.42,80.53l28.44,9.42s30.04,9.96,74.31,22.22l163.55,46.58c119.82,30.4,239.46,60.62,239.81,60.62,46.04,10.31,75.02,56.53,64.71,103.28-8.71,39.29-44.62,67.73-85.33,67.73-6.4,0-12.98-.71-19.2-2.13l-245.15-62.04-167.46-47.64c-44.98-12.27-75.2-22.22-75.37-22.4l-11.38-3.73v1.07c-3.56-.53-7.11-.71-10.84-.71-31.64,0-59.2,20.09-68.62,50.13-11.91,37.51,9.78,78.22,48.35,90.66.36,0,31.29,10.31,77.51,23.11,46.4,13.15,108.26,30.75,170.3,48.35l249.41,63.11c17.42,3.91,35.2,5.87,52.8,5.87,109.33,0,204.08-75.91,225.24-180.44,25.07-124.62-52.09-247.46-171.9-274.12l.18-.18ZM2816.59,8869.5l-64.89-38.4c-38.58-21.87-88.17-53.69-139.91-86.93-49.78-31.11-99.73-64.18-136.88-91.02l-61.69-42.67c-11.55-7.82-25.24-11.91-39.29-11.91-23.11,0-45.15,11.38-58.84,30.04-11.55,15.82-16.35,35.73-13.15,54.75,1.78,10.49,5.87,20.27,12.09,28.62l16.18,15.64s25.24,17.6,63.11,43.73c37.51,27.02,89.06,61.15,140.97,93.68,50.66,32.71,103.46,66.49,143.82,89.42l66.13,39.11c40.35,24.35,54.4,77.51,31.64,118.4-15.11,27.2-43.73,44.09-74.84,44.09-15.47,0-30.58-4.27-43.91-12.44l-68.44-40.53c-42.13-24-98.48-60.09-148.08-92.08-53.33-33.42-106.31-68.44-145.42-96.53l-67.55-46.93c-12.27-7.64-26.31-11.73-40.71-11.73-23.47,0-44.8,10.67-58.31,29.15-11.38,15.64-15.82,34.67-12.44,53.69,3.38,19.55,14.4,36.44,30.75,47.64l66.84,46.4c41.06,29.33,95.46,65.42,149.33,99.2,53.33,34.31,108.97,70.04,151.99,94.4,41.95,24.89,69.86,41.24,69.86,41.24,35.73,21.15,76.26,32.35,117.33,32.35,84.62,0,161.24-45.87,199.99-119.46,58.66-111.46,21.15-248.17-85.33-311.28l-.36.36ZM11683.96,4476.97c-8.71,55.64,4.09,112.35,37.51,164.08l83.02,121.77,43.91,73.6c27.73,45.87,59.2,97.95,78.22,138.66l33.07,64.53c11.55,22.4,35.55,36.27,62.58,36.27,11.38,0,22.22-2.49,32.53-7.29,17.78-8.36,30.93-22.58,37.15-40.53,6.04-17.24,4.8-35.91-3.73-52.62l-34.49-67.02c-19.55-41.24-50.13-92.62-82.49-145.77l-45.86-76.97-86.57-126.93c-25.95-39.64-17.07-92.8,20.09-120.71,14.93-11.2,32.71-17.07,51.37-17.07,28.44,0,54.58,14.04,70.04,37.51l91.2,134.04,48.53,81.24c32.53,53.51,65.95,109.51,86.75,153.59l53.15,92.97c15.29,24,54.93,26.13,81.6,13.69,16.71-7.82,29.33-21.87,35.38-39.29,6.58-19.02,4.8-40.71-4.62-59.55l-38.22-74.31c-22.22-46.75-57.06-105.06-90.84-161.06-17.07-28.62-34.31-57.06-50.49-84.26l-94.75-139.19c-33.95-51.91-91.02-87.64-156.62-97.77-60.98-9.07-122.31,7.47-170.66,46.22-47.29,37.87-78.22,92.09-87.46,152.7l.71-.53ZM2505.85,3574.78c43.02,0,85.33-11.91,122.48-34.31l63.64-40.18c39.82-26.31,96.53-58.84,141.68-84.26,101.86-60.62,209.41-115.2,210.48-115.73l4.8-2.49v-.36c30.4-19.02,41.24-59.73,24.18-93.15-12.27-24.18-36.62-39.29-63.46-39.29-11.2,0-22.04,2.67-32,7.82-1.07.53-111.28,56.53-215.99,118.75-45.86,25.95-104,59.2-145.59,86.75l-64.89,41.07c-13.51,8.53-29.15,12.98-45.33,12.98-30.22,0-58.13-14.93-74.84-40-12.62-19.02-16.89-41.6-12.27-63.82,4.8-22.93,18.84-42.67,39.11-55.46l67.38-42.49c43.73-28.8,106.31-64.71,149.86-89.24,107.73-64,220.79-121.6,222.04-122.13l4.8-2.67c32-19.73,44.09-61.15,27.02-94.75-12.09-23.64-36.44-38.4-63.64-38.4-11.91,0-23.82,2.84-34.67,8.53-1.07.53-116.97,59.55-227.37,125.15-48.53,27.38-109.86,62.58-153.77,91.55l-68.62,43.38c-54.04,32.89-90.84,85.33-103.64,147.55-12.62,61.33.36,125.15,35.73,175.1,45.33,64,115.73,100.62,193.06,100.62l-.18-.53ZM705.57,5979.66c4.27.18,8.71.36,12.98.36,121.95,0,227.01-85.69,238.92-194.13l13.51-70.04c3.2-14.04,6.04-29.87,9.07-46.75,5.87-33.07,12.62-70.4,24-106.84,6.04-20.8,11.56-41.78,16.71-62.04,8.71-33.07,16.89-64.35,25.78-89.42l26.67-79.29c9.24-31.64-15.11-64-47.82-76.44-8.36-3.2-17.07-4.8-25.95-4.8-29.15,0-55.11,18.13-64.71,45.15l-24.89,71.29c-9.78,27.38-18.67,61.33-28.09,97.24-5.33,20.62-11.02,41.78-16.89,62.75-12.27,39.46-19.55,79.82-25.95,115.55-3.02,16.89-5.87,32.89-9.07,47.29l-14.4,74.66c-5.16,44.8-47.64,77.69-95.64,72.71-22.22-2.49-42.49-13.69-56.71-31.64-15.11-19.2-22.04-43.38-19.2-67.55l15.11-79.29c3.38-15.29,6.4-32.35,9.78-50.31,6.93-38.04,14.93-81.24,27.73-123.02,6.04-21.69,11.91-43.38,17.42-64.53,10.49-39.47,20.27-76.62,30.75-106.13l26.67-76.26c13.33-38.22-5.87-80.71-42.66-94.57-7.64-2.84-15.64-4.44-23.82-4.44-30.4,0-58.31,20.62-69.15,51.55l-27.73,79.64c-11.2,31.82-21.69,71.46-32.71,113.42-5.69,21.69-11.56,43.91-17.78,65.77-13.69,44.8-22.04,90.66-29.51,131.19-3.38,18.49-6.58,35.73-9.96,51.55l-16,83.91c-8.18,70.22,11.38,139.19,53.51,189.15,38.04,45.15,91.55,71.64,150.39,74.66l-.36-.36ZM1538.96,4145.78c45.15,40.53,103.46,62.75,163.9,62.75s117.51-22.93,157.33-64.35c.89-.89,87.29-82.31,173.86-161.06l125.51-105.6c32.89-28.62,57.24-45.86,57.78-46.22,30.04-23.11,35.02-67.38,11.02-98.66-13.87-18.13-34.67-28.44-57.42-28.44-15.47,0-30.04,4.8-42.13,14.04-1.07.71-25.95,18.31-60.26,48.35l-129.06,108.8c-89.6,81.42-178.66,165.5-179.73,166.57-31.29,32.35-87.82,32.53-121.06.36-16.35-15.64-25.6-37.15-25.95-60.09-.36-24,8.71-46.75,25.42-64,.89-.89,93.86-88.89,187.01-173.33l134.22-113.06c35.38-30.75,61.15-49.06,61.51-49.24l3.56-2.67v-.36c28.8-24.89,33.95-68.26,10.84-98.48-13.33-17.42-33.95-27.55-56.71-27.55-16.71,0-32.71,5.51-46.04,15.64-1.07.71-27.38,19.38-64.35,51.55l-137.95,116.08c-96.17,87.11-191.81,177.77-193.06,178.84-47.29,48.89-72.17,111.46-69.86,176.17,2.13,59.73,27.55,114.48,71.82,154.13l-.18-.18ZM964.23,4992.15c33.42,15.29,68.8,23.11,105.24,23.11,85.86,0,163.19-43.73,201.77-113.95l46.22-77.69c20.8-35.02,46.58-78.75,76.62-120.17,62.75-96.53,145.06-203.01,145.06-203.01,16.89-29.87,3.56-63.46-22.58-84.62-12.8-10.49-28.8-16.18-44.98-16.18-21.33,0-41.06,9.6-54.04,26.31-.71.89-77.51,96.53-142.93,197.33-31.82,44.09-59.38,90.49-81.42,127.82l-47.11,78.93c-23.82,39.64-75.55,55.29-116.8,33.95-20.62-10.67-36.27-30.04-42.84-53.15-6.4-22.75-3.56-46.04,8.36-65.77l49.06-82.49c23.47-39.64,52.62-88.89,86.22-135.64,69.15-106.31,149.33-206.21,150.04-207.28l4.8-6.04-.36-.36c19.38-31.29,13.33-73.24-15.29-96.53-12.27-9.96-27.2-15.11-43.02-15.11-22.93,0-44.62,10.84-59.2,29.69-.89,1.07-84.09,105.06-156.08,215.64-35.38,49.42-66.31,101.51-91.02,143.28l-50.13,84.26c-32.53,59.2-39.47,128.35-19.02,190.04,19.2,57.78,59.38,103.28,113.42,127.82v-.18ZM1964.9,8249.61c-20.62-18.67-44.98-42.31-70.57-67.2-15.29-14.75-31.11-30.22-47.11-45.33-27.91-26.84-54.4-55.11-78.04-80.17-12.44-13.33-24.18-25.78-34.84-36.8-30.4-30.93-49.06-53.69-49.42-54.04-23.64-27.2-70.04-29.33-99.02-4.44-29.87,25.78-33.78,70.57-8.53,99.73.71.89,19.91,24.35,51.91,56.89,11.2,11.38,23.29,24.35,36.27,38.22,24.35,25.78,51.73,55.11,80.71,83.02,16.35,15.64,32.53,31.29,48.18,46.4,26.67,25.78,51.91,50.31,73.6,70.04l57.24,50.66c34.84,30.93,38.22,86.04,7.29,122.66-16,18.84-39.29,29.69-64.18,29.69-21.33,0-41.95-8-58.31-22.4l-59.73-52.8c-22.93-20.98-50.13-47.29-79.11-75.37-15.64-15.11-31.64-30.58-47.64-45.86-30.04-29.15-59.02-59.91-84.44-86.93-13.33-14.22-25.95-27.55-37.51-39.29-32.89-33.78-53.15-58.31-53.51-58.84-14.04-16.18-34.49-25.42-55.82-25.42-17.07,0-33.6,6.04-46.58,17.07-14.04,12.09-22.58,28.98-24,47.82-1.42,19.2,4.44,38.04,16.71,53.51l1.96,2.49s21.69,26.31,56,61.51c11.55,11.91,24.35,25.42,38.04,40,26.49,28.27,56.71,60.26,88,90.66,16.18,15.47,32.18,30.93,47.82,46.04,30.22,29.33,58.84,56.89,83.02,78.93l61.33,54.22c42.31,38.58,96.88,59.91,153.59,59.91,69.33,0,133.33-30.58,175.46-83.91,77.15-97.24,66.84-238.21-23.47-321.05l-55.64-49.24.36-.36ZM11064.96,3933.35l56.89,47.82c21.33,18.13,46.04,41.42,72.35,65.95,15.47,14.58,31.46,29.51,47.82,44.44,39.29,34.84,75.73,72.71,104.88,102.93l62.22,64.18c13.33,13.16,31.11,20.27,49.95,20.27s35.73-6.76,49.24-19.2c14.76-13.33,23.64-32.18,24.18-51.55.53-18.31-6.22-35.55-19.02-48.35l-61.69-63.64c-30.93-32.18-69.51-72.17-111.46-109.68-16.71-15.29-33.42-30.93-49.42-45.86-27.02-25.42-52.62-49.24-74.84-68.26l-58.66-49.24c-35.73-30.04-40.35-84.97-10.31-122.31,16-19.73,40-31.11,65.6-31.11,20.62,0,40.89,7.47,56.89,20.98l60.98,51.38c23.11,19.73,50.31,45.15,79.11,72.17,16.18,15.11,32.89,30.93,49.95,46.4,43.2,38.4,83.2,80,115.19,113.42l79.82,78.57c27.56,16.89,64.89,14.4,88-6.76,14.4-12.98,22.58-30.75,23.11-50.31.53-19.91-6.93-38.93-21.15-53.15l-65.95-68.09c-33.6-34.84-75.2-78.04-120.35-118.4-16.71-15.47-33.42-31.11-49.6-46.22-30.4-28.44-59.02-55.11-83.55-76.09l-62.4-52.62c-42.13-36.62-95.64-56.71-150.39-56.71-70.75,0-135.82,32-178.13,87.82-75.37,99.37-62.04,240.17,30.4,320.52l.36.71ZM10734.84,8664.17c-44.8,0-87.64,13.15-123.37,37.69l-63.11,40.35c-11.73,7.29-24.35,15.47-38.04,24.18-30.75,19.91-65.77,42.31-101.86,62.93-19.91,11.55-39.82,23.29-58.84,34.66-30.58,18.13-59.38,35.2-83.73,48.53l-66.31,35.91c-33.42,18.31-45.51,61.69-27.02,96.53,12.44,23.47,36.44,38.22,62.75,38.22,11.55,0,22.93-2.84,33.07-8.36l67.55-36.62c25.95-14.22,56.71-32.53,89.24-51.73,18.67-11.02,37.69-22.4,56.89-33.6,37.69-21.51,73.95-44.8,105.77-65.24,13.51-8.71,26.31-16.89,38.04-24.35l64.89-41.6c14.04-9.6,30.58-14.58,47.64-14.58,28.62,0,55.46,14.04,71.82,37.86,13.16,18.84,17.95,41.78,13.69,64.71-4.44,23.29-17.6,43.55-37.15,56.71,0,0-26.84,17.07-66.84,42.84-12.27,7.64-25.42,16.18-39.47,25.24-32.89,21.15-70.04,45.15-108.62,67.02-19.02,11.2-38.04,22.4-56.53,33.42-34.49,20.44-67.02,39.82-94.22,54.58l-74.31,40.35c-31.64,20.62-43.2,62.22-25.6,95.46,12.27,23.11,36.26,37.33,62.93,37.33,12.44,0,24.89-3.2,35.91-9.24l71.28-38.75c27.91-15.29,61.33-35.2,96.89-56.17,18.67-11.2,38.04-22.58,57.42-33.78,40.35-22.93,79.11-48,113.42-70.04,13.69-8.89,26.67-17.07,38.58-24.71l68.62-43.91c54.75-37.69,90.84-93.33,101.51-156.44,9.96-59.55-4.09-118.93-39.64-167.28-45.33-61.51-117.68-98.31-193.41-98.31l.18.18ZM10256.82,3377.28l65.24,37.33c8.71,4.98,18.13,10.31,27.91,16,35.02,20.09,74.84,42.67,113.77,68.26,50.84,32,101.51,64,139.37,87.82l61.69,42.49c11.2,7.82,24.53,11.91,38.22,11.91,23.47,0,45.69-11.73,59.55-31.47,11.02-15.82,15.47-35.02,12.09-53.86-3.2-18.49-13.51-34.49-28.8-45.33l-63.46-43.73-142.75-90.13c-40.53-26.49-81.6-50.13-118.04-70.75l-94.4-54.04c-41.24-24.35-56-76.09-33.6-118.04,14.93-27.91,43.91-45.33,75.55-45.33,14.93,0,29.69,4.09,42.67,11.73l97.77,56c37.15,21.33,79.46,45.33,120.88,72.53l147.55,93.15,67.73,46.75c11.91,7.64,25.42,11.55,39.47,11.55,23.64,0,45.69-11.38,59.02-30.4,10.67-15.29,14.75-33.95,11.55-52.62-3.55-19.73-14.58-36.98-31.46-48.53l-67.38-46.4-150.93-95.28c-43.55-28.62-89.6-54.75-126.57-75.73l-97.6-56c-34.67-19.91-73.95-30.4-113.6-30.4-85.15,0-164.62,48.35-202.3,123.02-56.53,112-16.71,247.99,90.66,309.68l.18-.18ZM9834.97,9153.4c-31.64,0-62.22,6.58-90.31,19.73,0,0-111.46,46.93-222.92,93.51l-155.37,59.91c-41.6,16-70.58,25.42-70.93,25.6-36.27,12.8-55.11,53.51-42.13,90.84,11.38,32.53,45.33,52.8,79.11,47.29v.89l11.38-3.73s30.22-9.78,73.06-26.31l142.93-54.93,243.37-101.51c11.02-5.15,22.93-7.64,35.02-7.64,33.6,0,64.53,19.91,78.75,50.84,9.6,20.8,10.49,44.09,2.49,65.77-8.18,22.22-24.71,40-46.22,49.95-1.07.53-117.68,50.67-233.59,97.95l-162.66,62.75c-43.55,16.71-73.77,26.49-74.13,26.67-37.69,13.33-57.78,54.4-44.8,91.73,9.96,28.62,37.33,47.64,68.44,47.64,8.35,0,16.71-1.42,24.53-4.09.35,0,31.46-10.13,76.26-27.55l165.5-63.82c118.22-48.18,236.97-99.37,238.39-99.91,59.73-27.55,104.35-75.73,125.68-135.82,20.09-56.89,16.71-118.04-9.78-172.08-39.82-81.06-123.02-133.51-211.9-133.51l-.18-.18ZM12456.72,6213.96h-6.58c-57.78,0-113.77,20.8-158.04,58.84-33.6,29.69-74.66,78.93-80,145.42,0,.36-1.6,28.62-9.24,69.69-2.84,15.11-5.33,32-8,50.13-4.8,32.35-10.13,68.97-19.55,104.53-3.38,14.58-6.58,29.15-9.78,43.38-9.07,40.71-17.78,79.11-27.73,109.33l-23.47,80h1.24c-3.02,32.18,17.07,63.64,49.78,74.84,7.82,2.67,15.82,3.91,24,3.91,31.47,0,57.78-19.2,65.6-47.46l21.15-72.17c10.84-32.71,20.09-73.95,29.87-117.68,3.2-14.58,6.58-29.33,9.96-43.73,9.96-38.4,15.82-77.69,20.98-112.35,2.67-18.49,5.33-35.91,8.36-51.38,8.18-44.62,9.78-74.49,9.78-75.37,4.44-44.98,47.46-79.82,94.75-76.44,22.4,1.6,42.66,11.91,57.24,29.33,15.64,18.49,22.76,42.31,20.44,67.38,0,.36-1.96,32.53-10.31,79.29-3.02,16.36-5.87,34.84-8.89,54.58-5.51,37.15-11.91,79.29-22.4,120.35-3.2,13.69-6.22,27.55-9.24,41.24-11.02,48.89-21.33,95.11-33.07,131.02l-22.75,77.86c-10.84,40.35,8.71,80,45.51,92.62,7.11,2.49,14.58,3.73,22.04,3.73,32.18,0,60.98-22.22,69.69-54.04l23.64-80.89c12.44-38.4,23.64-87.64,35.2-139.73,3.02-13.87,6.22-27.73,9.42-41.6,11.2-44.09,17.95-89.06,24-128.71,3.02-19.91,5.87-38.58,8.89-55.29,9.07-49.95,11.02-83.55,11.2-84.8,6.04-70.57-12.62-134.39-52.62-179.37-41.07-47.64-98.31-74.84-160.88-76.44h-.18ZM11685.56,8072.55c-44.09-37.51-99.73-58.13-156.97-58.13-62.93,0-121.06,24-164.26,67.91,0,.18-19.73,22.22-51.2,52.26l-111.46,106.66-128.53,114.13-57.6,47.29c-29.15,24-32.89,68.44-8.36,99.37,13.69,17.24,34.13,27.2,56,27.2,16,0,31.29-5.33,43.73-15.47l59.55-48.71,126.39-111.64,121.42-116.26c33.07-31.64,52.98-54.04,53.69-54.75,16-16.71,37.87-25.95,61.69-25.95,22.58,0,44.09,8.36,60.62,23.64,16.71,15.29,26.31,36.27,27.02,59.02.71,23.82-8,46.58-24.89,64.35-.18.18-21.51,24-55.46,56.53l-126.75,121.24-131.19,115.91-61.51,50.66c-30.93,25.42-36.27,71.11-11.56,101.86,13.33,16.71,33.42,26.13,55.11,26.13,17.07,0,34.13-6.04,47.82-17.07l63.46-52.09,135.28-119.64,130.48-124.97c35.38-33.95,57.78-59.02,57.78-59.02,46.04-46.93,69.69-108.44,66.84-172.79-2.84-62.04-30.04-118.22-76.8-157.86l-.35.18ZM12234.69,7209.83c-55.11-23.64-118.39-25.6-174.21-6.04-58.31,19.2-104,57.42-128.71,107.91,0,.18-2.84,6.58-8.71,16.89l-26.13,45.86c-5.51,9.6-11.38,19.91-17.6,30.93-18.49,32.89-39.46,70.4-63.82,106.48l-6.04,9.6c-29.69,46.75-57.78,91.02-82.49,123.91l-49.78,73.24c-17.78,31.82-2.31,63.82,24,83.91,12.8,9.78,28.62,15.11,44.44,15.11,22.4,0,42.49-10.13,54.75-27.91l43.91-61.69c25.78-34.13,54.93-80.17,85.86-128.88l6.76-10.49c25.78-38.4,48-78.04,67.55-113.06,6.22-11.02,12.09-21.51,17.6-31.11l27.2-48c6.58-11.73,9.6-18.84,9.6-18.84,14.04-28.44,43.38-46.04,76.62-46.04,13.51,0,26.67,3.02,38.93,8.89,20.26,9.6,35.55,26.84,43.02,48.53,7.82,22.75,6.04,47.64-4.98,70.04,0,0-3.2,7.29-9.78,19.02l-28.62,50.84c-5.87,10.13-12.09,21.15-18.67,32.89-20.8,36.8-44.26,78.75-71.46,119.11-33.78,53.33-68.62,108.44-97.42,146.84l-46.75,65.42c-23.11,33.78-17.07,78.4,13.69,102.04,12.27,9.24,26.84,14.22,42.49,14.22,23.82,0,46.22-11.73,59.91-31.64l48.18-67.55c29.69-39.64,65.6-96.35,100.26-151.1l1.24-1.78c28.98-43.55,54.22-88.35,76.44-127.99,6.04-10.84,11.91-20.98,17.24-30.58l29.69-52.8c7.29-12.98,10.84-20.8,10.84-20.8,29.33-59.02,35.02-126.39,15.82-184.7-21.15-59.38-64.35-105.77-121.77-130.48l.89-.18ZM5893.98,2371.1l-77.15,6.58c-15.82,1.6-33.6,3.02-52.62,4.44-35.91,2.84-76.62,5.87-116.97,11.38l-245.86,29.33c-46.75,7.64-90.49-26.49-97.42-72.89-7.11-47.46,26.31-91.91,73.95-99.2l251.19-29.87c40.53-5.51,81.77-8.71,118.04-11.56,19.73-1.6,38.22-3.02,54.58-4.62l78.75-6.58c39.64-3.38,69.69-38.22,66.84-77.69-2.67-38.93-36.8-68.62-78.22-65.6l-80,6.76c-16.35,1.6-34.49,3.02-53.86,4.62-37.51,2.84-79.82,6.22-121.77,11.91l-255.1,30.4c-64,9.78-119.64,43.38-156.79,94.93-35.73,49.24-49.78,109.15-39.82,168.53,18.84,111.64,115.91,195.9,225.95,195.9,11.02,0,22.22-.89,32.89-2.49l242.12-28.8c38.93-5.33,78.57-8.36,113.42-11.02,19.2-1.42,36.98-2.84,52.8-4.44l83.73-7.11v-.53c34.31-7.11,59.2-39.64,56.71-76.26-2.67-38.93-36.8-69.15-75.91-65.78l.53-.36ZM6411.64,2172.71l79.11-1.24c47.29-1.24,110.22-1.78,173.33,0l173.86,3.02c46.58.36,78.04,2.49,78.57,2.49h3.38c38.75,0,70.4-29.87,72-68.26,1.78-39.47-29.51-73.24-69.69-75.37-.36,0-32.71-2.13-80.35-2.49l-175.99-2.84c-64.18-1.78-128.71-1.24-176.53,0l-80,1.42c-62.93.36-121.24,25.6-164.26,71.11-42.84,45.33-64.89,104.35-61.86,166.39,6.04,125.33,108.44,223.46,234.66,223.46l76.26-1.24c45.51-1.24,106.13-1.78,167.28,0l167.64,2.84c44.8.36,75.37,2.31,75.91,2.31h3.2c37.51,0,68.26-30.04,69.86-68.26,1.78-39.29-28.62-73.24-67.55-75.37-.36,0-31.64-2.13-77.69-2.49l-169.95-2.84c-62.04-1.78-124.08-1.42-170.48,0l-78.75,1.24c-46.58,0-85.51-38.4-86.93-85.51-.71-22.93,7.64-44.62,23.47-61.33,16.18-16.89,38.04-26.49,61.69-26.84l-.18-.18ZM9356.76,2965.21l70.57,27.02c14.4,5.69,30.4,11.73,47.64,18.13,33.07,12.44,70.58,26.31,107.02,42.67l153.24,65.06c41.24,16.71,68.09,30.4,68.62,30.58,9.07,4.27,18.67,6.4,28.62,6.4,27.38,0,52.62-16.53,64.53-41.95,12.62-27.02,7.11-57.95-11.55-78.75l-21.69-16.35s-28.44-14.4-70.75-31.82l-155.9-66.13c-37.33-16.71-75.55-30.93-109.51-43.55-17.6-6.58-34.13-12.8-48.89-18.67l-72-27.38c-44.8-17.6-67.38-66.49-51.55-111.46,12.09-34.31,44.44-57.42,80.53-57.42,10.49,0,20.98,1.96,30.93,5.87l73.77,28.09c14.76,5.87,31.47,12.09,49.06,18.84,34.84,12.98,74.49,27.73,112.88,44.98l160.53,68.09c43.02,17.78,71.46,32,72,32.18,9.78,4.62,20.27,6.93,30.93,6.93,27.91,0,53.33-16.18,65.06-41.06,16.71-35.73.36-79.11-36.27-96.35-.35,0-29.69-14.93-74.13-33.24l-163.37-69.33c-39.46-17.6-79.64-32.53-115.37-45.86-17.95-6.76-35.02-13.16-50.13-19.2l-75.37-28.62c-26.31-9.96-53.69-15.11-81.42-15.11-98.84,0-185.77,62.4-216.17,155.19-39.47,119.46,20.98,247.81,137.42,292.25h.71ZM7970.51,2134.67l-82.13-12.62c-46.22-7.11-109.51-17.07-172.08-23.64l-174.93-20.8c-47.46-6.04-80-8.18-80.17-8.18-130.48-10.84-243.55,85.15-252.08,210.12-8.53,126.75,84.62,238.39,207.64,248.7.36,0,30.75,2.13,75.2,7.82l166.39,19.73c58.31,6.04,115.2,14.93,160.88,22.04l79.82,12.27c3.56.53,6.93.71,10.31.71,34.49,0,64.71-26.13,70.57-60.98,3.2-19.02-1.24-38.04-12.44-53.51-9.6-13.33-23.11-22.58-38.75-26.67l-83.91-13.33c-45.15-7.11-107.02-16.71-168.53-23.29l-168.7-20.09c-45.87-5.87-77.15-8-77.33-8-22.75-1.96-43.38-12.62-58.13-30.4-14.76-17.78-21.87-40.18-19.91-63.29,3.73-44.44,42.13-79.46,87.46-79.46,2.49,0,4.98,0,7.82.36.36,0,31.82,2.13,78.22,8.18l172.79,20.44c61.15,6.4,123.19,16,168.35,23.11l81.6,12.44c40,5.87,76.62-21.15,83.02-59.91,3.02-18.49-1.42-37.15-12.44-52.62-11.55-16-28.62-26.49-48.53-29.51v.36ZM8869.14,9499.51c-20.27,0-40.53,2.67-60.09,8l-73.06,20.8c-27.02,7.64-60.26,15.82-95.46,24.53-21.51,5.33-43.91,11.02-66.31,16.71-47.46,12.44-101.86,25.42-162.3,38.22l-74.31,16.35c-37.51,8.35-61.69,46.75-53.69,85.33,7.64,37.87,46.22,63.29,83.91,55.11l75.37-16.71c63.46-13.51,117.68-26.31,165.68-38.93,20.8-5.33,41.6-10.49,61.86-15.64,37.87-9.42,73.77-18.31,102.93-26.67l74.31-20.98c7.47-2.13,15.29-3.2,23.11-3.2,38.4,0,72.89,25.95,84.09,63.11,6.58,21.87,3.91,44.98-7.11,65.24-11.38,20.62-30.22,35.55-52.98,41.95l-76.09,21.51c-29.69,8.35-66.31,17.42-105.06,27.2-20.62,5.16-41.95,10.49-63.29,15.82-49.95,13.15-106.84,26.49-168.88,39.82l-77.33,17.07c-38.75,8.71-64,47.29-56,85.86,6.76,32.71,36.27,56.35,70.22,56.35,5.33,0,10.67-.53,16-1.78l78.4-17.42c65.42-14.04,121.77-27.2,172.26-40.53,22.4-5.87,44.8-11.38,66.49-16.71,38.58-9.6,75.02-18.84,104.88-27.2,46.4-13.15,77.33-21.87,77.33-21.87,61.15-16.71,111.46-56.35,141.51-111.64,29.69-54.75,35.73-117.15,17.07-175.99-31.29-98.13-121.06-164.08-223.28-164.08l-.18.36ZM8402.14,2685.58l74.31,16.71c39.82,8.18,95.64,22.04,161.77,39.82l161.24,42.13s89.42,23.64,92.09,24.53c30.75,8.36,58.84-21.15,68.09-51.55,10.84-35.73-7.47-73.42-41.06-86.93l-80.35-24.35-164.26-42.84c-68.8-18.49-124.44-32.18-165.33-40.71l-75.37-16.89c-46.04-10.31-75.55-56.89-65.78-103.82,8.18-39.29,43.55-67.91,84.09-67.91,6.58,0,12.98.71,19.38,2.13l77.33,17.42c41.07,8.53,97.77,22.4,168.53,41.42,61.15,16,122.31,32,167.99,43.91l75.91,22.58c37.51,11.02,78.93-11.38,90.13-48,11.38-37.87-10.84-78.22-49.78-89.95l-77.33-23.11-170.84-44.62c-48.18-12.98-117.33-30.93-171.9-42.31l-78.22-17.6c-17.42-4.09-35.2-6.22-52.98-6.22-108.97,0-202.84,77.33-223.1,184.17-23.47,123.73,53.51,243.19,175.46,272.17v-.18ZM3829.35,2470.47c-8.18,0-16.18,1.24-24,3.91-1.24.36-123.91,41.06-242.48,88-120.17,43.55-238.57,96.17-239.63,96.71-58.66,24.18-103.64,69.86-126.57,128.71-22.22,57.42-20.09,122.13,5.87,177.24,38.93,82.49,122.66,135.64,213.32,135.64,30.04,0,59.38-5.69,87.46-17.24,1.07-.53,111.64-49.6,224.17-90.49,24.35-9.6,48.89-19.02,72.35-27.73v-153.06c-37.51,13.51-80.89,29.69-123.73,46.58-115.02,41.78-228.08,91.91-229.15,92.44-10.49,4.44-21.69,6.76-33.07,6.76-34.84,0-66.66-20.8-80.89-52.8-9.24-20.8-9.78-44.09-1.42-65.24,8.71-21.87,25.42-39.11,47.64-48.53,1.07-.53,116.97-51.91,234.66-94.57,116.26-46.22,236.43-85.86,237.68-86.22l5.87-1.96v-.36c33.95-14.93,51.73-53.51,40-89.06-9.6-28.98-37.15-48.53-68.44-48.53l.36-.18Z"/>
      <path class="cls-4" d="M3661,2454.65l406.56,134.93c14.22-28.8,22.04-61.33,22.04-92.62,0-118.75-96.88-215.28-215.99-215.28-104.17,0-191.99,72.17-212.61,172.97Z"/>
      <path class="cls-4" d="M1873.7,8940.25l180.26,55.29,1899.12-6421.42-184.17-56.71-1895.21,6422.84Z"/>
      <path class="cls-4" d="M5194.63,9659.15l332.79,48.89-15.11,102.93-222.39-32.71-16.53,112,210.3,30.93-14.04,95.28-210.3-30.93-17.07,116.44,222.39,32.71-15.11,102.93-332.79-48.89,77.86-529.4v-.18Z"/>
      <path class="cls-4" d="M5563.86,10242.95l9.96-106.48c29.15,15.82,86.93,30.4,133.33,34.84,65.42,6.22,100.62-8.89,104.35-48.53,2.84-30.4-15.29-49.06-55.29-65.06l-59.2-24c-89.6-36.09-105.42-95.11-99.91-153.77,12.09-128.71,116.44-161.06,225.41-150.75,35.73,3.38,87.82,12.8,120.88,28.98l-9.96,106.48c-29.15-17.24-77.86-29.69-118.22-33.42-64.71-6.04-99.2,9.78-102.93,48.71-2.84,30.4,15.29,49.06,55.29,65.06l59.2,24c89.6,36.09,105.6,94.4,99.91,153.77-12.09,129.42-115.02,161.24-225.41,150.75-37.33-3.55-98.48-13.87-137.59-30.58h.18Z"/>
      <path class="cls-4" d="M6002.42,9754.26l378.83,17.24-4.8,103.82-133.68-6.04-19.55,430.74-111.46-5.16,19.55-430.74-133.68-6.04,4.8-103.82Z"/>
      <path class="cls-4" d="M6696.61,9874.79l-98.66,1.6-1.78-104,210.3-3.55,9.07,535.09-111.64,1.96-7.29-431.09Z"/>
      <path class="cls-4" d="M6977.84,10289.35l-6.58-107.55c31.47,14.93,65.6,22.04,105.42,19.55,65.6-4.09,116.62-32.53,113.77-140.26-22.93,25.24-54.93,40.18-94.57,42.66-92.26,5.69-156.08-60.8-162.66-167.64-7.47-119.82,64.53-183.1,161.42-189.15,150.22-9.24,200.17,128.53,208.7,267.37,12.44,200.7-68.62,278.39-210.48,287.1-38.93,2.31-84.97,0-114.84-12.09h-.18ZM7184.06,9972.56c-10.49-82.13-36.09-125.68-81.95-122.84-24.35,1.42-58.66,16.71-54.75,80.71,2.67,42.67,19.91,74.66,68.8,71.64,25.24-1.6,49.06-12.27,67.91-29.51Z"/>
      <path class="cls-4" d="M7451.42,9831.23l-98.13,10.49-11.02-103.46,209.06-22.22,56.53,532.07-110.93,11.73-45.51-428.78v.18Z"/>
      <path class="cls-4" d="M7742.79,10224.28l-15.64-104.35c29.15,8.71,78.93,10.67,124.26,3.73,32.53-4.8,85.51-17.42,77.69-69.69-6.04-40-41.6-66.31-156.44-49.06l-13.69-90.66,92.8-133.68-171.55,25.78-15.47-102.75,306.83-46.04,15.82,105.77-103.11,142.22c87.29,5.51,146.48,43.73,159.28,129.06,15.11,100.44-46.4,169.24-173.5,188.26-35.55,5.33-90.66,8.89-127.28,1.24v.18Z"/>
      <path d="M3916.28,2777.31l57.78-195.19,104.35,34.67,4.44-8.18c18.84-33.95,29.15-73.6,29.15-111.64,0-7.47-1.42-25.6-1.6-27.02-.71-6.93-3.2-20.8-3.2-20.98-15.47-76.62-68.62-141.15-142.04-171.37-28.27-11.73-59.2-18.31-91.55-18.31-118.22,0-217.59,84.62-236.26,201.24l-1.42,9.42,112.88,37.51-1902.5,6447.91,222.92,68.44,242.3-821.3,10569.34-2273.33L3916.28,2777.31ZM3660.82,2454.65c20.62-100.8,108.44-172.97,212.61-172.97,7.47,0,14.75.36,21.87,1.07l9.42,12.09c52.62,67.02,38.04,144.88-1.07,240.52l-243.01-80.53.18-.18ZM3768.73,2517.41l80,24.71-1905.88,6419.46-69.33-21.33,1895.21-6423.02v.18ZM3898.15,2838.46c109.86,734.19,489.94,3866.33-1568.82,5302.36l1568.82-5302.36ZM2321.15,8175.66c777.57-553.93,1311.06-1365.28,1549.62-2542.12,244.61-1206.7,115.2-2369.86,44.26-2832.77l8884.07,3123.42L2321.15,8175.66Z"/>
      <path d="M8076.64,4883.88l-110.93,387.01h218.66l-404.96,778.46h-23.64l-25.95-1165.46h-452.96l96.89,1651.49h570.82l922.45-1651.49h-790.37Z"/>
      <path d="M6002.95,5426.44c0,198.21,80.17,327.99,311.45,415.27l125.15,47.11c87.29,33.07,148.62,66.13,148.62,155.73,0,129.77-132.08,158.04-271.28,158.04-198.21,0-358.56-56.71-478.91-118.04l-108.44,372.78c129.77,75.55,344.34,115.55,551.98,115.55,429.32,0,750.19-174.57,750.19-577.93,0-193.41-73.06-327.81-311.45-417.58l-125.15-47.11c-80.17-30.75-148.62-63.82-148.62-155.73,0-127.46,129.77-158.04,259.54-158.04,160.35,0,290.12,47.11,384.52,99.02l108.44-372.78c-118.04-47.11-261.86-96.71-469.49-96.71-389.32,0-726.55,169.77-726.55,580.42Z"/>
      <path d="M5250.45,4883.88h-681.75l-110.93,386.83h212.26l-360.87,1264.48h434.12l132.08-462.38h129.77c469.49,0,884.59-250.12,884.59-695.97,0-379.9-304.34-492.96-639.26-492.96ZM5057.03,5700.21h-75.2l126.75-443.54h75.91c181.68,0,261.86,47.29,261.86,169.77,0,186.3-181.68,273.59-389.32,273.59v.18Z"/>
      <path class="cls-3" d="M5819.85,492.6L5659.85,0l-160.17,492.6h-518.02l419,304.52-160.17,492.6,419.18-304.52,419,304.52-160.17-492.6,419-304.52h-518.02.36ZM8173.7,492.6h-518.02L7495.69,0l-159.99,492.6h-518.02l419,304.52-159.99,492.6,419-304.52,419.18,304.52-160.17-492.6,419.18-304.52h-.18Z"/>
    </g>
  </g>
</svg>