<svg id="svg6302" xmlns="http://www.w3.org/2000/svg" viewBox="0 0 897.5 724.5" width="2500" height="2018"><style>.st0{fill:#fff}.st1{fill:#0f2d5b}.st2{fill:#e41349}.st3{fill:#fdd205}.st4{fill:#d3d3d3}.st5{fill:#091d3c}</style><g id="layer1" transform="translate(-316.634 -485.248)"><path id="path4004" class="st0" d="M446.2 485.2v485.5c0 38.4 4.9 53.1 16.7 73.6l.7 1.2.7 1.1c68.4 102.1 182 163.1 304 163.1 121.9 0 235.5-61 303.9-163.1l.7-1.1.7-1.2c11.8-20.5 16.7-35.3 16.7-73.6V485.2H446.2z"/><path id="path4008" class="st1" d="M453.7 492.8v478c0 38.3 5.2 51.3 15.9 69.9l.5 1 .5 1c67 100 178.3 159.5 297.7 159.5 119.4 0 230.7-59.5 297.7-159.5l.7-1 .5-1c10.7-18.6 15.6-31.6 15.6-69.9v-478H453.7zm9.6 9.6h609.8V970.7c0 36.2-4.4 47.7-14.4 65.1l-.5.7-.2.5c-65.2 97.3-173.6 155.5-289.8 155.5-116.2 0-224.3-58.1-289.5-155.5l-.5-.5-.5-.7c-10-17.5-14.4-28.9-14.4-65.1V502.4zm4.3 4.1v464.2c0 35.2 4 46.2 13.7 63l.5.7.2.5c64.4 96.2 171.4 153.5 286.2 153.5 114.8 0 221.7-57.3 286.2-153.5l.5-.5.2-.7c9.6-16.8 13.9-27.8 13.9-63V506.5H467.6zm17.3 17.5h566.6v446.6c0 33.1-3.8 40.9-11.5 54.3-59 88-158.7 145.8-271.8 145.8-113.1 0-212.8-57.8-271.8-145.8-7.7-13.4-11.5-21.2-11.5-54.3V524z"/><path id="path4024" class="st2" d="M732.4 542.5v58.1c-6.2-6.2-14.5-9.9-23.5-9.9-19.4 0-35.1 17.2-35.1 38.4s15.7 38.2 35.1 38.2c9.2 0 17.5-3.8 23.8-10.1v9.4H756V542.5h-23.6zm237.6.7V667h23.3V543.2H970zm39.7 0V667h23.3V543.2h-23.3zm-508.2 6.1v117.5h25v-97.3h14.9c9.2 0 16.1 6.9 16.1 15.4s-7.4 15.4-16.6 15.4h-5.8v28.1l25 38.4h29.3l-34.6-49c15.5-3.7 27.2-17.6 27.2-33.9 0-19.2-16-34.6-35.6-34.6h-44.9zm286.4.7v116.8h51.9c19.9-.3 35.8-15.2 35.8-33.6 0-13.4-4.6-22.9-20.4-30.3 6.4-6 10.3-14 10.3-22.8 0-8-3.3-15.4-8.6-21.1-5.6-6.2-15.4-8.9-28.8-8.9h-40.2zm25 20.2h15.9c6.9 0 12.3 5.6 12.3 12.5s-5.4 12.5-12.3 12.5h-8.2V616h14.9c8.3 0 14.7 6.8 14.7 15.1-.3 8.6-5.6 14.6-14.7 15.1h-22.6v-76zm-188.1 20.6c-21.4 0-38.7 17.5-38.7 39.2 0 21.7 17.3 39.4 38.7 39.4 16.4 0 29.2-7.4 35.8-19l-19.2-8.9c-2.4 5.2-8.1 9.1-14.7 9.1-8.8 0-15.9-6.6-15.9-14.7 0-.5-.3-.5-.2-1h51.9c.2-1.6.3-3.1.2-4.8.4-25.3-16.5-39.3-37.9-39.3zm259 4.1v46.9c0 15.8 16.5 28.6 36.8 28.6 20.2 0 36.5-12.7 36.5-28.6v-46.9H934v42.3c0 7-6.1 12.7-13.5 12.7s-13.5-5.7-13.5-12.7v-42.3h-23.2zM625 607.2c7.9 0 14.4 6.5 14.4 14.4h-28.8c0-7.9 6.5-14.4 14.4-14.4zm90.6 3.8c9.5 0 17.1 8.6 17.1 19s-7.5 18.7-17.1 18.7c-9.5 0-17.3-8.3-17.3-18.7 0-10.4 7.8-19 17.3-19z"/><path id="path4048" class="st3" d="M935.6 828.8c0 92.9-75.3 168.3-168.3 168.3-93 0-168.3-75.4-168.3-168.3s75.3-168.3 168.3-168.3c93 0 168.3 75.4 168.3 168.3"/><path id="path4052" class="st0" d="M913.7 883.4c-1.7-3.2-7.6-10.4-6.8-15 4.3.5 10.9.6 13.3.7-.7 1.4-5.7 12.7-6.5 14.3m300.1 50c-.3-1.3-.8-2.7-1.2-3.8l-.4-1c-.3-.8-.6-1.6-.9-2.5-.1-.4-.3-.8-.3-1.1-.1-.2-.1-.5 0-.7.4-4.8-.8-7.3-2.6-10.5-1.5-2.5-3.5-3.5-4.9-3.6-.3 1-1.3 1.6-2.3 1.6h-.4c-1.3-.2-2.3-1.5-2.1-2.9 0-.3.1-.7.1-1 0-1.3-.2-2.4-.9-3.6-1.6-3-13.2-12.5-17.6-12.5-3.6 0-7.3 2-10 5.2-.5.6-1.2.9-2 .9h-.2c-.8-.1-1.6-.6-2-1.3-.4-.7-.7-1.5-1-2.3-.8-2.1-1.2-4.2-1.7-6.3l-.4-1.6c-1.2-5.4-3-10.8-10.2-12.8-.6-.2-1.3-.3-2.2-.4-.8-.1-1.6-.1-2.5-.1h-.7c-1.4 0-2.9-.1-4.4-.3-2.9-.4-4.9-1.4-4.9-4.7 0-.3 0-.6.1-.8l.8-2.3c.6-1.7 1.4-4.2 2.1-7.2 1.2-5.6 1.3-10.8.3-15.3-.2-.8 0-1.7.6-2.3.5-.5 1.2-.8 1.9-.8h.4c2.9.5 5.3.5 6 .5 15.3 0 39.5-10 39.5-36.7 0-15.4-12.4-30-22.9-39.5-.7-.6-1-1.6-.7-2.5.2-.9.9-1.6 1.8-1.8 14.8-3.9 23-13.7 23-27.8v-.9c0-2.2 0-4.7-.4-7.4-.6-3.7-2-7.2-4.2-10.6-.2-.3-.6-.7-1.4-.7-.3 0-.5.1-.6.1-.6.2-1.2.5-1.7.8-1.4.9-3.4 2.6-5 4-1.8 1.6-4 2.7-7 3.7-1.9.6-3.8 1.1-5.8 1.7l-3.3.9c-7.1 2-14.8 4.9-23.4 12.4-3.9 3.5-6.7 9.2-6.9 14.7-.2 4.6 1.5 9.3 5.2 14.5 3.2 4.5 7.6 8.7 12.1 13l1.6 1.5c1.6 1.6 3.3 3.1 4.8 4.7 2.4 2.3 4.1 4.2 5.6 6 3.6 4.4 5.2 8 5.2 11.4 0 7.2-5.1 12-12.9 12-8.6-.1-15.2-3.4-24.4-9.4-1.4-.9-2.8-1.9-4.3-2.9-3.1-2.1-6.2-4.2-9.7-6.4-6.4-4-12.3-7.1-18.5-9.9-3.3-1.5-6.6-2.6-10.3-3.6-2.7-.7-5.2-1.2-7.7-1.7l-1.2-.2c-5.6-1.2-10.3-2.3-15.3-5.6-1.4-1-2.9-2-4.4-3-2.6-1.8-5.3-3.6-8.1-5.4-5.3-3.3-9.6-5.4-13.5-6.6-1.2-.4-2.5-.6-4.1-.9l-2.1-.3-1.6-.2c-2.5-.3-4.6-.8-6.9-2.1-1.4-.8-2.8-1.7-4.3-2.8-1.1-.8-2.1-1.6-3.2-2.5l-.7-.6c-2.7-2.1-5.7-4.3-10.2-6.8-6.9-3.7-13.8-5.6-19.7-7l-1.2-.3c-2.3-.5-4.3-1-6-1.6-1-.3-1.7-.6-2.3-.9-.4-.2-.7-.4-.8-.5-.2-.1-.3-.3-.5-.5-14.8-18.5-32.4-20-37.5-20-1.2 0-2.3.1-3.3.2-5.9.6-13 5.9-19.1 10.9-2.2 1.8-4.5 3.7-6.8 5.7-4.7 4-9.4 8.1-14.2 11.4-24.4 17.4-33.3 24.3-44.8 36.9-15.6 17.1-20.5 38.8-24.9 57.9l-.3 1.4c-2.1 9.3-4.3 18.9-7.5 27.7-3.7 10.3-8.3 18.1-14.5 24.5-3 3.1-5.5 5.5-7.6 7.3-1.4 1.2-2.5 1.9-3.5 2.6l-.6.4c-2.6 1.8-3.6 4.2-2.8 6.6 1 3.1 4.9 6.2 11.5 6.3.8 0 1.5.4 1.9 1 .5.6.7 1.4.5 2.1-.3 1.1-.1 2.1.7 3 1.8 2.3 6.1 3.6 8.5 3.7h1.1c11.7 0 21.7-4.3 29.8-12.7.5-.5 1.2-.8 1.8-.8.6 0 1.2.2 1.7.7 3.2 3 7.4 4.5 12.7 4.6h.6c2.5 0 5-.3 7.2-.5 1.2-.1 2.2-.3 3.3-.3.6 0 1.1-.1 1.7-.1h1.1c1.4.1 3.2.5 5.6 1.4 1.7.6 3.5 1.3 5.3 2l1.6.6c3.6 1.4 8.9 3.4 13.1 3.4h.7c9.2-.6 12.6-7.4 13.9-11.4.3-1.1 1.3-1.8 2.4-1.8h.1c1.2 0 2.1.8 2.4 2 .2 1 .5 1.9.8 2.8 1.4 4.9 3.3 8.1 6.2 10.6.9.7 2 1.2 3.6 1.5 1.4.2 3.3.3 6.2.4.6 0 1.1.2 1.5.5.3.2.7.6 1.4 1.3.6.6 1.2 1.2 1.8 1.7.5.5 1.3 1.1 2.2 1.4 12.9 4.4 29.7 9.1 38.1 9.3h.3c11.5 0 15.4-11 16.5-15.8.2-1 1-1.7 2-1.9 10.7-2.1 16.6-18.2 16.5-21-.1-5.2-2.1-7.2-7.2-7.6h-18.7c-.4 0-.8.1-1.2.2-.2.1-.5.1-.7.1-.9 0-1.7-.4-2.1-1.2-.7-1-1.4-1.6-2.7-1.9-.9-.2-1.7-.9-1.9-1.9-.2-.9.1-1.9.8-2.5.4-.3.7-.6 1.1-1 .5-.4 1.1-.7 1.7-.7h.1c2.5.1 7.5.3 12.2.3 2.1 0 4.1 0 5.9-.1 3.8-.2 6.9-.6 10.2-1 5.2-.6 10.6-1.2 18.6-1.2l17.5 1c3.7 0 7.1-.5 10.1-1.4.2-.1.5-.1.8-.1.5 0 1 .1 1.4.4.6.4 1.1 1.1 1.2 1.8 1.1 8.8 4 16.6 8.4 22.5 1.1 1.5 2.6 2.9 4.5 4.2 1 .7 2 1.3 3.1 1.9.6.4 1.2.7 1.8 1.1 4.6 2.9 10.3 6.5 17.5 6.5 1.9 0 3.9-.3 5.9-.8 2.1-.6 4.3-.8 6.6-.8 1.1 0 2.2.1 3.3.2 2.8.3 5.4.9 7.4 1.5l.5.1c3.3.8 6.5 2.1 9.6 4 2.6 1.5 4.8 3.2 6.9 4.8l.6.4c4.2 3.2 8.5 6.5 14.6 6.5h.7c.4 0 .9-.1 1.1-.2.3-.1.7-.2 1.2-.4.8-.3 1.8-.7 2.8-1.1.9-.4 2-.8 3.2-1h.5c.8 0 1.6.4 2.1 1.1.3.5.6 1 1 1.5.6 1 1.2 2 2 3 2.3 3 6.6 7 16.5 7.3h2.6c5.2 0 8.4-.4 9.8-.6h.4c.5 0 1 .2 1.5.5 1.1.7 2.2 1.1 3.4 1.1 2.7 0 6.6-.8 9.9-2 1.9-.7 3.5-1.5 4.7-2.4 1.5-1.1 2.4-2.4 2.6-3.7-.3-1.5-.5-2.7-.8-4.2M630 873.1c-1.7 2.1-4.3 2.8-6.7 6.9-4.7-1.8-5.6-8.1-6.4-10.8 3.8-.7 12.7-2.4 17.4-3.1-2 2.5-3.3 4.2-4.3 7m112.5 19.7c-4.8-2.7-7.6-6.9-9.6-10.2-.8-1.4-1.6-2.9-2.4-4.3l-.9-1.7c-.9-1.8-2.1-3.8-3.5-5.6-.5-.7-1.2-1.4-1.8-2.1l-1.9-2c-.6-.6-1.2-1.2-1.6-1.8-.5-.6-.8-1.1-1-1.5-8.4-21.5-10.4-33.7-13.4-55.1-1.6-11-8.3-19.9-19.2-33.3-1.4-1.7-2.9-3.6-4.5-5.7-1.1-1.4-2.3-2.9-3.5-4.4-3.6-4.5-6.5-7.9-8.8-10.1-3.9-3.3-7.4-6.2-10.5-8.9-4.4-3.8-8.2-7-11.7-9.8-6.6-5.4-11.6-9.2-17.4-13.1-8.1-5.5-16.8-8.3-25.8-8.3-9.2 0-16 3-18.3 4.5-7.8 5.3-13.6 8.5-20.2 11.3-4.8 2-9.7 3.6-16 5.6-2 .7-4.2 1.4-6.5 2.1-7.1 2.4-12.2 6.5-15.7 9.8-.9.8-1.7 1.6-2.5 2.4-.9.9-1.7 1.7-2.5 2.4-1.6 1.5-2.7 2.3-3.8 2.6-1.1.4-2.8.7-5.3.8-1.3.1-2.7.1-4 .2-1 0-1.9.1-2.8.1-8.2.5-14.7 5.1-19 8.5-2.2 1.8-4.2 3.7-6.2 5.4l-.9.9c-2.5 2.3-4.3 3.8-5.9 4.9-5.8 3.7-11.3 4.3-17.3 4.9-3.1.3-6.3.6-9.7 1.3-4.1.8-7.9 2.1-11.8 3.9-4.3 2-8.7 4.6-14.2 8.4-2.4 1.6-4.7 3.3-7 5-2 1.5-4.1 3-6.1 4.4-9 6.3-16.8 10.5-25.2 10.5-8.3 0-14.2-4.9-15-12.4-.7-6.6 2.7-13.3 9.5-18.9l3.8-3c2.8-2.3 5.4-4.4 7.8-6.4 4-3.4 6.7-6.2 8.8-8.9 5.2-6.8 6.5-13.8 4.2-22.6-2-8-8.1-13.4-18.7-16.6-3.8-1.1-7.6-1.8-11.2-2.4l-1.3-.2c-1.1-.2-2.1-.3-3-.5-1.2-.2-2-.4-2.5-.6-5.7-2.6-18.3-10.9-20.8-12.6l-1-.7-.7 1c-2.3 3.3-4.1 5.9-5.5 17.3-1.5 12.6 8.9 28 26.7 30.8 1 .2 1.8.9 2.1 1.9.2 1-.1 2-.9 2.6-18.9 14.9-22.9 21.2-23.9 37.9-.6 10.4 3 20.5 9.9 27.9 7.6 8 18.6 12.3 31.8 12.3 3.5 0 7.2-.3 11.1-.9h.4c.6 0 1.1.2 1.6.5.6.4.9 1.1 1 1.8.9 11.6 3 21.1 5.6 25.3.7 1 .5 2.4-.4 3.2-.8.7-2.1 1.5-3.7 2.1-4 1.6-10.1 2.5-16.3 2.5-3.8 0-6.6 2.6-8.9 8.2-.7 1.8-1.3 3.8-1.9 5.7l-.2.5c-.3 1-.6 1.8-.9 2.6-.3.7-.5 1.4-.8 1.9-.8 1.4-1.9 2.7-3.5 4.1-.5.4-1.1.6-1.7.6h-.4c-.8-.1-1.4-.6-1.8-1.3-1.9-3.4-4.8-5.5-8.7-6.4h-.5c-5.8 0-15.8 4.9-19.5 14.1-.3.9-1.1 1.5-2.1 1.6h-.5c-4.6.5-7.5 2.6-9.2 6.7-.7 1.8-1.1 3.7-1.4 5.4l-.2 1.3c-.3 1.4-.5 2.9-.9 4.3-.3 1.1-.7 2.1-1.3 3.2l-.9 1.5c-.2.3-.4.7-.6 1-1 1.9-1.6 3.8-.7 7.1.4 1.5 1.6 2.8 3.5 3.9 1.5.8 3.4 1.5 5.6 2 4 1 8 1.3 8.8 1.3.6 0 1.1-.2 1.6-.5.4-.2.8-.5 1.2-.8.5-.3 1.1-.6 1.7-.6h.4l1.9.4c1.5.3 3.5.7 5.4 1.1l.3.1c1.8.4 3.6.7 5.1 1 .8.2 1.5.3 2 .3.6.1 1.1.1 1.3.1 8-.4 11.3-3.5 13.6-6.5.6-.8 1.2-1.7 1.7-2.7l.9-1.5.7-1.2c.7-1.1 1.3-2.1 2-3.1.5-.7 1.2-1 2.1-1 .2 0 .4 0 .7.1.9.2 1.8.4 2.6.6 1.8.3 3.5.5 4.3.5.5 0 1 .1 1.5.1 7.6 0 13.2-4.2 17.9-8.2l1.5-1.3 2.1-1.8c.9-.8 2.2-1.8 3.4-2.6 2.3-1.5 4.2-2.2 6-2.2h.5c1.8.1 8.6.6 20.2 2.4.5.1 1 .1 1.5.1 2.6 0 5.9-.9 9.9-2.7 2.9-1.3 6.1-3 9.4-5.1.7-.4 1.6-.8 2.6-1.3l.3-.1c.9-.4 2-.9 3-1.4 1.9-1 4.7-2.6 6.9-5.4 1.3-1.7 3.1-5.1 4.8-8.7l1.9-3.9c1-2.2 2.1-4.4 3.3-6.7.4-.9 1.3-1.4 2.3-1.4h.7c3.6 0 7.9-.6 11.6-1.1 1.6-.2 3.3-.5 4.8-.7 3.4-.5 6.4-1 8.6-1.1.5 0 2 .1 4 .2l4.6.3c5.8.3 10.5.5 14.4.5 2.3 0 4.4-.1 6.1-.2 3.1-.2 5.9-.7 8.2-1.4.6-.2 1.3-.4 2-.7.3-.1.7-.2 1-.2.6 0 1.3.2 1.8.7 1.3 1.2 2.6 2.5 4 3.7.8.7 1.1 1.7.7 2.7-.3 1-1.2 1.6-2.2 1.7-.5 0-1 .1-1.5.2-1.6.2-4.5.9-6 2.8-.5.6-1.2 1-2 1-.4 0-.7-.1-1-.2-.3-.2-.7-.3-1.1-.4-.8-.2-1.5-.3-2.2-.3H537c-2.3 0-7.7 0-12.4.8-2.9.5-5.1 1.2-6.7 2.1-1.5.9-3.3 2.4-3.2 5 .3 4.8 7 17.7 11.6 22.3.9.9 3.9 1.8 7.2 1.8h1.3c.9 0 1.8.5 2.2 1.4 4.7 9.2 12.8 15.4 20.2 15.4h.5c7.1-.3 26.1-7.2 39.5-13.4.2-.1.3-.1.5-.2.4-.1.9-.2 1.5-.2.8-.1 1.7-.2 2.6-.3l1.3-.1c3-.4 6.3-.9 8.7-2 2.2-1.1 5.5-5.3 8.3-10.7.4-.9 1.3-1.4 2.2-1.4h.2c1 .1 1.9.8 2.2 1.8.3 1.1.7 2 1.2 2.9 2.3 4.3 6.3 6.5 12.1 6.5h.9c3.9-.2 8.3-1.5 12.1-2.7l2.2-.7c3.2-1.1 6.3-2.1 9.1-2.6 1-.2 2.2-.3 3.5-.3h1.9l3.6.3c.8.1 1.6.1 2.5.2 1.2.1 2.4.1 3.6.1 3.5 0 6.2-.5 8.7-1.7 3.6-1.5 6.3-3.5 8.2-4.8l.7-.5c.4-.3 1-.5 1.5-.5.6 0 1.2.2 1.7.6 5 4.4 15.8 11.9 31.6 11.9h1.6c3.8-.1 6.7-1.4 8.3-3.5 1.1-1.4 1.4-3.1 1-4.8-.2-.7-.1-1.4.3-2 .4-.6 1-1 1.7-1.1 2.6-.5 4.7-1.4 6.2-2.7 1.4-1.2 2.3-3 2.3-4.6 0-1-.4-1.9-1.2-2.7-1.5-1.5-2.5-2.1-7.5-4.9"/><path id="path4056" class="st0" d="M682.6 727.9c0-46.6 37.7-84.3 84.3-84.3 46.6 0 84.3 37.7 84.3 84.3 0 46.6-37.7 84.3-84.3 84.3-46.6 0-84.3-37.7-84.3-84.3"/><path id="path4060" class="st4" d="M703.5 773.4c24.6 17.8 59.2 20.6 86.3 6 29.4-15.2 47.2-46.6 44.5-80.4-.5-4.9-1.3-9.7-2.6-14.3 8.3 12.5 13.1 27.3 13.1 43.2 0 43.1-34.9 78-78 78-26 0-49.1-12.8-63.3-32.5"/><path id="path4064" class="st5" d="M766.9 649.8c-8.7 0-17 1.5-24.7 4.1l14.9 12s18.1-1.6 34.4.5c3.2-5.2 4.2-9.4 4.6-10.8-9.1-3.6-18.9-5.8-29.2-5.8zm-53.1 20.9c-10.5 9.8-18.2 22.5-22.1 36.8 1.7-2.5 5.5-8.2 10.1-13.9 4.8-10.8 10.2-19.9 12-22.9zm28.4 19s-21.4 9.6-29.3 13.7c0 0-1.5 16.3.5 35.1 0 0 12.3 4.5 30.5 8.9 0 0 13.6-21.6 18.3-30.8-.1 0-9.9-15.3-20-26.9zm68.4.7c-8.2 11.5-14.9 25.7-14.9 25.7 6.8 14.3 16.1 29.8 16.1 29.8 13.7-3.3 23.1-8.6 23.1-8.6 1.8-24.9-1-33.4-1-33.4-7.4-6.1-23.3-13.5-23.3-13.5zm-119.9 54.8c3.8 17 13.3 31.7 26.2 42.5.9-.6 2.3-1.7 3.1-2.6 0 0-12.2-17.4-17.1-27.4.1 0-8-8.2-12.2-12.5zm103.4 28.4l-33.9 1-13 18.5s9.1 7.1 25.2 10.6c0 0 15.4-3.9 28.1-11.5l-6.4-18.6zm139.3 173c-4.5.5-8.8 2.9-11.8 6.7-6 7.7-4.8 19 2.9 25L988 1028c7.7 6 19 4.8 25-2.9 6-7.7 4.5-18.9-3.1-25l-36.3-28.6-10.3 13.2 9.1 7.4 3.1-4.1 31 24.3-7.2 9.4-71.1-56 7.2-9.4 14.2 11.3 7.2-9.4-10.1-8.2c-3.9-2.8-8.8-4-13.3-3.4zm-331.3.5c-3.1 0-6 .6-8.4 2.2l-30.5 23.1-2.6 3.1c-5.9 9.1 3.6 16.2 7.9 23.3-10.6 8.1-21 16.6-31.5 24.3l-7-9.6c4.7-3.8 9.4-7.3 13.9-11.1-2.3-3.3-4.6-6.6-7.2-9.6-3.5 2.9-7.1 5.4-10.6 8.2-5.2 4.5-7.5 11-6.5 17.8.9 5.7 5.2 11.3 10.8 13.5 4.7 1.9 10.8 1.7 15.1-.7l33.6-25.7.5-2.9c3.2-8.7-4.9-14.4-8.6-21.1l31.2-24 7.2 9.4c-4.7 3.9-9.8 7.2-14.2 11.3l7.2 9.6 12.5-10.1c4.9-5.1 6.5-13.9 3.4-20.4-1.4-3.2-4.6-6.3-7.7-8.2-2.3-1.7-5.4-2.4-8.5-2.4zm297.2 39.6c-2.3.1-4.5.7-6.5 2.2l-19.2 13.9 66.8 92.5 9.6-7-30-41.6 9.6-6.7 25 34.6c1.7 2.3 4.8 4.1 7.2 5.3l9.9-7c-3-1.4-5.6-2.7-7.4-5.3l-22.1-30.8c-4.1-5.7-7.6-6.3-10.6-5.5 1.4-3 2.2-6.2-1-10.6l-21.1-29.3c-2.5-3.2-6.4-4.8-10.2-4.7zm-261.4 2.4c-4.5.5-8.8 2.9-11.8 6.7l-60.3 76.4 9.4 7.4 31.5-40.4 9.4 7.4-31.7 40.1 9.4 7.4 60.3-76.6c6-7.7 4.5-18.7-3.1-24.7-4-2.9-8.6-4.2-13.1-3.7zm261.9 9.4l22.8 32-9.4 7-23.1-32 9.7-7zm-261.4.7l9.4 7.4-24.5 30.8-9.1-7.2 24.2-31zm42 12.7l-49.7 102.8 32 15.4 15.6-32-10.8-5.3-10.3 21.4-10.6-5L691 1017l-10.6-5.1zm178.3.5l-10.8 4.3 38 95.1-11.1 4.3-38-94.9-11.1 4.3 36.3 90.3c3.6 9.1 14 13.5 23.1 9.9 9.1-3.6 13.5-14 9.9-23.1l-36.3-90.2zm-140.8 15.9l-6.2 35.1 11.8 1.9 4.1-23.1 11.3 1.9-38.9 84.8-2.2 11.8 35.1 6.2 6.2-34.8-11.8-2.2-4.1 23.3-11.3-2.2 38.9-84.8 2.2-11.8-35.1-6.1zm80.5 4.1l-23.5 2.6 13.7 113.4 23.3-2.6c6.5-.8 11.1-6.7 10.3-13.2l-4.1-34.6c-.8-7-3.5-9.1-6.5-9.9 2.7-1.9 5-4.2 4.3-9.6l-4.3-35.8c-.8-6.5-6.7-11.1-13.2-10.3zm1.4 11.7l4.6 38.9-11.8 1.4-4.6-38.9 11.8-1.4zm6 50.7l4.8 39.2-11.8 1.4-4.8-39.2 11.8-1.4z"/><path id="path4072" class="st2" d="M347.7 718.2c-2.2 3.4-2.9 6.9-2.6 11.1 1.2 9.3 8.2 17.7 17.1 20.9 5.2 2.2 11.1.5 16.3 1.7 1.5.6 3 2.2 3.1 3.8-.3 1.5-.4 2.8-1.7 3.8-8.2 6.9-16.9 13.6-23.8 22.1-7.4 7.9-8.4 22-4.6 32 4.3 11.5 16.2 19 27.6 20.4 8.4 1.3 15.9-1 23.5-2.6 1 0 1.5 1.1 1.9 1.7.7 6.8-.3 12.8 1.2 19 1.3 5.7 3.2 9.8 5.3 15.4.3 1.9-.1 3.8-1.4 5.3-4.3 3.2-8.5 5.6-13.2 7.7l-11.5.7-2.2 1c-4.3 5-4.3 10-7 15.6-3.5 5.9-10.2 8.9-15.6 12.3-1.8 2.8-3.5 5.7-6 7.9-1.9 1.8-4.5 2.1-7 2.4-4 4.6-4.7 10.9-5.8 17.1 6.5.6 13.1 4 19.5.5 5.4-2.5 6.7-9 10.8-13 3.2-3.5 8.2-1 12-.2 5.7.3 9.8-3.9 14.7-5.8 3.4-2.2 6.1-6 9.6-8.2 6.8-3.2 16.2-1.3 23.3 0 5.6 1.5 11.5.5 16.3-1.7 4.6-2.8 8.8-6.3 13.9-7.4 4.6-2.4 6.7-7.5 8.6-11.8 1.5-4 5.3-7.2 5-11.8-1.2-1-2.6-3.3-4.3-3.1-2.2 3.1-3.7 6.4-6.2 9.4-10.6 14.5-19 15.9-40.6 15.9-16-.6-30.5 4.3-41.6 16.8-.7.4-1.8.1-2.4-.5-.4-1.8 1.2-4.7 1.9-6 9.9-14 25.2-17.2 41.3-17.5 8.8-.6 17.2-1.9 24.7-5.8 8.4-4.3 14-11 17.5-19.2 1.9-9.3 2.7-19.3 5-28.1.3-.9 2.4-1.5 3.1-1.2.9.1 2.6.9 2.6 1.9-1.6 9.1-4.5 20-1 28.8 7.1 9.3 20.2 4.3 29.8 3.8 10-.9 17.8-.1 27.4.5 4.7-.1 8.3.8 12-2.2 1-1.6 1.3-3.8 1-5.5-.3-2.6-2.5-4.3 0-6.5.7-.6 3 0 3.6.7 1.3 3.7 2 7.6 4.3 10.8 4.7 6 11.6 10.8 18 14.2 6.2 4.3 11.3 10.3 11.8 17.8 0 3.8-3.5 6.4-6.5 8.2-5 2.5-10.5 4.7-16.3 4.1-7.8-3.8-9.7-12.2-14.9-18.3-2.6-2.9-6.6-3.4-10.6-3.1-4.3.4-8.7.6-12.5 1.9-1 .9-1.3 2-1.2 3.4 2.6 4.8 5.7 9.6 8.6 14.4 3.4 2.1 8.1-1 11.1 2.6 2.5 3.8 4.1 8.4 7.9 11.3 3.7 3.2 9.3 4.7 14.2 2.6 10.9-3.4 21.6-6.8 31.7-12.3h3.4c4.1-.4 8.8-.3 11.8-3.4 3.2-4.7 5.9-9.2 8.4-14.2 2.5-3.4 1.3-8.3.2-12-5-6.2-7.9-13.1-10.6-20.2-2.5-.7-4.7-2.3-7.4-2.2-1.3.6-3.1.2-3.8 1.7l11.5 23.1c.7 1.8 1.6 4.1 1.2 6.5-1.6 4.9-4.2 9.7-8.2 13.2-.7.4-1.6.8-2.2-.2 1.3-5 3.7-10.4 3.4-16.1l-11.3-20.4c-1.3-2.8-3.7-5.4-3.6-8.6 0-1.5 1.5-2.3 2.6-2.9 5-1.6 11.1-1.3 14.9-5.3 5-7.8 5.9-15.5 7.2-24.7.3-.6 1.5-1.7 2.4-1.7.9-.3 2 1 2.4 1.4 1.5 10.1-.6 20.4-6.5 28.4-.3 1-.7 2.4.5 3.1 5.6 1.8 11.4-.1 16.1-2.6 6 .2 11.6-1.3 17.1-2.2.6.3 1.2.8 1.2 1.4-3.7 4.1-5.7 8.6-6.7 13.9-4.4 4.6-10.8 8.5-11.3 15.1.7 3.2 3.6.2 5.5.5.9.2 1.4.8 1.4 1.7l-4.3 6.5c-2.4 3.8.2 8.3.2 12 1 2.9 4.6 4.3 7.7 4.3 6.6-.3 12.6-2.7 18.5-4.8 6.5-2.8 14.6-2.6 21.6-1.4 6.9-.4 11.9-5 17.1-9.6 2.8 0 5.3 2 7.2 4.1 7.9 8.5 18.2 12.1 29.8 11.8l1.2-.5c.7-.7.4-2.1-.5-2.6l-7-3.6c-4.8-3.1-10.9-7.3-12.5-12.7-1.5-4.8-4-9.9-7-14.7-1-2.3-3.5-4.4-4.6-6.7.3-.3.8-.6 1.2-.5 7.7 2.7 12.1 10.1 15.6 16.8 5.6 7.8 13.7 14.5 24.3 12.7l1-.7c.5-.6.3-1.5 0-1.9l-5.3-2.6c-8.8-5.2-12.3-14.7-17.8-22.3-1.9-2.8-5.4-4.7-7.2-7.4-6.3-17.2-11.6-34.4-13.2-54.1-1.3-4.9-2.4-9.9-5-14.4-7.9-12.9-18.3-24.6-28.4-36.5-.9-.9-.7-1-2.6-2.9l-34.8-29.1c-4.3-3.2-9.1-5.2-13.9-7.4-7.3-2.8-17.5-2.1-24.7 1-7.5 4-14.2 9.6-22.1 12.3-11.5 5.2-24.5 6.3-34.4 15.1-5.7 5-10.5 12.6-19 11.3-9.6-.4-18 3.2-25.2 9.1-6.5 5.9-12.8 12.8-21.1 14.4-7.4 3.1-16.3 1.5-23.8 4.3-11.9 2.9-21.3 12.3-31.5 19.5-10.1 5.9-19.8 12.3-32.4 12-8.2-.6-16.1-6.2-18.7-14.2-2.5-9.1.2-18.6 7.4-24.7 7.5-9 19.3-14.2 25.2-24.5 3.1-5.4 2.7-14.3-1.4-19.5-7.8-8.1-18.9-8.3-29.1-10.8-5.9-2.1-11-7-16.8-10.1zm584.1.4c-4.4.3-7.7 3.3-11.1 6.2-22.5 19.7-48.1 33.3-68.7 55.7-13.8 14.3-17.7 32.2-22.8 49.7-7.4 26.5-10.4 55.5-37 71.8-.5.7-.4 2.1.5 2.6 7.1 1.8 14-.9 18.7-5.8 4.6-7.2 9.4-14.1 15.6-20.7l1.4-.7c.7.1 1.5.4 1.2 1.4-1.8 5.9-6.9 10.2-8.6 16.1-2.4 7.1-9.2 12.5-14.9 17.5l-.2.7c0 .7.7 1.5 1.4 1.7 12.9.6 22.3-8.6 31-17.3.9-.9 1.9-.8 3.1-.5 3.8 3 7.5 7.4 12.5 8.4 5.3-.7 10.8-1.4 16.3-1 7.8 2.4 15.3 5.5 23.1 8.2 4-.1 6.8-4 8.9-7.2 1.6-3.8-.5-7.6-.2-11.3 1.9-1.2 4 .3 6-.2.9-.6 1.7-1.6 1.7-2.6-1.5-6.8-7.5-11.9-9.4-18.3-2.9-8.1-12.4-13-14.2-21.6.4-.6 1.2-1.3 1.9-.7 6.3 4.6 11.7 10.6 19.5 11.8 5.9.6 12.1 1.2 18 .7.9-.3 1.5-1.4 1.2-2.4-2.5-5.3-4.8-10.6-6.2-16.3-2.1-7.2-3.6-17.3-1.2-25.2.4-.6 2.2-1.7 3.1-1.4 1.2.3 2.7 1.9 2.9 2.9.9 12.5-.5 24 7 33.9 3.2 5.1 8.8 6.1 12.7 10.1 1.5 2.1 2 5.3 1 7.7l-9.1 13.2c-2.1 3-4.1 6.4-4.8 9.6-.7 3.7-.3 7 0 10.6-.6.3-.9-.4-1.4-.7-2.4-4.9-4.9-11.1-2.4-16.8l11.3-17.5.2-1.4c-2.5-1.3-5.3-2.5-7.9-3.1-1.3.6-2 2-2.9 3.1l-11.1 19.9c-.7 2.3-1.5 4.2-1 6.7.6 2.9 1.3 5.7 2.6 8.2.9 4.1 1.7 7.1 3.6 10.8 2.8 3.1 6.6.1 10.1 1s4.9 5.2 8.4 6.2c7.9 2.6 16.3 4.1 24.3 7.2 4.1 1.3 10 2.9 13.7-.5 5.1-2.8 6.6-8.1 7.4-13.2 1.6-2.2 4.9-1.4 7.2-2.2 4.4-3 5.9-8.3 9.1-12.3l.5-1.9c-.4-1.3-1.5-2.2-2.6-2.6h-15.1c-6.9.9-7.4 8.5-10.3 13.2-1.6 2.9-5 4.1-8.4 3.8-7.1-1.9-15.5-2.9-18.7-10.6-.4-1.9-.5-4.2 1-5.5 3.7-4.3 7.9-9.2 12.5-12.7 6.5-1.3 13-6 16.3-11.8 1.8-2.5 1.4-6.3 4.3-8.2.9-.1 2.8-.2 3.4.7 1.3 4.3-1.1 7.4-2.4 11.1 16 1.6 28.6-3 44.2-2.4 6.6 0 12.5.7 19 .2 6.5-.3 13.6-3.1 15.6-9.9 2.9-8.7-1.2-18.4-2.6-26.7l1.7-1.4c1-.6 2.9.4 3.6 1 2.8 7.8 4.6 17.2 5.8 25.7 1.2 7.5 4.5 12.4 8.6 18.7 7.5 11.2 20.6 15.5 33.6 12.7 15.9-1.2 29.7 7.1 39.4 19.5v.7c-.3.6-.9 1.3-1.7 1.2-8.4-6.5-16.7-13.3-27.4-14.7-10.9-2-20.6 3.6-32-1-13.6-4.5-19.5-12.8-25.2-26.2h-1.2c-.9.1-1.3 1-1.4 1.9l1.4 9.1c1.8 7.3 4.1 15.8 12 19.2 6.2 3.7 12.1 9 19.7 7 13.4-2.9 26.9.9 37.2 8.4 3.4 1.9 6.2 5.4 9.9 6.7 4 1.6 8.8.7 12-1.9 7.5-2.5 9.3 7 14.4 10.3 4.5 4.4 13.7 2.6 19.7 2.6l-.2-.7c-.7-6-2.2-10.8-4.6-16.1-7.5.5-11.2-7.5-15.6-12.3-3.7-4.3-11-6.9-10.8-13.2-1.3-2.5-1.7-6.4-2.9-9.6-1-2.6-2-6.4-5.5-7-6.3-1-13.8.6-17.8-5.3-4.1-4.4.2-9.4 1-13.7 1.8-5.4 2.1-12.7 1.2-18.3-.2-3.2-2.5-5.9-1.9-9.1 1.5-2.8 5-.8 7.2-.5 8.2 2.3 18 1.1 25.5-2.2 10.3-5 18.5-15.2 18-27.2-1.5-15.4-12.4-28.2-24.3-38.2-2.2-1.9-5-3.9-5.8-6.7-.3-6 6.5-3.1 9.9-4.6 4.1-1 8.2-2 11.5-4.3 9-6 10.9-16.6 9.1-26.9-.3-.9-.1-2.2-1.4-2.2-1.6 1.3-3.5 3.2-5.5 4.3-5.7 3.4-13.2 2.8-19.2 5.8-7.5 3.2-16.7 7.8-19.9 16.3-.9 4.3 0 8.7 1.9 12.3 9.1 14.4 28.4 23.7 31.5 41.1 1.2 7.1-2.3 12.1-7.7 16.1-8.2 5-20.6 3.2-28.8-1.2-15.9-7.9-29.8-21.2-46.9-26.7-10.7-4.8-23.8-3.5-33.4-11.1-7.2-4.7-14-10.9-22.1-13-5.6-1.9-11.7-1.5-16.8-4.3-5.3-4.7-10.9-9.2-17.1-12.3-8.5-4.3-18-6.3-27.4-8.4-5.6-1.3-7.7-7.7-12.3-10.8-7.8-5.4-16.6-9.7-27.2-8.9zm-.9 35.1c.8-.1 1.7-.2 2.4 0 .9.3 1.5 1 1.9 1.9.4.6.5 1.1.5 1.7 0 .4-.1 1-.2 1.4l-.7 1.2-.7 1-4.6 4.3-5 4.8c-3.7 3.6-6.3 6.7-8.2 9.6-1.6 2.2-2.7 4.5-3.8 7-.4.7-1.2.9-1.7.7 0 0-.3-.2-.5-.2v-.2c-.3-.9-.5-1.8-.5-2.9 0-.8.1-1.7.2-2.6l1-3.8.5-1.4c2.8-7.5 9.1-15.5 17.3-21.6.4-.5 1.3-.7 2.1-.9zm-316.5 10.1c.8-.1 1.5 0 2.2.2l.2.2c2.5 1.7 4.1 4.6 5.3 6.7 1.5 3.5 2.2 7.8 2.2 12.3 0 3.4-.3 6.8-1.2 10.1v.2h-.2c-.4.4-1.2.7-1.9.2 0 0 .1-.2 0-.2 0-.1-.2-.2-.2-.2-1.1-5.9-2.4-12-4.8-17.8l-1.2-2.4-.7-.7-1-1.7c-.9-1.5-2-3.4-.7-5.8l.2-.2c.4-.5 1.1-.8 1.8-.9zm67.1 57.4c.6.1 1.3.2 1.9.5 2.1 1.1 3.4 3 4.3 4.6l.5 1 1 1.4 1.7 2.2c4.7 5.3 7 10.4 7 15.6 0 1.3 0 2.5-.2 3.8 0 .1-.5 1.2-.5 1.2 0 .1-.5 1.4-.5 1.4-.4 1.2-1.2 1.7-2.2 1.9-.6.2-1 .1-1.4-.2-.5-.3-.7-.8-.7-1.4l-.2-1.4-.5-4.3c-.4-2.1-1-3.9-1.9-5.3l-1.9-2.2c-.1-.1-2.2-2.6-2.2-2.6-1.7-1.7-3.4-2.6-5-2.6-1.3.4-2.4 1.3-3.6 2.6l-1.4 1.9-1.4 1.9c-.5.9-1.7.2-1.7.2h-.2v-.2c-.3-.9-.5-1.8-.5-2.6 0-1.4.5-2.6 1-3.6l1.2-2.4 1.2-2.9.2-.2c.4-.4.7-1.2 1.2-2.4l.5-1 .7-2.2c.6-2 1.9-2.8 3.6-2.7zm182.3 5.1c2.8-.5 4.7 2 5.3 3.1 2.4 3.1 4.4 6.8 6.2 11.3.1.3 0 .6 0 1v.5l-.5 1.4c-.3.5-.7 1.1-1.2 1.4-.5.3-1.1.5-1.9 0-.8-.3-1.4-.7-1.9-1.4l-.7-1-.5-1c-.7-1.1-1.3-2-2.9-1.9-1.4-.1-2.3.6-3.1 1.2l-1 .7-.5.2-1.7 1.2c-.1 0-2.2 1.7-2.2 1.7l-.7.7-3.1 2.9c-2.1 2.2-3.2 4.1-3.6 6.2l-.5 1.7v.7l-.2 1c-.2 1-.6 2-1.7 2.6-.7.2-1.5.3-2.2-.2-.5-.4-1-1.1-1-1.7-.6-7.1 2-13.8 7-18.3 2.5-2 4.5-4.6 6.2-6.7l1.9-2.4 3.8-4.8.7-.1zm-185.9 53.6h1.2l1 .2c.5.1 1.5.7 1.7 1.9.1.7.2 1.4.2 2.2 0 2.3-.5 4.8-2.4 6.2h-.2c-2.7.9-5.8 1.4-9.1 1.2l-.2-.2-.7-.2-.5-.2c-.3-.3-1-.8-.7-1.7 1.1-3.9 4.9-8.4 9.7-9.4zm183.8 3.1h.2c3.9 0 6.8 1.3 8.6 3.6l.5 1.2 1 1.9c.3.7.5 1.1.5 1.7 0 .6-.2 1.2-.5 1.7v.2c-1 .7-2.2 1-3.8 1l-2.9-.5h-1l-.2-.2c-2.8-1.6-3.3-4.7-3.6-7.9 0-1.1.2-1.8 1-2.4-.1-.1.1-.2.2-.3zm-508.2 14.2c-.6.1-1.2.3-1.7.5-3.2 2.8-6.6 5-10.1 7.2-1.5 1-.9 3.2-1.2 4.8 0 1.5 1.7 2.5 2.6 3.4 1.6.7 3.5.8 5.3.2 4.6-2.6 7.5-7.5 9.9-11.8-.4-1.6-2-2.9-3.4-4.1-.4-.4-.8-.3-1.4-.2zm825.6.2c-2.2.1-4.2 2.7-5.3 4.3 1 3.5 4 6.4 6.2 9.6 1.2 1.8 3.2 3 5.3 3.1 2.1 0 3.6-1 5-2.2 1-1.3 2.1-2.9 1.7-4.8-2.8-3.8-7-6.2-10.6-9.1-.7-.6-1.6-.9-2.3-.9zm-846 16.3c-2.4 1.2-4.9 3.4-5.5 6-.7 4.7.3 9.1-3.4 12.5-.1.9-.9 2 0 2.9 3.2 1 6.4 2.2 10.3 2.6 1.8-5.7 3-12.1 5-17.1v-1.4c-1.7-2.1-3.5-4.9-6.4-5.5zm863.8 1c-2.1 1.8-5 3.6-4.6 6.7 1.8 5.3 2.8 9.2 3.8 14.7.6 1 .1 3.1 1.7 3.1l9.4-3.1c1.6-2.6-1.3-4.7-1.9-7.2-.7-3.4 0-8-2.2-11.1-1.9-1.4-3.8-3.7-6.2-3.1z"/><path id="path4084" class="st2" d="M556.1 898.2c2.9 3.2 2.8 8.2 6.2 10.7 4.4.7 8.4-1 11.8-3.7 1.9-1.6-.9-3.7-1.2-5.6-1.9-2.8-.6-8.4-5.3-8.5-4.7.7-9.4.9-14.1.9l-1.3.9c-1 2.8 3.1 2.8 3.9 5.3"/><path id="path4096" class="st2" d="M972.5 893.8c-4 .7-8.5-.2-12.5.4-1.8 2.6-3.4 5.9-2.9 9.4.4 3.7 4.6 4 7.2 5 2.5.3 6.2 1.2 7.5-1.5 1.5-3.8 2.8-7.9 3.4-12.1-.3-1.1-1.5-1.5-2.7-1.2"/></g></svg>
