<?xml version="1.0" encoding="UTF-8" standalone="no"?>
<svg
   xmlns:dc="http://purl.org/dc/elements/1.1/"
   xmlns:cc="http://creativecommons.org/ns#"
   xmlns:rdf="http://www.w3.org/1999/02/22-rdf-syntax-ns#"
   xmlns:svg="http://www.w3.org/2000/svg"
   xmlns="http://www.w3.org/2000/svg"
   xmlns:sodipodi="http://sodipodi.sourceforge.net/DTD/sodipodi-0.dtd"
   xmlns:inkscape="http://www.inkscape.org/namespaces/inkscape"
   inkscape:version="1.0 (4035a4f, 2020-05-01)"
   height="400"
   width="236.45825"
   sodipodi:docname="Logo Stade Reims - 2020 (alternatif).svg"
   version="1.1"
   viewBox="0 0 236.45825 400"
   data-name="Calque 1"
   id="Calque_1">
  <metadata
     id="metadata909">
    <rdf:RDF>
      <cc:Work
         rdf:about="">
        <dc:format>image/svg+xml</dc:format>
        <dc:type
           rdf:resource="http://purl.org/dc/dcmitype/StillImage" />
      </cc:Work>
    </rdf:RDF>
  </metadata>
  <sodipodi:namedview
     inkscape:current-layer="Calque_1"
     inkscape:window-maximized="0"
     inkscape:window-y="0"
     inkscape:window-x="0"
     inkscape:cy="181.595"
     inkscape:cx="71.580002"
     inkscape:zoom="1.6355076"
     showgrid="false"
     id="namedview907"
     inkscape:window-height="900"
     inkscape:window-width="1440"
     inkscape:pageshadow="2"
     inkscape:pageopacity="0"
     guidetolerance="10"
     gridtolerance="10"
     objecttolerance="10"
     borderopacity="1"
     bordercolor="#666666"
     pagecolor="#ffffff" />
  <defs
     id="defs874">
    <style
       id="style872">.cls-1{fill:#EB0000;}</style>
  </defs>
  <title
     id="title876">logo</title>
  <path
     style="stroke-width:1.65194"
     id="path878"
     d="M 118.22912,400 C 182.35731,380.85405 236.45825,308.64789 236.45825,242.04179 V 113.30635 h -21.72297 v 128.73544 c 0,26.16668 -10.10986,54.69563 -28.44636,80.35021 0,0 -26.00148,39.38218 -68.0598,54.51392 C 76.17081,361.77418 50.169324,322.392 50.169324,322.392 31.816305,296.75394 21.72297,268.20847 21.72297,242.04179 V 113.30635 H 0 V 242.04179 C 0,308.64789 54.100933,380.83753 118.22912,400 Z"
     class="cls-1" />
  <path
     style="stroke-width:1.65194"
     id="path880"
     d="m 96.67135,336.64822 v -135.0128 l -26.910055,14.86743 v 90.85653 a 149.23598,149.23598 0 0 0 26.910055,29.28884 z"
     class="cls-1" />
  <path
     style="stroke-width:1.65194"
     id="path882"
     d="m 144.57752,266.82085 23.60618,39.44825 a 158.15644,158.15644 0 0 1 -20.1206,23.5401 l -45.01528,-83.34022 26.74486,0.0991 a 7.0537705,7.0537705 0 0 0 5.05493,-2.16404 7.747584,7.747584 0 0 0 2.19707,-5.46791 V 219.8893 a 11.0019,11.0019 0 0 0 -5.50094,-9.01958 C 119.10465,204.41065 97.81118,192.35151 82.15082,183.38149 A 27.702982,27.702982 0 0 1 68.258033,159.39539 V 139.98513 A 27.686462,27.686462 0 0 1 95.91146,112.33171 h 46.55158 a 21.47518,21.47518 0 0 1 21.47518,21.47518 v 11.96002 l -26.91005,14.86743 v -17.44445 c 0,-4.37763 -3.30388,-7.20244 -8.4414,-7.20244 h -22.61502 a 8.4579169,8.4579169 0 0 0 -8.4414,8.42487 v 11.23317 a 10.242009,10.242009 0 0 0 5.13753,8.87091 c 0.28083,0.14867 23.9696,12.38952 46.84893,24.67993 a 27.48823,27.48823 0 0 1 14.504,24.25044 v 32.31188 c 0,0 0.56166,18.23739 -19.44329,21.0622 z"
     class="cls-1" />
  <path
     style="stroke-width:1.65194"
     id="path884"
     d="m 184.10837,70.174279 v -8.689188 a 39.976873,39.976873 0 0 1 2.75873,-14.570083 l 12.05914,-30.726026 h -21.24391 a 17.064508,17.064508 0 0 1 -4.6089,10.175931 c -3.93161,3.733377 -9.91162,5.154043 -15.8586,5.154043 C 140.97629,31.518956 128.80152,16.50285 128.80152,0 h -21.12827 c 0,16.519369 -12.17478,31.518956 -28.413318,31.518956 -5.980011,0 -11.926984,-1.420666 -15.858594,-5.154043 A 17.064508,17.064508 0 0 1 58.792434,16.188982 H 37.548526 L 49.607665,46.915008 A 39.976873,39.976873 0 0 1 52.3664,61.485091 v 8.689188 z M 125.38201,57.470885 a 51.342199,51.342199 0 0 1 -14.27273,0 67.432064,67.432064 0 0 1 -9.23433,-16.519369 71.941852,71.941852 0 0 1 16.45329,-12.290411 v 0 a 72.800859,72.800859 0 0 1 16.37069,12.240853 67.729413,67.729413 0 0 1 -9.31692,16.568927 z"
     class="cls-1" />
</svg>
