<?xml version="1.0" encoding="UTF-8"?>
<svg xmlns="http://www.w3.org/2000/svg" version="1.1" xmlns:inkscape="http://www.inkscape.org/namespaces/inkscape" xmlns:sodipodi="http://sodipodi.sourceforge.net/DTD/sodipodi-0.dtd" xmlns:svg="http://www.w3.org/2000/svg" viewBox="0 0 481.2 600">
  <defs>
    <style>
      .cls-1 {
        fill: #cdb789;
      }

      .cls-2 {
        fill: #254d98;
      }

      .cls-3 {
        fill: #fff;
      }

      .cls-4 {
        fill: #d2353b;
      }

      .cls-5 {
        fill: #1d995b;
      }
    </style>
  </defs>
  <!-- Generator: Adobe Illustrator 28.7.1, SVG Export Plug-In . SVG Version: 1.2.0 Build 142)  -->
  <g>
    <g id="logo_aplati">
      <sodipodi:namedview id="namedview957" bordercolor="#666666" borderopacity="1.0" inkscape:current-layer="logo_aplati" inkscape:cx="111.53896" inkscape:cy="258.30075" inkscape:pagecheckerboard="0" inkscape:pageopacity="0.0" inkscape:pageshadow="2" inkscape:window-height="900" inkscape:window-maximized="0" inkscape:window-width="1440" inkscape:window-x="0" inkscape:window-y="0" inkscape:zoom="0.93689235" pagecolor="#ffffff" showgrid="false"/>
      <g>
        <path class="cls-1" d="M480.8,139c-60.2-36.9-128.6-60.3-201.3-66.6l-12,8.7c32.8,2,65.2,7.5,96.8,16.6,37.3,10.7,73.3,26.5,107.1,46.7.5,18.8,0,37.9-1.4,56.9-6.5,86.1-32.3,168.3-74.8,237.8-40.3,65.9-93.6,117.6-154.6,149.9-61-32.2-114.3-84-154.6-149.7C43.4,369.8,17.5,287.6,11.1,201.5c-1.4-18.9-1.9-38-1.4-56.9,33.8-20.2,69.8-35.9,107.1-46.7,31.5-9.2,64-14.8,96.9-16.8l-12-8.7C128.8,78.6,60.6,102.1.4,139c-.7,20.7-.3,41.8,1.3,63.1,13.5,181.3,110,331.8,238.9,397.9,128.9-66.1,225.4-216.6,239-397.9,1.6-21.4,2-42.4,1.3-63.1Z"/>
        <path class="cls-5" d="M91.7,177.2l-1.8.5,3.8,37.8,16.4-5.2-18.4-33.2ZM458.7,152.1c-57.8-33.3-122-53-187.5-57.7l12.2,37.4-42.8-31.1-42.8,31.1,12.1-37.4c-65.6,4.7-129.7,24.4-187.5,57.7-.2,16,.3,32.3,1.5,48.5,6.3,84.1,31.6,164.3,73,232.1,37.7,61.5,87.2,110.5,143.7,142h0c56.3-31.5,106-80.3,143.7-142,41.4-67.8,66.7-148,73-232.1,1.2-16,1.7-32.3,1.5-48.5ZM354.4,265.1l-1,3.4-5.5-1.5-1.9,6.7,7.9,2.1-1,3.5-11.6-3.2,6.7-24,11.6,3.2-1,3.5-7.9-2.1-1.9,6.9,5.5,1.5ZM247,238.4l14.6.4v3.7c-.1,0-5.4-.2-5.4-.2l-.6,21.1h-3.9c0-.1.6-21.1.6-21.1l-5.3-.2v-3.7ZM267.8,302.1c-.3,1.2-1.6,3.4-3,4.4.2.4.4,1.1.4,1.6,0,1.7-1.4,3.1-3.1,3.1s-.7-.1-1.1-.2l-.3.9-1.7,6.1c-4.9-1.2-11.5-1.5-18.1-1.5s-13.7.3-18.8,1.5l-1.7-6.1-.3-.9c-.3.1-.7.2-1.1.2-1.7,0-3.1-1.4-3.1-3.1s.1-1.2.4-1.6c-1.4-1-2.7-3.2-2.4-4.4-1.9-6.9,3-9.5,7.7-8.6-.1.7-.2,1.6-.2,2.4s0,2,.2,3h-1.1c-3,.3-3.8,4.1-3.1,6.8.5-.5,1.2-.7,1.9-.7,1.7,0,3.1,1.4,3.1,3.1s-.3,1.6-.9,2.1l4.9,3.2,1.5-4.9c-1.4-.2-2.6-1.5-2.6-3s.1-1,.3-1.4c-1.2-1.4-2.2-3.2-2.6-4.4-3.7-13.7,13.9-13.8,17.6-4.8,3.7-9,21.4-8.8,17.6,4.8-.3,1.1-1.4,3-2.6,4.4.2.4.3.9.3,1.4,0,1.5-1.1,2.8-2.6,3l1.5,4.9,4.9-3.2c-.5-.6-.9-1.3-.9-2.1,0-1.7,1.4-3.1,3.1-3.1s1.4.3,1.9.7c.7-2.7-.1-6.5-3.1-6.8-.4-.1-.7,0-1.1,0,.1-1,.2-1.9.2-3s-.1-1.6-.2-2.4c4.6-.9,9.6,1.7,7.7,8.6ZM267.1,264.1l1.7-24.8,3.9.3-1.7,24.8-3.9-.3ZM223.8,323.3l-.6-3.4c4.7-1.2,11.2-1.5,17.6-1.5s12.4.3,17,1.5l-.6,3.4c-10.6-1.3-22.7-1.3-33.4,0ZM257.1,325.3c0,2-33,2-33,0s32.9-2,33,0ZM212.8,254.3l-.2-3.6,8.3-.4.2,3.6-8.3.4ZM244.1,287.2c1-1.6-1.4-2.2-2.3-.5-.1.2-.2.3-.2.4.2.1.4.3.4.6s-.2.5-.5.6c.2.6,1.1.9,1.6.5-.2.7-.9,1-1.5.7,0,.5-.2,1.1-1,1.6-.7-.4-1-1.1-1-1.6-.6.2-1.4,0-1.5-.7.5.4,1.4.1,1.6-.5-.3-.1-.5-.3-.5-.6s.2-.5.4-.6c-.1-.2-.1-.3-.2-.4-1-1.7-3.3-1.1-2.3.5-4.8-.6-.7-7.2,3.1-1.1-.2-1.2-.9-2.1-.9-4.1s.6-2.6,1.4-3.4c.6.9,1.4,1.6,1.4,3.4s-.6,3-.9,4.1c3.6-6.2,7.7.4,2.9,1.1ZM233.6,232.6h4.5c0-.1-2.9,4.5-2.9,4.5h-3.2c0,.1,1.6-4.5,1.6-4.5ZM240.2,238.4v3.6c.1,0-8.1.1-8.1.1v7.1c.1,0,5.8-.1,5.8-.1v3.5c.1,0-5.6.1-5.6.1v7c.1,0,8.3-.1,8.3-.1v3.6c.1,0-11.9.2-11.9.2l-.5-24.9,12-.2ZM72.8,167.1l27-8.5,42.5,74-17,5.3-8-14.3-22,6.9,1.7,16.4-16.9,5.3-7.3-85ZM129.2,269.7l-9-1.8c-1.5-.3-2.1-1-2.7-2.7l-1.3-4.5c-.7-2.4.1-3.8,2.3-4.5l6.4-1.9c2.7-.7,3.8.2,4.7,3l1,3.4-3.7,1.1-1.2-4-6,1.7,1.3,4.6,9.1,1.8c1.5.3,2.1,1,2.6,2.7l1.5,4.6c.7,2.7.1,4.5-2.3,5.2l-6.3,1.8c-2,.6-3.8-.2-4.7-2.9l-1.2-3.9,3.7-1.1,1.3,4.4,6-1.7-1.5-5.2ZM153.6,492.8c-17.7-19.6-34.1-41.3-48.6-65-3.1-5.1-6.1-10.3-9-15.5v-59.9c16.6,24.5,36,46.9,57.6,66.3v74.2ZM152.5,273.1l-2.1-4.9-6,1.4.3,5.2-3.8,1-1.1-25.3,6.4-1.5,10.2,23.2-3.9,1ZM162.8,270.9l-4.7-24.4,3.8-.7,4.7,24.4-3.8.7ZM166.3,198.8l17.1-1.7,1.4,13.4,23.4-2.3-1.4-14-33.7-9.5c-6.3-2.1-8.6-5.1-9.4-12.3l-1.5-14.8c-1-9.6,3.8-13.8,12.4-14.7l29.4-3c10.9-1.1,14.9,4,15.9,14.8l1.1,10.9-17.1,1.7-1.2-12.1-23.4,2.3,1.3,12.3,33.8,9.1c6.5,2,8.5,5,9.2,12.8l1.3,14.1c1,9.6-3.4,16-13,17l-28.6,2.9c-8.2.9-14.9-3.3-15.9-13.7l-1.3-13.3ZM204.5,265l-3.9.3-2-21.1-5.3.5-.3-3.6,14.6-1.4.3,3.6-5.3.5,2,21.1ZM175.3,243.4l6,11.1c1.1,2,2.8,5.6,4.1,8.6-.6-3.2-1.3-6.8-1.5-8.5l-1.8-12.1,3.4-.5,3.6,24.5-5,.9-5.7-10.5c-1.1-1.9-2.6-5.3-3.9-8.4.5,3.1,1.2,6.5,1.4,8.1l1.7,11.7-3.4.5-3.6-24.5,4.8-.7ZM186.9,372.3c-1.2,0-2.2-1-2.2-2.2s1-2.2,2.2-2.2h-2.2v-6.5h-6.5v-2.2c0,1.2-1,2.2-2.2,2.2s-2.2-1-2.2-2.2,1-2.2,2.2-2.2,2.2,1,2.2,2.2v-2.1h6.5v-6.6h2.2c-1.2,0-2.2-1-2.2-2.2s1-2.2,2.2-2.2,2.2,1,2.2,2.2-1,2.2-2.2,2.2h2.1v6.6h6.6v2.1c0-1.2,1-2.2,2.2-2.2s2.2,1,2.2,2.2-1,2.2-2.2,2.2-2.2-1-2.2-2.2v2.2h-6.6v6.5h-2.1c1.2,0,2.2,1,2.2,2.2s-1,2.2-2.2,2.2ZM212.4,443.7v2.4h-9.1v-16.2h2.7v13.7h6.5ZM277.7,538.5c-12,9.2-24.4,17.5-37.2,25-12.8-7.3-25.2-15.7-37.2-25v-82.9c12,7.4,24.3,14,37.2,19.8,12.8-5.7,25.2-12.3,37.2-19.8v82.9ZM238.3,388.9c0-1.2,1-2.2,2.2-2.2s2.2,1,2.2,2.2-.7,1.8-1.6,2.1h1.5v6.6h6.6v2.1c0-1.2,1-2.2,2.2-2.2s2.2,1,2.2,2.2-1,2.2-2.2,2.2-2.2-1-2.2-2.2v2.2h-6.6v6.6h-1.5c.9.3,1.6,1.1,1.6,2.1s-1,2.2-2.2,2.2-2.2-1-2.2-2.2.7-1.8,1.6-2.1h-1.6v-6.6h-6.5v-2.2c0,1.2-1,2.2-2.2,2.2s-2.2-1-2.2-2.2,1-2.2,2.2-2.2,2.2,1,2.2,2.2v-2.1h6.5v-6.6h1.6c-.9-.3-1.6-1.1-1.6-2.1ZM260.5,446.1h-2.7l-1.7-5.2h-3.3v5.2h-2.8v-16.2h8c1.6,0,2.2.9,2.2,2.7v6.1c0,1.4-.5,2.1-1.6,2.2l1.8,5.2ZM241.8,430v16.2h-2.7v-16.2h2.7ZM228.7,430c1.8,0,2.3,1,2.3,2.8v10.5c0,1.6-.9,2.8-2.6,2.8h-5.5c-1.4.1-2.4-.6-2.4-2.6v-11.2c0-1.6.9-2.3,2.3-2.3h5.8ZM277.8,432.4h-6.4v4.5h4.5v2.3h-4.5v4.5h6.4v2.4h-9v-16.2h9v2.4ZM265,379.3c-6.9-5.3-17-6.4-17-8.1s6.4-2.2,6.4-2.2c0,0-6.6-3.2-13.7-6.2-7.3,3.1-14.2,6.4-14.2,6.4,0,0,6.4.5,6.4,2.2s-10,2.8-17,8.1c-7,5.3-20.4,24.9-20.4,24.9-.2-16.5,18.5-34.1,33.8-45.9-.7-.2-1.4-.4-2-.6-8.1-2.2-23.6-10.3-5.3-9.2l3.1.3s-31.8-11.7-32.6-20.1c0,0-1-2.9,9.5-.5,0,0-22.1-18.2-21.8-24.5,0,0-.9-4.7,6.2.3,0,0-3.3-21.1,1.2-23.7,0,0,5.3,37.7,44.4,64.5,0,0,3.6,2.1,8.8,5.6,5.1-3.4,8.5-5.4,8.5-5.4,39.1-26.8,44.4-64.5,44.4-64.5,4.6,2.4,1.2,23.7,1.2,23.7,7-5.1,6.2-.3,6.2-.3.3,6.4-21.8,24.5-21.8,24.5,10.1-1.5,9.5.5,9.5.5-.9,8.4-32.6,20.1-32.6,20.1l3.1-.3c17.5-.5,2.8,7-5.3,9.2-.5.2-1.1.3-1.6.5h0c15.3,11.8,33.6,29.3,33.4,45.6,0,0-13.4-19.6-20.4-24.9ZM289.7,252.2l-.4,3.5-5.7-.6-.7,6.9,8.1.9-.4,3.6-12-1.3,2.9-24.8,11.9,1.3-.4,3.6-8.1-.9-.7,7.1,5.7.6ZM305.1,361.4c-1.2,0-2.2-1-2.2-2.2v2.2h-6.6v6.5h-2.1c1.2,0,2.2,1,2.2,2.2s-1,2.2-2.2,2.2-2.2-1-2.2-2.2,1-2.2,2.2-2.2h-2.2v-6.5h-6.5v-2.2c0,1.2-1,2.2-2.2,2.2s-2.2-1-2.2-2.2,1-2.2,2.2-2.2,2.2,1,2.2,2.2v-2.1h6.5v-6.6h2.2c-1.2,0-2.2-1-2.2-2.2s1-2.2,2.2-2.2,2.2,1,2.2,2.2-1,2.2-2.2,2.2h2.1v6.6h6.6v2.1c0-1.2,1-2.2,2.2-2.2s2.2,1,2.2,2.2-1,2.2-2.2,2.2ZM312.3,269.6l-5-.7-2.3-11.7c-.4-2.1-.9-5.8-1.3-9.2-.4,3.2-.9,6.6-1.1,8.2l-1.9,11.7-3.4-.5,3.9-24.5,4.8.7,2.3,12.3c.4,2.2,1,6.2,1.4,9.5.4-3.2.9-6.9,1.2-8.6l1.9-12.1,3.4.5-3.9,24.5ZM282.4,155.9l-1.4,12.3,31.1,16c6,3.4,7.2,6.6,6.4,14.3l-1.6,14.1c-1.1,9.6-6.7,15-16.3,13.9l-28.5-3.2c-8.2-1-13.8-6.4-12.6-16.8l1.5-13.3,17.1,1.9-1.5,13.4,23.3,2.7,1.6-14-31-16.3c-5.7-3.4-7.3-6.8-6.6-14l1.7-14.8c1.1-9.6,6.6-12.6,15.2-11.7l29.4,3.3c10.9,1.3,13.6,7.1,12.4,17.7l-1.3,10.9-17.1-1.9,1.4-12.1-23.3-2.7ZM325.3,260.3l-2.6,11.6-3.4-.7,5.3-24.3,4.7,1.1,1.6,12.4c.3,2.2.6,6.2.9,9.5.6-3.2,1.3-6.9,1.6-8.5l2.7-11.9,3.4.7-5.3,24.3-4.9-1.2-1.6-11.8c-.3-2.1-.5-5.8-.7-9.2-.5,3.1-1.2,6.5-1.6,8.1ZM385.1,412.1c-2.9,5.3-6,10.4-9,15.5-14.5,23.7-30.7,45.5-48.6,65v-74.2c21.6-19.3,40.9-41.7,57.6-66.3v59.9ZM415.4,185l-32-9.9-5.5,18.2,23,7-4.4,14.3-23-7-5.6,18.3,32,9.9-4.5,14.5-48.7-15,24.4-79.7,48.7,15-4.5,14.5ZM143.7,253.5l.6,12.5,4.8-1.1-4.9-11.6h-.5ZM228.4,432.4h-5.2v11.3h5.2v-11.3ZM252.9,438.6h4.9v-6.2h-4.9v6.2ZM252.7,302.3c.4,0,.7.1,1.1.2.3-3-1-6.5-4.1-6.8-2.3-.2-4.9,1.1-6.1,3.8,1,.9,1.6,2.1,1.5,3.4,0,1.5-.7,2.9-1.8,3.7l2.6,4,5.1-2.9c-.7-.5-1.3-1.4-1.3-2.4,0-1.7,1.4-3.1,3.1-3.1ZM235.7,303.1c0-1.4.6-2.7,1.6-3.5-1.2-2.8-3.7-4-6.1-3.8-3.1.2-4.4,3.7-4.1,6.8.3-.1.6-.1,1-.1,1.7,0,3.1,1.4,3.1,3.1s-.5,1.9-1.3,2.4l5.1,2.9,2.6-4c-1.1-.9-1.8-2.2-1.8-3.7ZM212.9,504.1v3.6c1.2,0,2.7-.6,3.5-1.9v19.7h4v-26.5h-4c0,3.2-1.6,4.9-3.5,5.1ZM232.7,498.9h-5.6c-2.4,0-3.6,1.7-3.6,4.5v7.1c0,3,1.1,4.4,3.8,4.4h5.3v6.7h-8.3v3.8h8.5c2.6,0,3.7-1.2,3.7-3.9v-18c0-3-1.3-4.5-3.8-4.6ZM232.6,511.3h-5.2v-8.5h5.2v8.5ZM239.2,503.1v3h3.9v-3.5h5.1v7.3h-4.9v3.6h5v8.3h-5.2v-4.3h-4v3.5c0,2.7,1.1,4.5,3.8,4.3h5.6c2.6,0,3.7-1.6,3.7-4.3v-6.3c0-1.7-.4-2.7-1.4-3.2.9-.5,1.3-1.4,1.3-2.8v-5.8c0-2.7-.7-4-3.6-4h-5.5c-3.1,0-3.8,1.3-3.8,4.1ZM258.7,525.3h5.6c2.6,0,3.7-1.6,3.7-4.3v-6.3c0-1.7-.4-2.7-1.4-3.2.9-.5,1.3-1.4,1.3-2.8v-5.8c0-2.7-.7-4-3.6-4h-5.5c-3.1,0-3.8,1.3-3.8,4.1v3h3.9v-3.5h5.1v7.3h-4.9v3.6h5v8.3h-5.2v-4.3h-4v3.5c0,2.7,1.1,4.5,3.8,4.3Z"/>
        <path class="cls-2" d="M267,81.5l.5-.3,12-8.7,30.4-22.1h-52.9L240.5,0l-16.4,50.3h-52.9l30.5,22.2,12,8.7.3.2-4.2,13-12.1,37.4,42.8-31.1,42.8,31.1-12.2-37.4-4.2-12.9ZM274.1,119l-30.8-22.4-2.9-2-2.9,2-30.8,22.4,8.1-24.9,3.7-11.3.6-1.9.4-1.4-2.9-2-7.7-5.6-23.1-16.8h41.8l1.1-3.3,11.8-36.2,11.8,36.2,1.1,3.3h41.6l-23.1,16.8-7.7,5.6-2.9,2,.4,1.4.6,1.9,3.7,11.3,8.1,24.9Z"/>
        <path class="cls-4" d="M254.6,80.6l-1.2-3.5,7.9-5.8,13.1-9.5h-25.9l-8.1-24.7-8,24.7h-26l13.1,9.5,7.9,5.8-1.2,3.5-4.3,13.1-2.6,8,11.4-8.3,9.7-7,9.7,7,11.4,8.3-2.6-8-4.3-13.1ZM242.5,83.5l-2.1-1.5-2.1,1.5-12,8.8,3.8-11.9.8-2.4.9-2.4-2.1-1.5-4.3-3.1-7.8-5.7h17.6l.9-2.4,4.6-14.2h0s0,0,0,0h0s4.6,14.2,4.6,14.2l.9,2.4h17.5l-7.8,5.7-4.3,3.1-2.1,1.5.9,2.4.8,2.4,3.8,11.9-12.1-8.8Z"/>
        <path class="cls-3" d="M471.3,144.4c-33.8-20.2-69.8-35.9-107.1-46.7-31.6-9.1-64-14.6-96.8-16.6l-.5.3,4.2,12.9c65.6,4.7,129.8,24.4,187.5,57.7.2,16.2-.3,32.4-1.5,48.5-6.3,84.1-31.6,164.3-73,232.1-37.7,61.6-87.4,110.5-143.7,142h0c-56.4-31.5-106-80.4-143.7-142C55.4,364.8,30.1,284.6,23.8,200.5c-1.2-16.2-1.7-32.4-1.5-48.5,57.8-33.3,121.9-53,187.5-57.7l4.2-13-.3-.2c-32.9,2-65.4,7.6-96.9,16.8-37.3,10.7-73.3,26.5-107.1,46.7-.5,18.8,0,37.9,1.4,56.9,6.4,86.1,32.3,168.3,74.8,237.8,40.3,65.8,93.6,117.5,154.6,149.7,61-32.3,114.3-84.1,154.6-149.9,42.5-69.5,68.3-151.8,74.8-237.8,1.4-18.9,1.9-38,1.4-56.9ZM153.6,492.8v-74.2c-21.6-19.4-41-41.8-57.6-66.3v59.9c3,5.2,6,10.4,9,15.5,14.5,23.7,30.8,45.5,48.6,65ZM327.5,418.5v74.2c17.9-19.6,34.1-41.3,48.6-65,3.1-5.1,6.2-10.2,9-15.5v-59.9c-16.7,24.7-36,47-57.6,66.3ZM277.7,538.5v-82.9c-12,7.4-24.4,14-37.2,19.8-12.9-5.7-25.2-12.3-37.2-19.8v82.9c12,9.2,24.4,17.6,37.2,25,12.8-7.4,25.2-15.7,37.2-25ZM254.9,517.5h4v4.3h5.2v-8.3h-5v-3.6h4.9v-7.3h-5.1v3.5h-3.9v-3c0-2.9.7-4.1,3.8-4.1h5.5c2.9,0,3.6,1.4,3.6,4v5.8c0,1.4-.4,2.2-1.3,2.8,1,.5,1.4,1.5,1.4,3.2v6.3c0,2.7-1.2,4.3-3.7,4.3h-5.6c-2.8.2-3.8-1.6-3.8-4.3v-3.5ZM220.4,525.5h-4v-19.7c-.9,1.3-2.3,1.9-3.5,1.9v-3.6c1.9-.2,3.5-1.9,3.5-5.1h4v26.5ZM236.5,521.5c0,2.8-1.2,3.9-3.7,3.9h-8.5v-3.8h8.3v-6.7h-5.3c-2.8,0-3.8-1.4-3.8-4.4v-7.1c0-2.8,1.2-4.5,3.6-4.5h5.6c2.6.1,3.8,1.6,3.8,4.6v18ZM239.1,521v-3.5h4v4.3h5.2v-8.3h-5v-3.6h4.9v-7.3h-5.1v3.5h-3.9v-3c0-2.9.7-4.1,3.8-4.1h5.5c2.9,0,3.6,1.4,3.6,4v5.8c0,1.4-.4,2.2-1.3,2.8,1,.5,1.4,1.5,1.4,3.2v6.3c0,2.7-1.2,4.3-3.7,4.3h-5.6c-2.8.2-3.8-1.6-3.8-4.3ZM227.3,511.3h5.2v-8.5h-5.2v8.5ZM252,358.6h0c.5-.2,1.1-.3,1.6-.5,8.1-2.2,22.8-9.8,5.3-9.2l-3.1.3s31.8-11.7,32.6-20.1c0,0,.6-2-9.5-.5,0,0,22.1-18.2,21.8-24.5,0,0,.9-4.8-6.2.3,0,0,3.4-21.3-1.2-23.7,0,0-5.3,37.7-44.4,64.5,0,0-3.4,2-8.5,5.4-5.2-3.5-8.8-5.6-8.8-5.6-39.1-26.8-44.4-64.5-44.4-64.5-4.5,2.6-1.2,23.7-1.2,23.7-7-5-6.2-.3-6.2-.3-.3,6.4,21.8,24.5,21.8,24.5-10.4-2.3-9.5.5-9.5.5.9,8.4,32.6,20.1,32.6,20.1l-3.1-.3c-18.3-1.1-2.8,7,5.3,9.2.6.2,1.3.4,2,.6-15.3,11.8-34,29.4-33.8,45.9,0,0,13.4-19.6,20.4-24.9,7-5.3,17-6.4,17-8.1s-6.4-2.2-6.4-2.2c0,0,6.9-3.3,14.2-6.4,7.1,3,13.7,6.2,13.7,6.2,0,0-6.4.5-6.4,2.2s10.1,2.8,17,8.1c7,5.3,20.4,24.9,20.4,24.9.2-16.3-18.1-33.8-33.4-45.6ZM223.3,299.8c.3,1.2,1.4,3,2.6,4.4-.2.4-.3.9-.3,1.4,0,1.5,1.2,2.8,2.6,3l-1.5,4.9-4.9-3.2c.5-.5.9-1.3.9-2.1,0-1.7-1.4-3.1-3.1-3.1s-1.4.2-1.9.7c-.7-2.7.1-6.5,3.1-6.8h1.1c-.2-1-.2-2-.2-3s.1-1.7.2-2.4c-4.7-.9-9.6,1.7-7.7,8.6-.2,1.2,1.1,3.4,2.4,4.4-.3.4-.4,1-.4,1.6,0,1.7,1.4,3.1,3.1,3.1s.7-.1,1.1-.2l.3.9,1.7,6.1c5.1-1.2,11.9-1.5,18.8-1.5s13.2.3,18.1,1.5l1.7-6.1.3-.9c.3.1.6.2,1.1.2,1.7,0,3.1-1.4,3.1-3.1s-.2-1.2-.4-1.6c1.4-1,2.7-3.2,3-4.4,1.9-6.9-3.1-9.5-7.7-8.6.1.9.2,1.7.2,2.4,0,1.1-.1,2-.2,3,.3,0,.6-.1,1.1,0,3,.3,3.8,4.1,3.1,6.8-.5-.4-1.2-.7-1.9-.7-1.7,0-3.1,1.4-3.1,3.1s.3,1.5.9,2.1l-4.9,3.2-1.5-4.9c1.5-.2,2.6-1.5,2.6-3s-.1-1-.3-1.4c1.2-1.4,2.2-3.3,2.6-4.4,3.7-13.6-13.9-13.8-17.6-4.8-3.7-9-21.4-8.9-17.6,4.8ZM243.6,299.6c1.2-2.8,3.7-4,6.1-3.8,3.2.3,4.5,3.8,4.1,6.8-.3-.1-.6-.2-1.1-.2-1.7,0-3.1,1.4-3.1,3.1s.5,1.9,1.3,2.4l-5.1,2.9-2.6-4c1.1-.9,1.8-2.2,1.8-3.7.1-1.3-.5-2.6-1.5-3.4ZM231.3,295.7c2.3-.2,4.9,1.1,6.1,3.8-1,.9-1.6,2.1-1.6,3.5s.7,2.9,1.8,3.7l-2.6,4-5.1-2.9c.7-.5,1.3-1.5,1.3-2.4,0-1.7-1.4-3.1-3.1-3.1s-.6,0-1,.1c-.2-3.1,1.1-6.6,4.1-6.8ZM257.8,319.9c-4.6-1.2-10.7-1.5-17-1.5s-13,.3-17.6,1.5l.6,3.4c10.6-1.3,22.7-1.3,33.4,0l.6-3.4ZM224.1,325.3c0,2,33,2,33,0-.1-2-33-2-33,0ZM240.7,278.6c-.7.9-1.4,1.6-1.4,3.4s.6,3,.9,4.1c-3.8-6.2-7.9.4-3.1,1.1-1-1.6,1.4-2.2,2.3-.5.1.1.1.2.2.4-.2.1-.4.3-.4.6s.2.5.5.6c-.2.6-1.1,1-1.6.5.1.7.9,1,1.5.7,0,.5.2,1.2,1,1.6.7-.5,1-1.1,1-1.6.6.2,1.3,0,1.5-.7-.5.3-1.4.1-1.6-.5.3-.1.5-.3.5-.6s-.2-.5-.4-.6c0-.1.1-.2.2-.4,1-1.7,3.3-1.1,2.3.5,4.8-.6.7-7.2-2.9-1.1.2-1.2.9-2.1.9-4.1s-.7-2.6-1.4-3.4ZM238.3,397.7h-6.5v4.4h6.5v6.6h1.6c-.9.3-1.6,1.1-1.6,2.1s1,2.2,2.2,2.2,2.2-1,2.2-2.2-.7-1.8-1.6-2.1h1.5v-6.6h6.6v-4.4h-6.6v-6.6h-1.5c.9-.3,1.6-1.1,1.6-2.1s-1-2.2-2.2-2.2-2.2,1-2.2,2.2.7,1.8,1.6,2.1h-1.6v6.6ZM251.5,402c1.2,0,2.2-1,2.2-2.2s-1-2.2-2.2-2.2-2.2,1-2.2,2.2,1,2.2,2.2,2.2ZM229.6,397.6c-1.2,0-2.2,1-2.2,2.2s1,2.2,2.2,2.2,2.2-1,2.2-2.2-1-2.2-2.2-2.2ZM296.3,361.4h6.6v-4.4h-6.6v-6.6h-4.4v6.6h-6.5v4.4h6.5v6.5h4.4v-6.5ZM296.4,348.2c0-1.2-1-2.2-2.2-2.2s-2.2,1-2.2,2.2,1,2.2,2.2,2.2,2.2-1,2.2-2.2ZM305.1,361.4c1.2,0,2.2-1,2.2-2.2s-1-2.2-2.2-2.2-2.2,1-2.2,2.2,1,2.2,2.2,2.2ZM283.2,357c-1.2,0-2.2,1-2.2,2.2s1,2.2,2.2,2.2,2.2-1,2.2-2.2-1-2.2-2.2-2.2ZM292,370.1c0,1.2,1,2.2,2.2,2.2s2.2-1,2.2-2.2-1-2.2-2.2-2.2-2.2,1-2.2,2.2ZM189,361.3h6.6v-2.2c0,1.2,1,2.2,2.2,2.2s2.2-1,2.2-2.2-1-2.2-2.2-2.2-2.2,1-2.2,2.2v-2.1h-6.6v-6.6h-4.4v6.6h-6.5v4.4h6.5v6.5h2.2c-1.2,0-2.2,1-2.2,2.2s1,2.2,2.2,2.2,2.2-1,2.2-2.2-1-2.2-2.2-2.2h2.1v-6.5ZM189.1,348.1c0-1.2-1-2.2-2.2-2.2s-2.2,1-2.2,2.2,1,2.2,2.2,2.2,2.2-1,2.2-2.2ZM175.9,356.9c-1.2,0-2.2,1-2.2,2.2s1,2.2,2.2,2.2,2.2-1,2.2-2.2-1-2.2-2.2-2.2ZM99.8,158.6l-27,8.5,7.3,85,16.9-5.3-1.7-16.4,22-6.9,8,14.3,17-5.3-42.5-74ZM93.8,215.5l-3.8-37.8,1.8-.5,18.4,33.2-16.4,5.2ZM183.6,225.8l28.6-2.9c9.6-1,13.9-7.4,13-17l-1.3-14.1c-.7-7.8-2.8-10.7-9.2-12.8l-33.8-9.1-1.3-12.3,23.4-2.3,1.2,12.1,17.1-1.7-1.1-10.9c-1.1-10.7-5-15.8-15.9-14.8l-29.4,3c-8.6.9-13.4,5.1-12.4,14.7l1.5,14.8c.7,7.2,3.1,10.2,9.4,12.3l33.7,9.5,1.4,14-23.4,2.3-1.4-13.4-17.1,1.7,1.3,13.3c1.1,10.4,7.8,14.6,15.9,13.7ZM310.2,143.9l-29.4-3.3c-8.6-1-14.1,2.1-15.2,11.7l-1.7,14.8c-.7,7.2.9,10.6,6.6,14l31,16.3-1.6,14-23.3-2.7,1.5-13.4-17.1-1.9-1.5,13.3c-1.2,10.4,4.5,15.8,12.6,16.8l28.5,3.2c9.6,1.1,15.2-4.4,16.3-13.9l1.6-14.1c.9-7.8-.4-10.9-6.4-14.3l-31.1-16,1.4-12.3,23.3,2.7-1.4,12.1,17.1,1.9,1.3-10.9c1.2-10.6-1.5-16.5-12.4-17.7ZM415.4,185l4.5-14.5-48.7-15-24.4,79.7,48.7,15,4.5-14.5-32-9.9,5.6-18.3,23,7,4.4-14.3-23-7,5.5-18.2,32,9.9ZM203.2,430v16.2h9.1v-2.4h-6.5v-13.7h-2.7ZM220.5,432.3v11.2c0,1.9,1.1,2.7,2.4,2.6h5.5c1.7,0,2.6-1.2,2.6-2.8v-10.5c0-1.8-.5-2.8-2.3-2.8h-5.8c-1.5,0-2.3.7-2.3,2.3ZM223.2,432.4h5.2v11.3h-5.2v-11.3ZM239.1,446.1h2.7v-16.2h-2.7v16.2ZM260.3,438.7v-6.1c0-1.8-.6-2.7-2.2-2.7h-8v16.2h2.8v-5.2h3.3l1.7,5.2h2.7l-1.8-5.2c1.1-.1,1.6-.9,1.6-2.2ZM257.7,438.6h-4.9v-6.2h4.9v6.2ZM277.8,432.4v-2.4h-9v16.2h9v-2.4h-6.4v-4.5h4.5v-2.3h-4.5v-4.5h6.4ZM123.4,272.3l-3.7,1.1,1.2,3.9c.9,2.7,2.7,3.5,4.7,2.9l6.3-1.8c2.4-.7,3.1-2.6,2.3-5.2l-1.5-4.6c-.4-1.7-1.1-2.3-2.6-2.7l-9.1-1.8-1.3-4.6,6-1.7,1.2,4,3.7-1.1-1-3.4c-.9-2.8-2-3.7-4.7-3l-6.4,1.9c-2.2.6-3.1,2-2.3,4.5l1.3,4.5c.5,1.7,1.2,2.3,2.7,2.7l9,1.8,1.5,5.2-6,1.7-1.3-4.4ZM146.3,249l-6.4,1.5,1.1,25.3,3.8-1-.3-5.2,6-1.4,2.1,4.9,3.9-1-10.2-23.2ZM144.4,266l-.6-12.5h.5c0-.1,4.9,11.5,4.9,11.5l-4.8,1.1ZM158.2,246.4l4.7,24.4,3.8-.7-4.7-24.4-3.8.7ZM177.5,268.1l-1.7-11.7c-.2-1.6-.9-5-1.4-8.1,1.4,3.1,2.9,6.5,3.9,8.4l5.7,10.5,5-.9-3.6-24.5-3.4.5,1.8,12.1c.2,1.7.9,5.3,1.5,8.5-1.4-3-3.1-6.6-4.1-8.6l-6-11.1-4.8.7,3.6,24.5,3.4-.5ZM207.5,239.7l-14.6,1.4.3,3.6,5.3-.5,2,21.1,3.9-.3-2-21.1,5.3-.5-.3-3.6ZM220.9,250.3l-8.3.4.2,3.6,8.3-.4-.2-3.6ZM233.6,232.6l-1.6,4.6h3.2c0-.1,2.9-4.7,2.9-4.7h-4.5ZM228.7,263.4l12-.2v-3.6c-.1,0-8.3.1-8.3.1v-7c-.1,0,5.6-.1,5.6-.1v-3.5c-.1,0-5.8.1-5.8.1v-7.1c-.1,0,8.1-.1,8.1-.1v-3.6c-.1,0-12.1.2-12.1.2l.5,24.9ZM255.5,263.4l.6-21.1,5.3.2v-3.7c.1,0-14.5-.4-14.5-.4v3.7c-.1,0,5.2.2,5.2.2l-.6,21h3.9ZM272.7,239.6l-3.9-.3-1.7,24.8,3.9.3,1.7-24.8ZM292.8,245.3l.4-3.6-11.9-1.3-2.9,24.8,12,1.3.4-3.6-8.1-.9.7-6.9,5.7.6.4-3.5-5.7-.6.7-7.1,8.1.9ZM316.2,245.1l-3.4-.5-1.9,12.1c-.3,1.7-.7,5.4-1.2,8.6-.4-3.3-1-7.2-1.4-9.5l-2.3-12.3-4.8-.7-3.9,24.5,3.4.5,1.9-11.7c.2-1.6.6-5,1.1-8.2.4,3.4.9,7.1,1.3,9.2l2.3,11.7,5,.7,3.9-24.5ZM333.4,261.2c-.3,1.6-1,5.3-1.6,8.5-.2-3.3-.5-7.2-.9-9.5l-1.6-12.4-4.7-1.1-5.3,24.3,3.4.7,2.6-11.6c.4-1.6,1.1-5,1.6-8.1.2,3.4.4,7.1.7,9.2l1.6,11.8,4.9,1.2,5.3-24.3-3.4-.7-2.7,11.9ZM353,279.4l1-3.5-7.9-2.1,1.9-6.7,5.5,1.5,1-3.4-5.5-1.5,1.9-6.9,7.9,2.1,1-3.5-11.6-3.2-6.7,24,11.6,3.2ZM216.7,77.5l2.9,2-.4,1.4-.6,1.9-3.7,11.3-8.1,24.9,30.8-22.4,2.9-2,2.9,2,30.8,22.4-8.1-24.9-3.7-11.3-.6-1.9-.4-1.4,2.9-2,7.7-5.6,23.1-16.8h-41.6l-1.1-3.3-11.8-36.2-11.8,36.2-1.1,3.3h-41.8l23.1,16.8,7.7,5.6ZM232.6,61.7l8-24.7,8.1,24.7h25.9l-13.1,9.5-7.9,5.8,1.2,3.5,4.3,13.1,2.6,8-11.4-8.3-9.7-7-9.7,7-11.4,8.3,2.6-8,4.3-13.1,1.2-3.5-7.9-5.8-13.1-9.5h26ZM240.5,48.7h0s0,0,0,0h0ZM229.6,74.2l2.1,1.5-.9,2.4-.8,2.4-3.8,11.9,12-8.8,2.1-1.5,2.1,1.5,12.1,8.8-3.8-11.9-.8-2.4-.9-2.4,2.1-1.5,4.3-3.1,7.8-5.7h-17.5l-.9-2.4-4.6-14.2-4.6,14.2-.9,2.4h-17.6l7.8,5.7,4.3,3.1Z"/>
      </g>
    </g>
  </g>
</svg>